<svg width="59" height="58" viewBox="0 0 59 58" fill="none" xmlns="http://www.w3.org/2000/svg">
<path d="M2.45703 2.47852H56.4953V55.5213H2.45703V2.47852Z" fill="#261300"/>
<path d="M0 0V58H58.9508V0H0ZM2.45628 2.47863H56.4945V55.5214H2.45628V2.47863Z" fill="#FF7C00"/>
<path d="M20.4617 32.8419L18.5212 40.2778C18.4721 40.4761 18.3984 40.5256 18.1528 40.5256H14.542C14.2964 40.5256 14.2473 40.4513 14.2964 40.1538L21.2723 15.5162C21.3951 15.0701 21.4688 14.6735 21.5179 13.459C21.5179 13.2855 21.5916 13.2111 21.7144 13.2111H26.8726C27.0445 13.2111 27.1182 13.2607 27.1673 13.459L34.9783 40.2034C35.0275 40.4017 34.9783 40.5256 34.7818 40.5256H30.7044C30.5079 40.5256 30.3851 40.4761 30.336 40.3026L28.2972 32.8419H20.4617ZM27.2902 28.8265C26.6024 26.0752 24.9813 20.0769 24.3672 17.1769H24.3181C23.8022 20.0769 22.5004 24.9846 21.4688 28.8265H27.2902ZM38.3434 15.0453C38.3434 13.459 39.4488 12.5171 40.8489 12.5171C42.3472 12.5171 43.3543 13.5333 43.3543 15.0453C43.3543 16.6812 42.2981 17.5735 40.7997 17.5735C39.3751 17.5735 38.3434 16.6812 38.3434 15.0453ZM38.6382 20.6718C38.6382 20.4735 38.7119 20.3744 38.9329 20.3744H42.7893C42.9858 20.3744 43.0841 20.4487 43.0841 20.6718V40.2282C43.0841 40.4265 43.0349 40.5256 42.7893 40.5256H38.9821C38.7364 40.5256 38.6628 40.4017 38.6628 40.2034V20.6718H38.6382Z" fill="#FF7C00"/>
</svg>
