<svg width="39" height="58" viewBox="0 0 39 58" fill="none" xmlns="http://www.w3.org/2000/svg">
<path d="M9.69864 58C15.0519 58 19.3973 53.6685 19.3973 48.3325V38.665H9.69864C4.34542 38.665 0 42.9965 0 48.3325C0 53.6685 4.34542 58 9.69864 58Z" fill="#0ACF83"/>
<path d="M0 9.66745C0 4.33144 4.34542 0 9.69864 0H19.3973V19.3326H9.69864C4.34542 19.3326 0 15.0034 0 9.66745Z" fill="#F24E1E"/>
<path d="M19.3945 0H29.0932C34.4464 0 38.7918 4.33144 38.7918 9.66745C38.7918 15.0034 34.4464 19.3326 29.0932 19.3326H19.3945V0Z" fill="#FF7262"/>
<path d="M0 29C0 23.664 4.34542 19.3325 9.69864 19.3325H19.3973V38.6651H9.69864C4.34542 38.6674 0 34.336 0 29Z" fill="#A259FF"/>
<path d="M38.7918 29C38.7918 34.336 34.4464 38.6674 29.0932 38.6674C23.74 38.6674 19.3945 34.336 19.3945 29C19.3945 23.664 23.74 19.3325 29.0932 19.3325C34.4464 19.3325 38.7918 23.664 38.7918 29Z" fill="#1ABCFE"/>
</svg>
