<svg width="60" height="60" viewBox="0 0 60 60" fill="none" xmlns="http://www.w3.org/2000/svg">
<path d="M4.25586 29.9499C4.25586 40.1226 10.1632 48.9113 18.7351 53.0733L6.48662 19.488C5.06141 22.6896 4.25586 26.2216 4.25586 29.9499Z" fill="#00749A"/>
<path d="M47.2999 28.6486C47.2999 25.4781 46.1639 23.2783 45.1828 21.5639C43.8712 19.4468 42.6525 17.6601 42.6525 15.5429C42.6525 13.1779 44.4392 10.9781 46.9694 10.9781C47.083 10.9781 47.1863 10.9885 47.2999 10.9988C42.7248 6.81612 36.6418 4.25488 29.9496 4.25488C20.9749 4.25488 13.0743 8.86099 8.47852 15.8321C9.07752 15.8528 9.64553 15.8631 10.1309 15.8631C12.8161 15.8631 16.9781 15.5326 16.9781 15.5326C18.362 15.45 18.5273 17.4845 17.1434 17.6498C17.1434 17.6498 15.7491 17.815 14.2 17.8976L23.5568 45.7305L29.175 28.8655L25.1679 17.8976C23.784 17.815 22.4724 17.6498 22.4724 17.6498C21.0885 17.5671 21.2537 15.45 22.6376 15.5326C22.6376 15.5326 26.8823 15.8631 29.4022 15.8631C32.0874 15.8631 36.2494 15.5326 36.2494 15.5326C37.6333 15.45 37.7985 17.4845 36.4146 17.6498C36.4146 17.6498 35.0204 17.815 33.4713 17.8976L42.7558 45.5136L45.317 36.952C46.453 33.4097 47.2999 30.8484 47.2999 28.6486Z" fill="#00749A"/>
<path d="M30.4036 32.2014L22.6992 54.602C25.0023 55.2836 27.4396 55.645 29.9595 55.645C32.9545 55.645 35.8256 55.1287 38.4901 54.1889C38.4178 54.0752 38.3558 53.9616 38.3042 53.8377L30.4036 32.2014Z" fill="#00749A"/>
<path d="M52.4944 17.6189C52.6081 18.4348 52.67 19.3126 52.67 20.2628C52.67 22.8653 52.1846 25.7983 50.7181 29.4646L42.8691 52.1543C50.5116 47.7032 55.6444 39.4204 55.6444 29.95C55.6444 25.4782 54.498 21.2852 52.4944 17.6189Z" fill="#00749A"/>
<path d="M29.95 0C13.4362 0 0 13.4362 0 29.95C0 46.4638 13.4362 59.9 29.95 59.9C46.4638 59.9 59.9 46.4638 59.9 29.95C59.9 13.4362 46.4638 0 29.95 0ZM29.95 58.5264C14.1901 58.5264 1.37357 45.7099 1.37357 29.95C1.37357 14.1901 14.1901 1.37357 29.95 1.37357C45.7099 1.37357 58.5264 14.1901 58.5264 29.95C58.5264 45.7099 45.7099 58.5264 29.95 58.5264Z" fill="#00749A"/>
</svg>
