<svg width="122" height="71" viewBox="0 0 122 71" fill="none" xmlns="http://www.w3.org/2000/svg">
<rect width="122" height="71" fill="#FFCC00"/>
<path d="M15.24 10.68C15.864 10.784 16.332 11.012 16.644 11.364C16.964 11.716 17.124 12.184 17.124 12.768C17.124 13.488 16.872 14.04 16.368 14.424C15.864 14.808 15.116 15 14.124 15H10.512V6.6H13.896C14.776 6.6 15.46 6.784 15.948 7.152C16.444 7.52 16.692 8.048 16.692 8.736C16.692 9.224 16.564 9.632 16.308 9.96C16.052 10.288 15.696 10.528 15.24 10.68ZM11.124 10.488H13.884C14.588 10.488 15.128 10.344 15.504 10.056C15.88 9.768 16.068 9.352 16.068 8.808C16.068 8.256 15.88 7.836 15.504 7.548C15.128 7.26 14.588 7.116 13.884 7.116H11.124V10.488ZM14.136 14.484C15.72 14.484 16.512 13.9 16.512 12.732C16.512 12.132 16.312 11.692 15.912 11.412C15.512 11.132 14.92 10.992 14.136 10.992H11.124V14.484H14.136ZM25.308 14.448V15H19.512V6.6H25.128V7.152H20.124V10.464H24.6V11.004H20.124V14.448H25.308ZM27.3518 6.6H33.3398V7.14H27.9638V10.164H30.8078C31.7918 10.164 32.5398 10.364 33.0518 10.764C33.5638 11.164 33.8198 11.752 33.8198 12.528C33.8198 13.328 33.5478 13.94 33.0038 14.364C32.4598 14.788 31.6718 15 30.6398 15H27.3518V6.6ZM30.6518 14.484C31.4918 14.484 32.1278 14.324 32.5598 14.004C32.9918 13.676 33.2078 13.192 33.2078 12.552C33.2078 11.296 32.3558 10.668 30.6518 10.668H27.9638V14.484H30.6518ZM35.2557 11.508H38.3397V12.048H35.2557V11.508ZM44.2995 15.06C43.4755 15.06 42.7315 14.876 42.0675 14.508C41.4115 14.14 40.8915 13.632 40.5075 12.984C40.1315 12.336 39.9435 11.608 39.9435 10.8C39.9435 9.992 40.1315 9.264 40.5075 8.616C40.8915 7.968 41.4115 7.46 42.0675 7.092C42.7315 6.724 43.4755 6.54 44.2995 6.54C44.9075 6.54 45.4675 6.64 45.9795 6.84C46.4915 7.032 46.9275 7.32 47.2875 7.704L46.9035 8.1C46.2315 7.436 45.3715 7.104 44.3235 7.104C43.6195 7.104 42.9795 7.264 42.4035 7.584C41.8275 7.904 41.3755 8.348 41.0475 8.916C40.7195 9.476 40.5555 10.104 40.5555 10.8C40.5555 11.496 40.7195 12.128 41.0475 12.696C41.3755 13.256 41.8275 13.696 42.4035 14.016C42.9795 14.336 43.6195 14.496 44.3235 14.496C45.3635 14.496 46.2235 14.16 46.9035 13.488L47.2875 13.884C46.9275 14.268 46.4875 14.56 45.9675 14.76C45.4555 14.96 44.8995 15.06 44.2995 15.06ZM54.3593 12.636H49.4873L48.4193 15H47.7593L51.6233 6.6H52.2353L56.0993 15H55.4393L54.3593 12.636ZM54.1313 12.12L51.9233 7.272L49.7273 12.12H54.1313ZM57.844 6.6H58.456V13.968L64.18 6.6H64.72V15H64.108V7.644L58.384 15H57.844V6.6ZM61.252 5.964C60.692 5.964 60.24 5.836 59.896 5.58C59.56 5.316 59.388 4.956 59.38 4.5H59.872C59.88 4.836 60.008 5.1 60.256 5.292C60.512 5.484 60.844 5.58 61.252 5.58C61.652 5.58 61.976 5.484 62.224 5.292C62.48 5.1 62.612 4.836 62.62 4.5H63.112C63.104 4.956 62.928 5.316 62.584 5.58C62.248 5.836 61.804 5.964 61.252 5.964ZM73.0144 7.152H69.9904V15H69.3784V7.152H66.3544V6.6H73.0144V7.152Z" fill="white"/>
<path d="M12.48 54.5V58H12.225V56.335H9.885V58H9.63V54.5H9.885V56.11H12.225V54.5H12.48ZM15.9563 57.015H13.9263L13.4813 58H13.2063L14.8163 54.5H15.0713L16.6813 58H16.4063L15.9563 57.015ZM15.8613 56.8L14.9413 54.78L14.0263 56.8H15.8613ZM19.4275 54.73H18.1675V58H17.9125V54.73H16.6525V54.5H19.4275V54.73ZM22.6071 54.5L20.9921 57.49C20.8888 57.6833 20.7655 57.8267 20.6221 57.92C20.4821 58.0133 20.3321 58.06 20.1721 58.06C20.0488 58.06 19.9155 58.03 19.7721 57.97L19.8521 57.76C19.9655 57.8067 20.0721 57.83 20.1721 57.83C20.4088 57.83 20.6055 57.6983 20.7621 57.435L20.8821 57.23L19.4471 54.5H19.7271L21.0221 56.99L22.3421 54.5H22.6071ZM24.4934 54.5C24.9334 54.5 25.2784 54.605 25.5284 54.815C25.7784 55.0217 25.9034 55.31 25.9034 55.68C25.9034 56.0467 25.7784 56.335 25.5284 56.545C25.2784 56.7517 24.9334 56.855 24.4934 56.855H23.4934V58H23.2384V54.5H24.4934ZM24.4934 56.625C24.8667 56.625 25.1517 56.5433 25.3484 56.38C25.5451 56.2167 25.6434 55.9833 25.6434 55.68C25.6434 55.3767 25.5451 55.1433 25.3484 54.98C25.1517 54.8133 24.8667 54.73 24.4934 54.73H23.4934V56.625H24.4934ZM28.7591 57.015H26.7291L26.2841 58H26.0091L27.6191 54.5H27.8741L29.4841 58H29.2091L28.7591 57.015ZM28.6641 56.8L27.7441 54.78L26.8291 56.8H28.6641ZM32.8609 54.5V58H32.6059V54.73H30.7959L30.7509 56.015C30.7309 56.495 30.6893 56.8817 30.6259 57.175C30.5659 57.465 30.4759 57.68 30.3559 57.82C30.2359 57.96 30.0776 58.03 29.8809 58.03C29.7909 58.03 29.7076 58.02 29.6309 58L29.6609 57.765C29.7176 57.7783 29.7726 57.785 29.8259 57.785C29.9793 57.785 30.1026 57.7267 30.1959 57.61C30.2926 57.49 30.3659 57.3017 30.4159 57.045C30.4659 56.7883 30.4993 56.4467 30.5159 56.02L30.5659 54.5H32.8609ZM35.5272 55.78C35.9405 55.78 36.2539 55.8717 36.4672 56.055C36.6839 56.2383 36.7922 56.51 36.7922 56.87C36.7922 57.24 36.6772 57.5217 36.4472 57.715C36.2205 57.905 35.8922 58 35.4622 58H34.1222V54.5H34.3772V55.78H35.5272ZM35.4672 57.785C35.8172 57.785 36.0822 57.7083 36.2622 57.555C36.4422 57.4017 36.5322 57.175 36.5322 56.875C36.5322 56.2883 36.1772 55.995 35.4672 55.995H34.3772V57.785H35.4672ZM40.5122 54.5V58H40.2572V56.335H37.9172V58H37.6622V54.5H37.9172V56.11H40.2572V54.5H40.5122ZM41.7736 54.5H42.0286V58H41.7736V54.5ZM47.4514 54.5V58H47.1964V54.73H44.8264V58H44.5714V54.5H47.4514ZM49.967 54.5C50.407 54.5 50.752 54.605 51.002 54.815C51.252 55.0217 51.377 55.31 51.377 55.68C51.377 56.0467 51.252 56.335 51.002 56.545C50.752 56.7517 50.407 56.855 49.967 56.855H48.967V58H48.712V54.5H49.967ZM49.967 56.625C50.3404 56.625 50.6254 56.5433 50.822 56.38C51.0187 56.2167 51.117 55.9833 51.117 55.68C51.117 55.3767 51.0187 55.1433 50.822 54.98C50.6254 54.8133 50.3404 54.73 49.967 54.73H48.967V56.625H49.967ZM53.7423 58.025C53.399 58.025 53.089 57.9483 52.8123 57.795C52.5356 57.6383 52.3173 57.425 52.1573 57.155C52.0006 56.885 51.9223 56.5833 51.9223 56.25C51.9223 55.9167 52.0006 55.615 52.1573 55.345C52.3173 55.075 52.5356 54.8633 52.8123 54.71C53.089 54.5533 53.399 54.475 53.7423 54.475C54.0856 54.475 54.3956 54.5517 54.6723 54.705C54.949 54.8583 55.1656 55.07 55.3223 55.34C55.4823 55.61 55.5623 55.9133 55.5623 56.25C55.5623 56.5867 55.4823 56.89 55.3223 57.16C55.1656 57.43 54.949 57.6417 54.6723 57.795C54.3956 57.9483 54.0856 58.025 53.7423 58.025ZM53.7423 57.79C54.0356 57.79 54.3006 57.7233 54.5373 57.59C54.774 57.4567 54.9606 57.2733 55.0973 57.04C55.234 56.8033 55.3023 56.54 55.3023 56.25C55.3023 55.96 55.234 55.6983 55.0973 55.465C54.9606 55.2283 54.774 55.0433 54.5373 54.91C54.3006 54.7767 54.0356 54.71 53.7423 54.71C53.449 54.71 53.1823 54.7767 52.9423 54.91C52.7056 55.0433 52.519 55.2283 52.3823 55.465C52.2456 55.6983 52.1773 55.96 52.1773 56.25C52.1773 56.54 52.2456 56.8033 52.3823 57.04C52.519 57.2733 52.7056 57.4567 52.9423 57.59C53.1823 57.7233 53.449 57.79 53.7423 57.79ZM59.5223 57.77V58.8H59.2773V58H56.0773L56.0723 58.8H55.8273L55.8323 57.77H56.0223C56.2523 57.75 56.4123 57.5567 56.5023 57.19C56.5957 56.8233 56.6523 56.31 56.6723 55.65L56.7073 54.5H58.9823V57.77H59.5223ZM56.9073 55.67C56.8873 56.2367 56.8423 56.7 56.7723 57.06C56.7057 57.42 56.5907 57.6567 56.4273 57.77H58.7273V54.73H56.9373L56.9073 55.67ZM62.988 54.5L61.373 57.49C61.2697 57.6833 61.1463 57.8267 61.003 57.92C60.863 58.0133 60.713 58.06 60.553 58.06C60.4297 58.06 60.2963 58.03 60.153 57.97L60.233 57.76C60.3463 57.8067 60.453 57.83 60.553 57.83C60.7897 57.83 60.9863 57.6983 61.143 57.435L61.263 57.23L59.828 54.5H60.108L61.403 56.99L62.723 54.5H62.988ZM64.7143 56.34H63.8743V58H63.6193V54.5H63.8743V56.11H64.7193L65.9743 54.5H66.2593L64.9193 56.205L66.3493 58H66.0493L64.7143 56.34ZM69.1395 54.73H67.8795V58H67.6245V54.73H66.3645V54.5H69.1395V54.73ZM69.8204 54.5H70.0754V57.57L72.4604 54.5H72.6854V58H72.4304V54.935L70.0454 58H69.8204V54.5ZM9.525 60.5L10.58 61.975L11.64 60.5H11.945L10.74 62.185L12.04 64H11.735L10.58 62.4L9.435 64H9.135L10.425 62.19L9.225 60.5H9.525ZM14.8626 63.015H12.8326L12.3876 64H12.1126L13.7226 60.5H13.9776L15.5876 64H15.3126L14.8626 63.015ZM14.7676 62.8L13.8476 60.78L12.9326 62.8H14.7676ZM17.5696 60.5C18.0096 60.5 18.3546 60.605 18.6046 60.815C18.8546 61.0217 18.9796 61.31 18.9796 61.68C18.9796 62.0467 18.8546 62.335 18.6046 62.545C18.3546 62.7517 18.0096 62.855 17.5696 62.855H16.5696V64H16.3146V60.5H17.5696ZM17.5696 62.625C17.9429 62.625 18.2279 62.5433 18.4246 62.38C18.6212 62.2167 18.7196 61.9833 18.7196 61.68C18.7196 61.3767 18.6212 61.1433 18.4246 60.98C18.2279 60.8133 17.9429 60.73 17.5696 60.73H16.5696V62.625H17.5696ZM22.1221 60.5V64H21.8671V62.5C21.4637 62.6767 21.0754 62.765 20.7021 62.765C20.3054 62.765 19.9954 62.67 19.7721 62.48C19.5521 62.2867 19.4421 62.0167 19.4421 61.67V60.5H19.6971V61.645C19.6971 61.925 19.7871 62.1433 19.9671 62.3C20.1471 62.4567 20.3987 62.535 20.7221 62.535C21.0787 62.535 21.4604 62.445 21.8671 62.265V60.5H22.1221ZM26.03 60.5L24.415 63.49C24.3117 63.6833 24.1883 63.8267 24.045 63.92C23.905 64.0133 23.755 64.06 23.595 64.06C23.4717 64.06 23.3383 64.03 23.195 63.97L23.275 63.76C23.3883 63.8067 23.495 63.83 23.595 63.83C23.8317 63.83 24.0283 63.6983 24.185 63.435L24.305 63.23L22.87 60.5H23.15L24.445 62.99L25.765 60.5H26.03ZM28.6313 62.2C28.8913 62.2433 29.0863 62.3383 29.2163 62.485C29.3496 62.6317 29.4163 62.8267 29.4163 63.07C29.4163 63.37 29.3113 63.6 29.1013 63.76C28.8913 63.92 28.5796 64 28.1663 64H26.6613V60.5H28.0713C28.4379 60.5 28.7229 60.5767 28.9263 60.73C29.1329 60.8833 29.2363 61.1033 29.2363 61.39C29.2363 61.5933 29.1829 61.7633 29.0763 61.9C28.9696 62.0367 28.8213 62.1367 28.6313 62.2ZM26.9163 62.12H28.0663C28.3596 62.12 28.5846 62.06 28.7413 61.94C28.8979 61.82 28.9763 61.6467 28.9763 61.42C28.9763 61.19 28.8979 61.015 28.7413 60.895C28.5846 60.775 28.3596 60.715 28.0663 60.715H26.9163V62.12ZM28.1713 63.785C28.8313 63.785 29.1613 63.5417 29.1613 63.055C29.1613 62.805 29.0779 62.6217 28.9113 62.505C28.7446 62.3883 28.4979 62.33 28.1713 62.33H26.9163V63.785H28.1713ZM32.6263 63.015H30.5963L30.1513 64H29.8763L31.4863 60.5H31.7413L33.3513 64H33.0763L32.6263 63.015ZM32.5313 62.8L31.6113 60.78L30.6963 62.8H32.5313ZM36.9282 60.5V64H36.6732V62.335H34.3332V64H34.0782V60.5H34.3332V62.11H36.6732V60.5H36.9282ZM41.0396 60.5V64H40.7846V62.335H38.4446V64H38.1896V60.5H38.4446V62.11H40.7846V60.5H41.0396ZM44.7009 60.5V64H44.4459V62.9H43.3309C43.2442 62.9 43.1626 62.895 43.0859 62.885L42.3109 64H42.0359L42.8459 62.84C42.5859 62.7667 42.3859 62.635 42.2459 62.445C42.1059 62.2517 42.0359 62.01 42.0359 61.72C42.0359 61.3333 42.1559 61.0333 42.3959 60.82C42.6392 60.6067 42.9676 60.5 43.3809 60.5H44.7009ZM42.2959 61.715C42.2959 62.025 42.3859 62.2633 42.5659 62.43C42.7459 62.5967 43.0092 62.68 43.3559 62.68H44.4459V60.73H43.4009C43.0476 60.73 42.7742 60.815 42.5809 60.985C42.3909 61.1517 42.2959 61.395 42.2959 61.715Z" fill="white"/>
<path d="M18.191 23.9V33H16.891V28.944H11.665V33H10.365V23.9H11.665V27.813H16.891V23.9H18.191ZM27.5188 31.869V33H20.9148V23.9H27.3368V25.031H22.2148V27.826H26.7778V28.931H22.2148V31.869H27.5188ZM35.4218 30.725H30.5858L29.5848 33H28.2458L32.3668 23.9H33.6538L37.7878 33H36.4228L35.4218 30.725ZM34.9668 29.685L33.0038 25.226L31.0408 29.685H34.9668ZM39.1453 23.9H40.4453V31.869H45.3723V33H39.1453V23.9ZM47.8204 25.031H44.7004V23.9H52.2274V25.031H49.1074V33H47.8204V25.031ZM61.4693 23.9V33H60.1693V28.944H54.9433V33H53.6433V23.9H54.9433V27.813H60.1693V23.9H61.4693ZM67.6771 29.854V33H66.3901V29.828L62.7761 23.9H64.1671L67.0791 28.697L70.0041 23.9H71.2911L67.6771 29.854ZM17.021 46.143L15.812 44.934C15.006 45.714 13.992 46.104 12.77 46.104C12.1633 46.104 11.6173 46.0043 11.132 45.805C10.6467 45.6057 10.2653 45.3283 9.988 44.973C9.71933 44.609 9.585 44.1973 9.585 43.738C9.585 43.1833 9.754 42.6937 10.092 42.269C10.4387 41.8357 11.0063 41.3937 11.795 40.943C11.3963 40.5443 11.1147 40.1847 10.95 39.864C10.7853 39.5433 10.703 39.2097 10.703 38.863C10.703 38.2477 10.924 37.7537 11.366 37.381C11.8167 37.0083 12.4147 36.822 13.16 36.822C13.8533 36.822 14.4037 36.991 14.811 37.329C15.2183 37.667 15.422 38.1307 15.422 38.72C15.422 39.1793 15.2703 39.591 14.967 39.955C14.6723 40.319 14.1783 40.7003 13.485 41.099L15.734 43.335C15.994 42.841 16.1803 42.2907 16.293 41.684L17.294 42.009C17.138 42.8063 16.8737 43.4997 16.501 44.089L17.723 45.311L17.021 46.143ZM13.16 37.732C12.7527 37.732 12.432 37.836 12.198 38.044C11.9727 38.2433 11.86 38.5077 11.86 38.837C11.86 39.071 11.9207 39.2963 12.042 39.513C12.172 39.7297 12.419 40.0243 12.783 40.397C13.381 40.059 13.7927 39.7687 14.018 39.526C14.252 39.2833 14.369 39.019 14.369 38.733C14.369 38.4297 14.2607 38.187 14.044 38.005C13.836 37.823 13.5413 37.732 13.16 37.732ZM12.848 45.064C13.7493 45.064 14.4903 44.778 15.071 44.206L12.484 41.632C11.86 41.9787 11.4223 42.3037 11.171 42.607C10.9283 42.9017 10.807 43.2353 10.807 43.608C10.807 44.0413 10.9933 44.3923 11.366 44.661C11.7473 44.9297 12.2413 45.064 12.848 45.064ZM35.6253 36.9L32.5833 46H31.2183L28.7353 38.733L26.2523 46H24.8613L21.8193 36.9H23.1583L25.6153 44.297L28.1763 36.9H29.3723L31.8813 44.336L34.3903 36.9H35.6253ZM43.8196 44.869V46H37.2156V36.9H43.6376V38.031H38.5156V40.826H43.0786V41.931H38.5156V44.869H43.8196ZM51.7226 43.725H46.8866L45.8856 46H44.5466L48.6676 36.9H49.9546L54.0886 46H52.7236L51.7226 43.725ZM51.2676 42.685L49.3046 38.226L47.3416 42.685H51.2676ZM55.4461 36.9H56.7461V44.869H61.6731V46H55.4461V36.9ZM64.1212 38.031H61.0012V36.9H68.5282V38.031H65.4082V46H64.1212V38.031ZM77.7701 36.9V46H76.4701V41.944H71.2441V46H69.9441V36.9H71.2441V40.813H76.4701V36.9H77.7701ZM83.9779 42.854V46H82.6909V42.828L79.0769 36.9H80.4679L83.3799 41.697L86.3049 36.9H87.5919L83.9779 42.854Z" fill="white"/>
</svg>
