<svg width="122" height="71" viewBox="0 0 122 71" fill="none" xmlns="http://www.w3.org/2000/svg">
<rect width="122" height="71" fill="#FFCC00"/>
<path d="M15.24 15.68C15.864 15.784 16.332 16.012 16.644 16.364C16.964 16.716 17.124 17.184 17.124 17.768C17.124 18.488 16.872 19.04 16.368 19.424C15.864 19.808 15.116 20 14.124 20H10.512V11.6H13.896C14.776 11.6 15.46 11.784 15.948 12.152C16.444 12.52 16.692 13.048 16.692 13.736C16.692 14.224 16.564 14.632 16.308 14.96C16.052 15.288 15.696 15.528 15.24 15.68ZM11.124 15.488H13.884C14.588 15.488 15.128 15.344 15.504 15.056C15.88 14.768 16.068 14.352 16.068 13.808C16.068 13.256 15.88 12.836 15.504 12.548C15.128 12.26 14.588 12.116 13.884 12.116H11.124V15.488ZM14.136 19.484C15.72 19.484 16.512 18.9 16.512 17.732C16.512 17.132 16.312 16.692 15.912 16.412C15.512 16.132 14.92 15.992 14.136 15.992H11.124V19.484H14.136ZM25.308 19.448V20H19.512V11.6H25.128V12.152H20.124V15.464H24.6V16.004H20.124V19.448H25.308ZM27.3518 11.6H33.3398V12.14H27.9638V15.164H30.8078C31.7918 15.164 32.5398 15.364 33.0518 15.764C33.5638 16.164 33.8198 16.752 33.8198 17.528C33.8198 18.328 33.5478 18.94 33.0038 19.364C32.4598 19.788 31.6718 20 30.6398 20H27.3518V11.6ZM30.6518 19.484C31.4918 19.484 32.1278 19.324 32.5598 19.004C32.9918 18.676 33.2078 18.192 33.2078 17.552C33.2078 16.296 32.3558 15.668 30.6518 15.668H27.9638V19.484H30.6518ZM35.2557 16.508H38.3397V17.048H35.2557V16.508ZM44.2995 20.06C43.4755 20.06 42.7315 19.876 42.0675 19.508C41.4115 19.14 40.8915 18.632 40.5075 17.984C40.1315 17.336 39.9435 16.608 39.9435 15.8C39.9435 14.992 40.1315 14.264 40.5075 13.616C40.8915 12.968 41.4115 12.46 42.0675 12.092C42.7315 11.724 43.4755 11.54 44.2995 11.54C44.9075 11.54 45.4675 11.64 45.9795 11.84C46.4915 12.032 46.9275 12.32 47.2875 12.704L46.9035 13.1C46.2315 12.436 45.3715 12.104 44.3235 12.104C43.6195 12.104 42.9795 12.264 42.4035 12.584C41.8275 12.904 41.3755 13.348 41.0475 13.916C40.7195 14.476 40.5555 15.104 40.5555 15.8C40.5555 16.496 40.7195 17.128 41.0475 17.696C41.3755 18.256 41.8275 18.696 42.4035 19.016C42.9795 19.336 43.6195 19.496 44.3235 19.496C45.3635 19.496 46.2235 19.16 46.9035 18.488L47.2875 18.884C46.9275 19.268 46.4875 19.56 45.9675 19.76C45.4555 19.96 44.8995 20.06 44.2995 20.06ZM54.3593 17.636H49.4873L48.4193 20H47.7593L51.6233 11.6H52.2353L56.0993 20H55.4393L54.3593 17.636ZM54.1313 17.12L51.9233 12.272L49.7273 17.12H54.1313ZM57.844 11.6H58.456V18.968L64.18 11.6H64.72V20H64.108V12.644L58.384 20H57.844V11.6ZM61.252 10.964C60.692 10.964 60.24 10.836 59.896 10.58C59.56 10.316 59.388 9.956 59.38 9.5H59.872C59.88 9.836 60.008 10.1 60.256 10.292C60.512 10.484 60.844 10.58 61.252 10.58C61.652 10.58 61.976 10.484 62.224 10.292C62.48 10.1 62.612 9.836 62.62 9.5H63.112C63.104 9.956 62.928 10.316 62.584 10.58C62.248 10.836 61.804 10.964 61.252 10.964ZM73.0144 12.152H69.9904V20H69.3784V12.152H66.3544V11.6H73.0144V12.152Z" fill="white"/>
<path d="M12.51 53.5V57H12.255V53.73H9.885V57H9.63V53.5H12.51ZM13.7706 53.5H14.0256V56.57L16.4106 53.5H16.6356V57H16.3806V53.935L13.9956 57H13.7706V53.5ZM19.3966 57.025C19.0533 57.025 18.7433 56.9483 18.4666 56.795C18.1933 56.6417 17.9766 56.43 17.8166 56.16C17.6599 55.89 17.5816 55.5867 17.5816 55.25C17.5816 54.9133 17.6599 54.61 17.8166 54.34C17.9766 54.07 18.1933 53.8583 18.4666 53.705C18.7433 53.5517 19.0533 53.475 19.3966 53.475C19.6499 53.475 19.8833 53.5167 20.0966 53.6C20.3099 53.68 20.4916 53.8 20.6416 53.96L20.4816 54.125C20.2016 53.8483 19.8433 53.71 19.4066 53.71C19.1133 53.71 18.8466 53.7767 18.6066 53.91C18.3666 54.0433 18.1783 54.2283 18.0416 54.465C17.9049 54.6983 17.8366 54.96 17.8366 55.25C17.8366 55.54 17.9049 55.8033 18.0416 56.04C18.1783 56.2733 18.3666 56.4567 18.6066 56.59C18.8466 56.7233 19.1133 56.79 19.4066 56.79C19.8399 56.79 20.1983 56.65 20.4816 56.37L20.6416 56.535C20.4916 56.695 20.3083 56.8167 20.0916 56.9C19.8783 56.9833 19.6466 57.025 19.3966 57.025ZM22.8709 54.78C23.2843 54.78 23.5976 54.8717 23.8109 55.055C24.0276 55.2383 24.1359 55.51 24.1359 55.87C24.1359 56.24 24.0209 56.5217 23.7909 56.715C23.5643 56.905 23.2359 57 22.8059 57H21.4659V53.5H21.7209V54.78H22.8709ZM22.8109 56.785C23.1609 56.785 23.4259 56.7083 23.6059 56.555C23.7859 56.4017 23.8759 56.175 23.8759 55.875C23.8759 55.2883 23.5209 54.995 22.8109 54.995H21.7209V56.785H22.8109ZM28.316 57L28.311 54.005L26.846 56.535H26.721L25.256 54.015V57H25.006V53.5H25.221L26.786 56.205L28.351 53.5H28.561L28.566 57H28.316ZM31.3253 57.025C30.982 57.025 30.672 56.9483 30.3953 56.795C30.1186 56.6383 29.9003 56.425 29.7403 56.155C29.5836 55.885 29.5053 55.5833 29.5053 55.25C29.5053 54.9167 29.5836 54.615 29.7403 54.345C29.9003 54.075 30.1186 53.8633 30.3953 53.71C30.672 53.5533 30.982 53.475 31.3253 53.475C31.6686 53.475 31.9786 53.5517 32.2553 53.705C32.532 53.8583 32.7486 54.07 32.9053 54.34C33.0653 54.61 33.1453 54.9133 33.1453 55.25C33.1453 55.5867 33.0653 55.89 32.9053 56.16C32.7486 56.43 32.532 56.6417 32.2553 56.795C31.9786 56.9483 31.6686 57.025 31.3253 57.025ZM31.3253 56.79C31.6186 56.79 31.8836 56.7233 32.1203 56.59C32.357 56.4567 32.5436 56.2733 32.6803 56.04C32.817 55.8033 32.8853 55.54 32.8853 55.25C32.8853 54.96 32.817 54.6983 32.6803 54.465C32.5436 54.2283 32.357 54.0433 32.1203 53.91C31.8836 53.7767 31.6186 53.71 31.3253 53.71C31.032 53.71 30.7653 53.7767 30.5253 53.91C30.2886 54.0433 30.102 54.2283 29.9653 54.465C29.8286 54.6983 29.7603 54.96 29.7603 55.25C29.7603 55.54 29.8286 55.8033 29.9653 56.04C30.102 56.2733 30.2886 56.4567 30.5253 56.59C30.7653 56.7233 31.032 56.79 31.3253 56.79ZM36.058 55.2C36.318 55.2433 36.513 55.3383 36.643 55.485C36.7763 55.6317 36.843 55.8267 36.843 56.07C36.843 56.37 36.738 56.6 36.528 56.76C36.318 56.92 36.0063 57 35.593 57H34.088V53.5H35.498C35.8647 53.5 36.1497 53.5767 36.353 53.73C36.5597 53.8833 36.663 54.1033 36.663 54.39C36.663 54.5933 36.6097 54.7633 36.503 54.9C36.3963 55.0367 36.248 55.1367 36.058 55.2ZM34.343 55.12H35.493C35.7863 55.12 36.0113 55.06 36.168 54.94C36.3247 54.82 36.403 54.6467 36.403 54.42C36.403 54.19 36.3247 54.015 36.168 53.895C36.0113 53.775 35.7863 53.715 35.493 53.715H34.343V55.12ZM35.598 56.785C36.258 56.785 36.588 56.5417 36.588 56.055C36.588 55.805 36.5047 55.6217 36.338 55.505C36.1713 55.3883 35.9247 55.33 35.598 55.33H34.343V56.785H35.598ZM37.838 53.5H38.093V57H37.838V53.5ZM40.6359 53.5H40.8909V57H40.6359V53.5ZM44.9995 53.5V57H44.7445V55.335H42.4045V57H42.1495V53.5H42.4045V55.11H44.7445V53.5H44.9995ZM47.7609 57.025C47.4175 57.025 47.1075 56.9483 46.8309 56.795C46.5575 56.6417 46.3409 56.43 46.1809 56.16C46.0242 55.89 45.9459 55.5867 45.9459 55.25C45.9459 54.9133 46.0242 54.61 46.1809 54.34C46.3409 54.07 46.5575 53.8583 46.8309 53.705C47.1075 53.5517 47.4175 53.475 47.7609 53.475C48.0142 53.475 48.2475 53.5167 48.4609 53.6C48.6742 53.68 48.8559 53.8 49.0059 53.96L48.8459 54.125C48.5659 53.8483 48.2075 53.71 47.7709 53.71C47.4775 53.71 47.2109 53.7767 46.9709 53.91C46.7309 54.0433 46.5425 54.2283 46.4059 54.465C46.2692 54.6983 46.2009 54.96 46.2009 55.25C46.2009 55.54 46.2692 55.8033 46.4059 56.04C46.5425 56.2733 46.7309 56.4567 46.9709 56.59C47.2109 56.7233 47.4775 56.79 47.7709 56.79C48.2042 56.79 48.5625 56.65 48.8459 56.37L49.0059 56.535C48.8559 56.695 48.6725 56.8167 48.4559 56.9C48.2425 56.9833 48.0109 57.025 47.7609 57.025ZM51.9812 53.73H50.7213V57H50.4663V53.73H49.2063V53.5H51.9812V53.73ZM53.9172 53.5C54.3572 53.5 54.7022 53.605 54.9522 53.815C55.2022 54.0217 55.3272 54.31 55.3272 54.68C55.3272 55.0467 55.2022 55.335 54.9522 55.545C54.7022 55.7517 54.3572 55.855 53.9172 55.855H52.9172V57H52.6622V53.5H53.9172ZM53.9172 55.625C54.2906 55.625 54.5756 55.5433 54.7722 55.38C54.9689 55.2167 55.0672 54.9833 55.0672 54.68C55.0672 54.3767 54.9689 54.1433 54.7722 53.98C54.5756 53.8133 54.2906 53.73 53.9172 53.73H52.9172V55.625H53.9172ZM58.7155 53.5L57.1005 56.49C56.9972 56.6833 56.8739 56.8267 56.7305 56.92C56.5905 57.0133 56.4405 57.06 56.2805 57.06C56.1572 57.06 56.0239 57.03 55.8805 56.97L55.9605 56.76C56.0739 56.8067 56.1805 56.83 56.2805 56.83C56.5172 56.83 56.7139 56.6983 56.8705 56.435L56.9905 56.23L55.5555 53.5H55.8355L57.1305 55.99L58.4505 53.5H58.7155ZM62.6568 57L62.6518 54.005L61.1868 56.535H61.0618L59.5968 54.015V57H59.3468V53.5H59.5618L61.1268 56.205L62.6918 53.5H62.9018L62.9068 57H62.6568ZM66.5811 56.77V57H64.1661V53.5H66.5061V53.73H64.4211V55.11H66.2861V55.335H64.4211V56.77H66.5811ZM70.2827 53.5V57H70.0277V55.335H67.6877V57H67.4327V53.5H67.6877V55.11H70.0277V53.5H70.2827ZM73.7391 53.73H72.4791V57H72.2241V53.73H70.9641V53.5H73.7391V53.73ZM74.42 53.5H74.675V56.57L77.06 53.5H77.285V57H77.03V53.935L74.645 57H74.42V53.5Z" fill="white"/>
<path d="M18.802 37L18.789 30.37L15.5 35.895H14.902L11.613 30.409V37H10.365V27.9H11.431L15.227 34.296L18.971 27.9H20.037L20.05 37H18.802ZM26.889 37.104C25.9703 37.104 25.1427 36.9047 24.406 36.506C23.6693 36.0987 23.0887 35.5397 22.664 34.829C22.248 34.1183 22.04 33.3253 22.04 32.45C22.04 31.5747 22.248 30.7817 22.664 30.071C23.0887 29.3603 23.6693 28.8057 24.406 28.407C25.1427 27.9997 25.9703 27.796 26.889 27.796C27.799 27.796 28.6223 27.9997 29.359 28.407C30.0957 28.8057 30.672 29.3603 31.088 30.071C31.504 30.773 31.712 31.566 31.712 32.45C31.712 33.334 31.504 34.1313 31.088 34.842C30.672 35.544 30.0957 36.0987 29.359 36.506C28.6223 36.9047 27.799 37.104 26.889 37.104ZM26.889 35.947C27.5563 35.947 28.1543 35.7953 28.683 35.492C29.2203 35.1887 29.6407 34.7727 29.944 34.244C30.256 33.7067 30.412 33.1087 30.412 32.45C30.412 31.7913 30.256 31.1977 29.944 30.669C29.6407 30.1317 29.2203 29.7113 28.683 29.408C28.1543 29.1047 27.5563 28.953 26.889 28.953C26.2217 28.953 25.615 29.1047 25.069 29.408C24.5317 29.7113 24.107 30.1317 23.795 30.669C23.4917 31.1977 23.34 31.7913 23.34 32.45C23.34 33.1087 23.4917 33.7067 23.795 34.244C24.107 34.7727 24.5317 35.1887 25.069 35.492C25.615 35.7953 26.2217 35.947 26.889 35.947ZM41.525 27.9V37H40.459L34.999 30.214V37H33.699V27.9H34.765L40.225 34.686V27.9H41.525ZM46.0558 29.031H42.9358V27.9H50.4628V29.031H47.3428V37H46.0558V29.031ZM58.4827 35.869V37H51.8787V27.9H58.3007V29.031H53.1787V31.826H57.7417V32.931H53.1787V35.869H58.4827ZM66.8546 32.398H68.1026V35.947C67.6519 36.3197 67.1276 36.6057 66.5296 36.805C65.9316 37.0043 65.3076 37.104 64.6576 37.104C63.7389 37.104 62.9112 36.9047 62.1746 36.506C61.4379 36.0987 60.8572 35.544 60.4326 34.842C60.0166 34.1313 59.8086 33.334 59.8086 32.45C59.8086 31.566 60.0166 30.7687 60.4326 30.058C60.8572 29.3473 61.4379 28.7927 62.1746 28.394C62.9199 27.9953 63.7562 27.796 64.6836 27.796C65.4116 27.796 66.0702 27.9173 66.6596 28.16C67.2576 28.394 67.7646 28.7407 68.1806 29.2L67.3746 30.006C66.6466 29.304 65.7669 28.953 64.7356 28.953C64.0422 28.953 63.4182 29.1047 62.8636 29.408C62.3176 29.7027 61.8886 30.1187 61.5766 30.656C61.2646 31.1847 61.1086 31.7827 61.1086 32.45C61.1086 33.1087 61.2646 33.7067 61.5766 34.244C61.8886 34.7727 62.3176 35.1887 62.8636 35.492C63.4182 35.7953 64.0379 35.947 64.7226 35.947C65.5372 35.947 66.2479 35.752 66.8546 35.362V32.398ZM76.6756 37L74.7126 34.205C74.4699 34.2223 74.2792 34.231 74.1406 34.231H71.8916V37H70.5916V27.9H74.1406C75.3192 27.9 76.2466 28.1817 76.9226 28.745C77.5986 29.3083 77.9366 30.084 77.9366 31.072C77.9366 31.774 77.7632 32.372 77.4166 32.866C77.0699 33.36 76.5759 33.7197 75.9346 33.945L78.0926 37H76.6756ZM74.1016 33.126C74.9249 33.126 75.5532 32.9483 75.9866 32.593C76.4199 32.2377 76.6366 31.7307 76.6366 31.072C76.6366 30.4133 76.4199 29.9107 75.9866 29.564C75.5532 29.2087 74.9249 29.031 74.1016 29.031H71.8916V33.126H74.1016ZM85.8349 34.725H80.9989L79.9979 37H78.6589L82.7799 27.9H84.0669L88.2009 37H86.8359L85.8349 34.725ZM85.3799 33.685L83.4169 29.226L81.4539 33.685H85.3799ZM93.1074 27.9C94.286 27.9 95.2134 28.1817 95.8894 28.745C96.5654 29.3083 96.9034 30.084 96.9034 31.072C96.9034 32.06 96.5654 32.8357 95.8894 33.399C95.2134 33.9623 94.286 34.244 93.1074 34.244H90.8584V37H89.5584V27.9H93.1074ZM93.0684 33.113C93.8917 33.113 94.52 32.9397 94.9534 32.593C95.3867 32.2377 95.6034 31.7307 95.6034 31.072C95.6034 30.4133 95.3867 29.9107 94.9534 29.564C94.52 29.2087 93.8917 29.031 93.0684 29.031H90.8584V33.113H93.0684ZM102.362 27.9C103.541 27.9 104.468 28.1817 105.144 28.745C105.82 29.3083 106.158 30.084 106.158 31.072C106.158 32.06 105.82 32.8357 105.144 33.399C104.468 33.9623 103.541 34.244 102.362 34.244H100.113V37H98.8132V27.9H102.362ZM102.323 33.113C103.147 33.113 103.775 32.9397 104.208 32.593C104.642 32.2377 104.858 31.7307 104.858 31.072C104.858 30.4133 104.642 29.9107 104.208 29.564C103.775 29.2087 103.147 29.031 102.323 29.031H100.113V33.113H102.323ZM113.409 34.725H108.573L107.572 37H106.233L110.354 27.9H111.641L115.775 37H114.41L113.409 34.725ZM112.954 33.685L110.991 29.226L109.028 33.685H112.954Z" fill="white"/>
</svg>
