<svg width="122" height="71" viewBox="0 0 122 71" fill="none" xmlns="http://www.w3.org/2000/svg">
<rect width="122" height="71" fill="#FFCC00"/>
<path d="M15.24 15.68C15.864 15.784 16.332 16.012 16.644 16.364C16.964 16.716 17.124 17.184 17.124 17.768C17.124 18.488 16.872 19.04 16.368 19.424C15.864 19.808 15.116 20 14.124 20H10.512V11.6H13.896C14.776 11.6 15.46 11.784 15.948 12.152C16.444 12.52 16.692 13.048 16.692 13.736C16.692 14.224 16.564 14.632 16.308 14.96C16.052 15.288 15.696 15.528 15.24 15.68ZM11.124 15.488H13.884C14.588 15.488 15.128 15.344 15.504 15.056C15.88 14.768 16.068 14.352 16.068 13.808C16.068 13.256 15.88 12.836 15.504 12.548C15.128 12.26 14.588 12.116 13.884 12.116H11.124V15.488ZM14.136 19.484C15.72 19.484 16.512 18.9 16.512 17.732C16.512 17.132 16.312 16.692 15.912 16.412C15.512 16.132 14.92 15.992 14.136 15.992H11.124V19.484H14.136ZM25.308 19.448V20H19.512V11.6H25.128V12.152H20.124V15.464H24.6V16.004H20.124V19.448H25.308ZM27.3518 11.6H33.3398V12.14H27.9638V15.164H30.8078C31.7918 15.164 32.5398 15.364 33.0518 15.764C33.5638 16.164 33.8198 16.752 33.8198 17.528C33.8198 18.328 33.5478 18.94 33.0038 19.364C32.4598 19.788 31.6718 20 30.6398 20H27.3518V11.6ZM30.6518 19.484C31.4918 19.484 32.1278 19.324 32.5598 19.004C32.9918 18.676 33.2078 18.192 33.2078 17.552C33.2078 16.296 32.3558 15.668 30.6518 15.668H27.9638V19.484H30.6518ZM35.2557 16.508H38.3397V17.048H35.2557V16.508ZM44.2995 20.06C43.4755 20.06 42.7315 19.876 42.0675 19.508C41.4115 19.14 40.8915 18.632 40.5075 17.984C40.1315 17.336 39.9435 16.608 39.9435 15.8C39.9435 14.992 40.1315 14.264 40.5075 13.616C40.8915 12.968 41.4115 12.46 42.0675 12.092C42.7315 11.724 43.4755 11.54 44.2995 11.54C44.9075 11.54 45.4675 11.64 45.9795 11.84C46.4915 12.032 46.9275 12.32 47.2875 12.704L46.9035 13.1C46.2315 12.436 45.3715 12.104 44.3235 12.104C43.6195 12.104 42.9795 12.264 42.4035 12.584C41.8275 12.904 41.3755 13.348 41.0475 13.916C40.7195 14.476 40.5555 15.104 40.5555 15.8C40.5555 16.496 40.7195 17.128 41.0475 17.696C41.3755 18.256 41.8275 18.696 42.4035 19.016C42.9795 19.336 43.6195 19.496 44.3235 19.496C45.3635 19.496 46.2235 19.16 46.9035 18.488L47.2875 18.884C46.9275 19.268 46.4875 19.56 45.9675 19.76C45.4555 19.96 44.8995 20.06 44.2995 20.06ZM54.3593 17.636H49.4873L48.4193 20H47.7593L51.6233 11.6H52.2353L56.0993 20H55.4393L54.3593 17.636ZM54.1313 17.12L51.9233 12.272L49.7273 17.12H54.1313ZM57.844 11.6H58.456V18.968L64.18 11.6H64.72V20H64.108V12.644L58.384 20H57.844V11.6ZM61.252 10.964C60.692 10.964 60.24 10.836 59.896 10.58C59.56 10.316 59.388 9.956 59.38 9.5H59.872C59.88 9.836 60.008 10.1 60.256 10.292C60.512 10.484 60.844 10.58 61.252 10.58C61.652 10.58 61.976 10.484 62.224 10.292C62.48 10.1 62.612 9.836 62.62 9.5H63.112C63.104 9.956 62.928 10.316 62.584 10.58C62.248 10.836 61.804 10.964 61.252 10.964ZM73.0144 12.152H69.9904V20H69.3784V12.152H66.3544V11.6H73.0144V12.152Z" fill="white"/>
<path d="M10.725 55.34H9.885V57H9.63V53.5H9.885V55.11H10.73L11.985 53.5H12.27L10.93 55.205L12.36 57H12.06L10.725 55.34ZM14.4796 57.025C14.1363 57.025 13.8263 56.9483 13.5496 56.795C13.2729 56.6383 13.0546 56.425 12.8946 56.155C12.7379 55.885 12.6596 55.5833 12.6596 55.25C12.6596 54.9167 12.7379 54.615 12.8946 54.345C13.0546 54.075 13.2729 53.8633 13.5496 53.71C13.8263 53.5533 14.1363 53.475 14.4796 53.475C14.8229 53.475 15.1329 53.5517 15.4096 53.705C15.6863 53.8583 15.9029 54.07 16.0596 54.34C16.2196 54.61 16.2996 54.9133 16.2996 55.25C16.2996 55.5867 16.2196 55.89 16.0596 56.16C15.9029 56.43 15.6863 56.6417 15.4096 56.795C15.1329 56.9483 14.8229 57.025 14.4796 57.025ZM14.4796 56.79C14.7729 56.79 15.0379 56.7233 15.2746 56.59C15.5113 56.4567 15.6979 56.2733 15.8346 56.04C15.9713 55.8033 16.0396 55.54 16.0396 55.25C16.0396 54.96 15.9713 54.6983 15.8346 54.465C15.6979 54.2283 15.5113 54.0433 15.2746 53.91C15.0379 53.7767 14.7729 53.71 14.4796 53.71C14.1863 53.71 13.9196 53.7767 13.6796 53.91C13.4429 54.0433 13.2563 54.2283 13.1196 54.465C12.9829 54.6983 12.9146 54.96 12.9146 55.25C12.9146 55.54 12.9829 55.8033 13.1196 56.04C13.2563 56.2733 13.4429 56.4567 13.6796 56.59C13.9196 56.7233 14.1863 56.79 14.4796 56.79ZM18.7423 57.025C18.399 57.025 18.089 56.9483 17.8123 56.795C17.539 56.6417 17.3223 56.43 17.1623 56.16C17.0056 55.89 16.9273 55.5867 16.9273 55.25C16.9273 54.9133 17.0056 54.61 17.1623 54.34C17.3223 54.07 17.539 53.8583 17.8123 53.705C18.089 53.5517 18.399 53.475 18.7423 53.475C18.9956 53.475 19.229 53.5167 19.4423 53.6C19.6556 53.68 19.8373 53.8 19.9873 53.96L19.8273 54.125C19.5473 53.8483 19.189 53.71 18.7523 53.71C18.459 53.71 18.1923 53.7767 17.9523 53.91C17.7123 54.0433 17.524 54.2283 17.3873 54.465C17.2506 54.6983 17.1823 54.96 17.1823 55.25C17.1823 55.54 17.2506 55.8033 17.3873 56.04C17.524 56.2733 17.7123 56.4567 17.9523 56.59C18.1923 56.7233 18.459 56.79 18.7523 56.79C19.1856 56.79 19.544 56.65 19.8273 56.37L19.9873 56.535C19.8373 56.695 19.654 56.8167 19.4373 56.9C19.224 56.9833 18.9923 57.025 18.7423 57.025ZM24.1216 57L24.1166 54.005L22.6516 56.535H22.5266L21.0616 54.015V57H20.8116V53.5H21.0266L22.5916 56.205L24.1566 53.5H24.3666L24.3716 57H24.1216ZM28.046 56.77V57H25.631V53.5H27.971V53.73H25.886V55.11H27.751V55.335H25.886V56.77H28.046ZM31.0926 53.73H29.8326V57H29.5776V53.73H28.3176V53.5H31.0926V53.73ZM31.7736 53.5H32.0286V56.57L34.4136 53.5H34.6386V57H34.3836V53.935L31.9986 57H31.7736V53.5ZM36.9945 55.34H36.1545V57H35.8995V53.5H36.1545V55.11H36.9995L38.2545 53.5H38.5395L37.1995 55.205L38.6295 57H38.3295L36.9945 55.34ZM41.4348 56.015H39.4048L38.9598 57H38.6848L40.2948 53.5H40.5498L42.1598 57H41.8848L41.4348 56.015ZM41.3398 55.8L40.4198 53.78L39.5048 55.8H41.3398ZM45.231 55.795V57H44.976V55.795L43.566 53.5H43.846L45.111 55.56L46.376 53.5H46.641L45.231 55.795ZM48.6096 57.025C48.2663 57.025 47.9563 56.9483 47.6796 56.795C47.403 56.6383 47.1846 56.425 47.0246 56.155C46.868 55.885 46.7896 55.5833 46.7896 55.25C46.7896 54.9167 46.868 54.615 47.0246 54.345C47.1846 54.075 47.403 53.8633 47.6796 53.71C47.9563 53.5533 48.2663 53.475 48.6096 53.475C48.953 53.475 49.263 53.5517 49.5396 53.705C49.8163 53.8583 50.033 54.07 50.1896 54.34C50.3496 54.61 50.4296 54.9133 50.4296 55.25C50.4296 55.5867 50.3496 55.89 50.1896 56.16C50.033 56.43 49.8163 56.6417 49.5396 56.795C49.263 56.9483 48.953 57.025 48.6096 57.025ZM48.6096 56.79C48.903 56.79 49.168 56.7233 49.4046 56.59C49.6413 56.4567 49.828 56.2733 49.9646 56.04C50.1013 55.8033 50.1696 55.54 50.1696 55.25C50.1696 54.96 50.1013 54.6983 49.9646 54.465C49.828 54.2283 49.6413 54.0433 49.4046 53.91C49.168 53.7767 48.903 53.71 48.6096 53.71C48.3163 53.71 48.0496 53.7767 47.8096 53.91C47.573 54.0433 47.3863 54.2283 47.2496 54.465C47.113 54.6983 47.0446 54.96 47.0446 55.25C47.0446 55.54 47.113 55.8033 47.2496 56.04C47.3863 56.2733 47.573 56.4567 47.8096 56.59C48.0496 56.7233 48.3163 56.79 48.6096 56.79ZM52.6841 57.025C52.2408 57.025 51.8958 56.8967 51.6491 56.64C51.4058 56.3833 51.2841 56.0083 51.2841 55.515V53.5H51.5391V55.505C51.5391 55.935 51.6374 56.2567 51.8341 56.47C52.0308 56.6833 52.3158 56.79 52.6891 56.79C53.0591 56.79 53.3424 56.6833 53.5391 56.47C53.7358 56.2567 53.8341 55.935 53.8341 55.505V53.5H54.0891V55.515C54.0891 56.0083 53.9658 56.3833 53.7191 56.64C53.4724 56.8967 53.1274 57.025 52.6841 57.025ZM58.1289 53.5V57H57.9189L55.5339 53.96V57H55.2789V53.5H55.4939L57.8739 56.54V53.5H58.1289ZM61.8512 55.265H62.0962V56.575C61.9429 56.7217 61.7562 56.8333 61.5362 56.91C61.3195 56.9867 61.0895 57.025 60.8462 57.025C60.4995 57.025 60.1862 56.9483 59.9062 56.795C59.6295 56.6417 59.4112 56.43 59.2512 56.16C59.0945 55.89 59.0162 55.5867 59.0162 55.25C59.0162 54.9133 59.0945 54.61 59.2512 54.34C59.4112 54.07 59.6295 53.8583 59.9062 53.705C60.1862 53.5517 60.5012 53.475 60.8512 53.475C61.1079 53.475 61.3429 53.5167 61.5562 53.6C61.7729 53.68 61.9579 53.7983 62.1112 53.955L61.9512 54.125C61.8045 53.9783 61.6395 53.8733 61.4562 53.81C61.2762 53.7433 61.0762 53.71 60.8562 53.71C60.5562 53.71 60.2845 53.7767 60.0412 53.91C59.8012 54.0433 59.6129 54.2283 59.4762 54.465C59.3395 54.6983 59.2712 54.96 59.2712 55.25C59.2712 55.5367 59.3395 55.7983 59.4762 56.035C59.6162 56.2683 59.8062 56.4533 60.0462 56.59C60.2862 56.7233 60.5562 56.79 60.8562 56.79C61.2562 56.79 61.5879 56.6833 61.8512 56.47V55.265ZM64.5026 53.5H64.7576V56.77H66.7726V57H64.5026V53.5ZM67.4274 53.5H67.6824V57H67.4274V53.5ZM71.653 53.5L70.093 57H69.838L68.278 53.5H68.558L69.973 56.67L71.388 53.5H71.653ZM72.2174 53.5H72.4724V57H72.2174V53.5ZM76.542 53.5V57H76.332L73.947 53.96V57H73.692V53.5H73.907L76.287 56.54V53.5H76.542ZM80.2643 55.265H80.5093V56.575C80.356 56.7217 80.1693 56.8333 79.9493 56.91C79.7326 56.9867 79.5026 57.025 79.2593 57.025C78.9126 57.025 78.5993 56.9483 78.3193 56.795C78.0426 56.6417 77.8243 56.43 77.6643 56.16C77.5076 55.89 77.4293 55.5867 77.4293 55.25C77.4293 54.9133 77.5076 54.61 77.6643 54.34C77.8243 54.07 78.0426 53.8583 78.3193 53.705C78.5993 53.5517 78.9143 53.475 79.2643 53.475C79.521 53.475 79.756 53.5167 79.9693 53.6C80.186 53.68 80.371 53.7983 80.5243 53.955L80.3643 54.125C80.2176 53.9783 80.0526 53.8733 79.8693 53.81C79.6893 53.7433 79.4893 53.71 79.2693 53.71C78.9693 53.71 78.6976 53.7767 78.4543 53.91C78.2143 54.0433 78.026 54.2283 77.8893 54.465C77.7526 54.6983 77.6843 54.96 77.6843 55.25C77.6843 55.5367 77.7526 55.7983 77.8893 56.035C78.0293 56.2683 78.2193 56.4533 78.4593 56.59C78.6993 56.7233 78.9693 56.79 79.2693 56.79C79.6693 56.79 80.001 56.6833 80.2643 56.47V55.265Z" fill="white"/>
<path d="M13.329 32.957L11.665 34.647V37H10.365V27.9H11.665V32.983L16.605 27.9H18.087L14.2 31.995L18.334 37H16.813L13.329 32.957ZM19.7088 27.9H21.0088V37H19.7088V27.9ZM30.3372 35.869V37H23.7332V27.9H30.1552V29.031H25.0332V31.826H29.5962V32.931H25.0332V35.869H30.3372ZM40.2192 27.9L36.2282 37H34.9412L30.9372 27.9H32.3412L35.6172 35.375L38.9192 27.9H40.2192ZM50.8593 34.725H46.0233L45.0223 37H43.6833L47.8043 27.9H49.0913L53.2253 37H51.8603L50.8593 34.725ZM50.4043 33.685L48.4413 29.226L46.4783 33.685H50.4043ZM60.6668 37L58.7038 34.205C58.4611 34.2223 58.2704 34.231 58.1318 34.231H55.8828V37H54.5828V27.9H58.1318C59.3104 27.9 60.2378 28.1817 60.9138 28.745C61.5898 29.3083 61.9278 30.084 61.9278 31.072C61.9278 31.774 61.7544 32.372 61.4078 32.866C61.0611 33.36 60.5671 33.7197 59.9258 33.945L62.0838 37H60.6668ZM58.0928 33.126C58.9161 33.126 59.5444 32.9483 59.9778 32.593C60.4111 32.2377 60.6278 31.7307 60.6278 31.072C60.6278 30.4133 60.4111 29.9107 59.9778 29.564C59.5444 29.2087 58.9161 29.031 58.0928 29.031H55.8828V33.126H58.0928ZM68.1361 37.104C67.2174 37.104 66.3898 36.9047 65.6531 36.506C64.9164 36.0987 64.3358 35.5397 63.9111 34.829C63.4951 34.1183 63.2871 33.3253 63.2871 32.45C63.2871 31.5747 63.4951 30.7817 63.9111 30.071C64.3358 29.3603 64.9164 28.8057 65.6531 28.407C66.3898 27.9997 67.2174 27.796 68.1361 27.796C69.0461 27.796 69.8694 27.9997 70.6061 28.407C71.3428 28.8057 71.9191 29.3603 72.3351 30.071C72.7511 30.773 72.9591 31.566 72.9591 32.45C72.9591 33.334 72.7511 34.1313 72.3351 34.842C71.9191 35.544 71.3428 36.0987 70.6061 36.506C69.8694 36.9047 69.0461 37.104 68.1361 37.104ZM68.1361 35.947C68.8034 35.947 69.4014 35.7953 69.9301 35.492C70.4674 35.1887 70.8878 34.7727 71.1911 34.244C71.5031 33.7067 71.6591 33.1087 71.6591 32.45C71.6591 31.7913 71.5031 31.1977 71.1911 30.669C70.8878 30.1317 70.4674 29.7113 69.9301 29.408C69.4014 29.1047 68.8034 28.953 68.1361 28.953C67.4688 28.953 66.8621 29.1047 66.3161 29.408C65.7788 29.7113 65.3541 30.1317 65.0421 30.669C64.7388 31.1977 64.5871 31.7913 64.5871 32.45C64.5871 33.1087 64.7388 33.7067 65.0421 34.244C65.3541 34.7727 65.7788 35.1887 66.3161 35.492C66.8621 35.7953 67.4688 35.947 68.1361 35.947ZM83.3831 37L83.3701 30.37L80.0811 35.895H79.4831L76.1941 30.409V37H74.9461V27.9H76.0121L79.8081 34.296L83.5521 27.9H84.6181L84.6311 37H83.3831ZM93.1601 34.725H88.3241L87.3231 37H85.9841L90.1051 27.9H91.3921L95.5261 37H94.1611L93.1601 34.725ZM92.7051 33.685L90.7421 29.226L88.7791 33.685H92.7051Z" fill="white"/>
</svg>
