<svg width="122" height="71" viewBox="0 0 122 71" fill="none" xmlns="http://www.w3.org/2000/svg">
<rect width="122" height="71" fill="#FFCC00"/>
<path d="M15.24 15.68C15.864 15.784 16.332 16.012 16.644 16.364C16.964 16.716 17.124 17.184 17.124 17.768C17.124 18.488 16.872 19.04 16.368 19.424C15.864 19.808 15.116 20 14.124 20H10.512V11.6H13.896C14.776 11.6 15.46 11.784 15.948 12.152C16.444 12.52 16.692 13.048 16.692 13.736C16.692 14.224 16.564 14.632 16.308 14.96C16.052 15.288 15.696 15.528 15.24 15.68ZM11.124 15.488H13.884C14.588 15.488 15.128 15.344 15.504 15.056C15.88 14.768 16.068 14.352 16.068 13.808C16.068 13.256 15.88 12.836 15.504 12.548C15.128 12.26 14.588 12.116 13.884 12.116H11.124V15.488ZM14.136 19.484C15.72 19.484 16.512 18.9 16.512 17.732C16.512 17.132 16.312 16.692 15.912 16.412C15.512 16.132 14.92 15.992 14.136 15.992H11.124V19.484H14.136ZM25.308 19.448V20H19.512V11.6H25.128V12.152H20.124V15.464H24.6V16.004H20.124V19.448H25.308ZM27.3518 11.6H33.3398V12.14H27.9638V15.164H30.8078C31.7918 15.164 32.5398 15.364 33.0518 15.764C33.5638 16.164 33.8198 16.752 33.8198 17.528C33.8198 18.328 33.5478 18.94 33.0038 19.364C32.4598 19.788 31.6718 20 30.6398 20H27.3518V11.6ZM30.6518 19.484C31.4918 19.484 32.1278 19.324 32.5598 19.004C32.9918 18.676 33.2078 18.192 33.2078 17.552C33.2078 16.296 32.3558 15.668 30.6518 15.668H27.9638V19.484H30.6518ZM35.2557 16.508H38.3397V17.048H35.2557V16.508ZM44.2995 20.06C43.4755 20.06 42.7315 19.876 42.0675 19.508C41.4115 19.14 40.8915 18.632 40.5075 17.984C40.1315 17.336 39.9435 16.608 39.9435 15.8C39.9435 14.992 40.1315 14.264 40.5075 13.616C40.8915 12.968 41.4115 12.46 42.0675 12.092C42.7315 11.724 43.4755 11.54 44.2995 11.54C44.9075 11.54 45.4675 11.64 45.9795 11.84C46.4915 12.032 46.9275 12.32 47.2875 12.704L46.9035 13.1C46.2315 12.436 45.3715 12.104 44.3235 12.104C43.6195 12.104 42.9795 12.264 42.4035 12.584C41.8275 12.904 41.3755 13.348 41.0475 13.916C40.7195 14.476 40.5555 15.104 40.5555 15.8C40.5555 16.496 40.7195 17.128 41.0475 17.696C41.3755 18.256 41.8275 18.696 42.4035 19.016C42.9795 19.336 43.6195 19.496 44.3235 19.496C45.3635 19.496 46.2235 19.16 46.9035 18.488L47.2875 18.884C46.9275 19.268 46.4875 19.56 45.9675 19.76C45.4555 19.96 44.8995 20.06 44.2995 20.06ZM54.3593 17.636H49.4873L48.4193 20H47.7593L51.6233 11.6H52.2353L56.0993 20H55.4393L54.3593 17.636ZM54.1313 17.12L51.9233 12.272L49.7273 17.12H54.1313ZM57.844 11.6H58.456V18.968L64.18 11.6H64.72V20H64.108V12.644L58.384 20H57.844V11.6ZM61.252 10.964C60.692 10.964 60.24 10.836 59.896 10.58C59.56 10.316 59.388 9.956 59.38 9.5H59.872C59.88 9.836 60.008 10.1 60.256 10.292C60.512 10.484 60.844 10.58 61.252 10.58C61.652 10.58 61.976 10.484 62.224 10.292C62.48 10.1 62.612 9.836 62.62 9.5H63.112C63.104 9.956 62.928 10.316 62.584 10.58C62.248 10.836 61.804 10.964 61.252 10.964ZM73.0144 12.152H69.9904V20H69.3784V12.152H66.3544V11.6H73.0144V12.152Z" fill="white"/>
<path d="M11.13 54.025C10.7867 54.025 10.4767 53.9483 10.2 53.795C9.92667 53.6417 9.71 53.43 9.55 53.16C9.39333 52.89 9.315 52.5867 9.315 52.25C9.315 51.9133 9.39333 51.61 9.55 51.34C9.71 51.07 9.92667 50.8583 10.2 50.705C10.4767 50.5517 10.7867 50.475 11.13 50.475C11.3833 50.475 11.6167 50.5167 11.83 50.6C12.0433 50.68 12.225 50.8 12.375 50.96L12.215 51.125C11.935 50.8483 11.5767 50.71 11.14 50.71C10.8467 50.71 10.58 50.7767 10.34 50.91C10.1 51.0433 9.91167 51.2283 9.775 51.465C9.63833 51.6983 9.57 51.96 9.57 52.25C9.57 52.54 9.63833 52.8033 9.775 53.04C9.91167 53.2733 10.1 53.4567 10.34 53.59C10.58 53.7233 10.8467 53.79 11.14 53.79C11.5733 53.79 11.9317 53.65 12.215 53.37L12.375 53.535C12.225 53.695 12.0417 53.8167 11.825 53.9C11.6117 53.9833 11.38 54.025 11.13 54.025ZM15.7566 50.5L14.1416 53.49C14.0382 53.6833 13.9149 53.8267 13.7716 53.92C13.6316 54.0133 13.4816 54.06 13.3216 54.06C13.1982 54.06 13.0649 54.03 12.9216 53.97L13.0016 53.76C13.1149 53.8067 13.2216 53.83 13.3216 53.83C13.5582 53.83 13.7549 53.6983 13.9116 53.435L14.0316 53.23L12.5966 50.5H12.8766L14.1716 52.99L15.4916 50.5H15.7566ZM18.8311 50.5V54H18.5761V52.5C18.1727 52.6767 17.7844 52.765 17.4111 52.765C17.0144 52.765 16.7044 52.67 16.4811 52.48C16.2611 52.2867 16.1511 52.0167 16.1511 51.67V50.5H16.4061V51.645C16.4061 51.925 16.4961 52.1433 16.6761 52.3C16.8561 52.4567 17.1077 52.535 17.4311 52.535C17.7877 52.535 18.1694 52.445 18.5761 52.265V50.5H18.8311ZM22.304 53.015H20.274L19.829 54H19.554L21.164 50.5H21.419L23.029 54H22.754L22.304 53.015ZM22.209 52.8L21.289 50.78L20.374 52.8H22.209ZM25.2071 54.025C24.8638 54.025 24.5538 53.9483 24.2771 53.795C24.0038 53.6417 23.7871 53.43 23.6271 53.16C23.4705 52.89 23.3921 52.5867 23.3921 52.25C23.3921 51.9133 23.4705 51.61 23.6271 51.34C23.7871 51.07 24.0038 50.8583 24.2771 50.705C24.5538 50.5517 24.8638 50.475 25.2071 50.475C25.4605 50.475 25.6938 50.5167 25.9071 50.6C26.1205 50.68 26.3021 50.8 26.4521 50.96L26.2921 51.125C26.0121 50.8483 25.6538 50.71 25.2171 50.71C24.9238 50.71 24.6571 50.7767 24.4171 50.91C24.1771 51.0433 23.9888 51.2283 23.8521 51.465C23.7155 51.6983 23.6471 51.96 23.6471 52.25C23.6471 52.54 23.7155 52.8033 23.8521 53.04C23.9888 53.2733 24.1771 53.4567 24.4171 53.59C24.6571 53.7233 24.9238 53.79 25.2171 53.79C25.6505 53.79 26.0088 53.65 26.2921 53.37L26.4521 53.535C26.3021 53.695 26.1188 53.8167 25.9021 53.9C25.6888 53.9833 25.4571 54.025 25.2071 54.025ZM30.1265 50.5V54H29.8715V52.335H27.5315V54H27.2765V50.5H27.5315V52.11H29.8715V50.5H30.1265ZM32.8878 54.025C32.5445 54.025 32.2345 53.9483 31.9578 53.795C31.6811 53.6383 31.4628 53.425 31.3028 53.155C31.1461 52.885 31.0678 52.5833 31.0678 52.25C31.0678 51.9167 31.1461 51.615 31.3028 51.345C31.4628 51.075 31.6811 50.8633 31.9578 50.71C32.2345 50.5533 32.5445 50.475 32.8878 50.475C33.2311 50.475 33.5411 50.5517 33.8178 50.705C34.0945 50.8583 34.3111 51.07 34.4678 51.34C34.6278 51.61 34.7078 51.9133 34.7078 52.25C34.7078 52.5867 34.6278 52.89 34.4678 53.16C34.3111 53.43 34.0945 53.6417 33.8178 53.795C33.5411 53.9483 33.2311 54.025 32.8878 54.025ZM32.8878 53.79C33.1811 53.79 33.4461 53.7233 33.6828 53.59C33.9195 53.4567 34.1061 53.2733 34.2428 53.04C34.3795 52.8033 34.4478 52.54 34.4478 52.25C34.4478 51.96 34.3795 51.6983 34.2428 51.465C34.1061 51.2283 33.9195 51.0433 33.6828 50.91C33.4461 50.7767 33.1811 50.71 32.8878 50.71C32.5945 50.71 32.3278 50.7767 32.0878 50.91C31.8511 51.0433 31.6645 51.2283 31.5278 51.465C31.3911 51.6983 31.3228 51.96 31.3228 52.25C31.3228 52.54 31.3911 52.8033 31.5278 53.04C31.6645 53.2733 31.8511 53.4567 32.0878 53.59C32.3278 53.7233 32.5945 53.79 32.8878 53.79ZM35.6305 50.5H35.8855V54H35.6305V50.5ZM35.3305 50.08C35.2805 50.08 35.2372 50.0633 35.2005 50.03C35.1672 49.9933 35.1505 49.95 35.1505 49.9C35.1505 49.8467 35.1672 49.8033 35.2005 49.77C35.2372 49.7367 35.2805 49.72 35.3305 49.72C35.3805 49.72 35.4222 49.7383 35.4555 49.775C35.4922 49.8083 35.5105 49.85 35.5105 49.9C35.5105 49.95 35.4922 49.9933 35.4555 50.03C35.4188 50.0633 35.3772 50.08 35.3305 50.08ZM36.1905 50.08C36.1438 50.08 36.1022 50.0633 36.0655 50.03C36.0288 49.9933 36.0105 49.95 36.0105 49.9C36.0105 49.85 36.0272 49.8083 36.0605 49.775C36.0972 49.7383 36.1405 49.72 36.1905 49.72C36.2405 49.72 36.2822 49.7367 36.3155 49.77C36.3522 49.8033 36.3705 49.8467 36.3705 49.9C36.3705 49.95 36.3522 49.9933 36.3155 50.03C36.2822 50.0633 36.2405 50.08 36.1905 50.08ZM41.5243 53.77V54.8H41.2793V54H38.0793L38.0743 54.8H37.8293L37.8343 53.77H38.0243C38.2543 53.75 38.4143 53.5567 38.5043 53.19C38.5976 52.8233 38.6543 52.31 38.6743 51.65L38.7093 50.5H40.9843V53.77H41.5243ZM38.9093 51.67C38.8893 52.2367 38.8443 52.7 38.7743 53.06C38.7076 53.42 38.5926 53.6567 38.4293 53.77H40.7293V50.73H38.9393L38.9093 51.67ZM43.84 54.025C43.4966 54.025 43.1866 53.9483 42.91 53.795C42.6333 53.6383 42.415 53.425 42.255 53.155C42.0983 52.885 42.02 52.5833 42.02 52.25C42.02 51.9167 42.0983 51.615 42.255 51.345C42.415 51.075 42.6333 50.8633 42.91 50.71C43.1866 50.5533 43.4966 50.475 43.84 50.475C44.1833 50.475 44.4933 50.5517 44.77 50.705C45.0466 50.8583 45.2633 51.07 45.42 51.34C45.58 51.61 45.66 51.9133 45.66 52.25C45.66 52.5867 45.58 52.89 45.42 53.16C45.2633 53.43 45.0466 53.6417 44.77 53.795C44.4933 53.9483 44.1833 54.025 43.84 54.025ZM43.84 53.79C44.1333 53.79 44.3983 53.7233 44.635 53.59C44.8716 53.4567 45.0583 53.2733 45.195 53.04C45.3316 52.8033 45.4 52.54 45.4 52.25C45.4 51.96 45.3316 51.6983 45.195 51.465C45.0583 51.2283 44.8716 51.0433 44.635 50.91C44.3983 50.7767 44.1333 50.71 43.84 50.71C43.5466 50.71 43.28 50.7767 43.04 50.91C42.8033 51.0433 42.6166 51.2283 42.48 51.465C42.3433 51.6983 42.275 51.96 42.275 52.25C42.275 52.54 42.3433 52.8033 42.48 53.04C42.6166 53.2733 42.8033 53.4567 43.04 53.59C43.28 53.7233 43.5466 53.79 43.84 53.79ZM47.8577 50.5C48.2977 50.5 48.6427 50.605 48.8927 50.815C49.1427 51.0217 49.2677 51.31 49.2677 51.68C49.2677 52.0467 49.1427 52.335 48.8927 52.545C48.6427 52.7517 48.2977 52.855 47.8577 52.855H46.8577V54H46.6027V50.5H47.8577ZM47.8577 52.625C48.231 52.625 48.516 52.5433 48.7127 52.38C48.9093 52.2167 49.0077 51.9833 49.0077 51.68C49.0077 51.3767 48.9093 51.1433 48.7127 50.98C48.516 50.8133 48.231 50.73 47.8577 50.73H46.8577V52.625H47.8577ZM51.6329 54.025C51.2896 54.025 50.9796 53.9483 50.7029 53.795C50.4263 53.6383 50.2079 53.425 50.0479 53.155C49.8913 52.885 49.8129 52.5833 49.8129 52.25C49.8129 51.9167 49.8913 51.615 50.0479 51.345C50.2079 51.075 50.4263 50.8633 50.7029 50.71C50.9796 50.5533 51.2896 50.475 51.6329 50.475C51.9763 50.475 52.2863 50.5517 52.5629 50.705C52.8396 50.8583 53.0563 51.07 53.2129 51.34C53.3729 51.61 53.4529 51.9133 53.4529 52.25C53.4529 52.5867 53.3729 52.89 53.2129 53.16C53.0563 53.43 52.8396 53.6417 52.5629 53.795C52.2863 53.9483 51.9763 54.025 51.6329 54.025ZM51.6329 53.79C51.9263 53.79 52.1913 53.7233 52.4279 53.59C52.6646 53.4567 52.8513 53.2733 52.9879 53.04C53.1246 52.8033 53.1929 52.54 53.1929 52.25C53.1929 51.96 53.1246 51.6983 52.9879 51.465C52.8513 51.2283 52.6646 51.0433 52.4279 50.91C52.1913 50.7767 51.9263 50.71 51.6329 50.71C51.3396 50.71 51.0729 50.7767 50.8329 50.91C50.5963 51.0433 50.4096 51.2283 50.2729 51.465C50.1363 51.6983 50.0679 51.96 50.0679 52.25C50.0679 52.54 50.1363 52.8033 50.2729 53.04C50.4096 53.2733 50.5963 53.4567 50.8329 53.59C51.0729 53.7233 51.3396 53.79 51.6329 53.79ZM57.0237 52.34H56.2537V54H56.0037V52.34H55.2337L54.0787 54H53.7737L55.0237 52.2L53.8687 50.5H54.1587L55.2287 52.11H56.0037V50.5H56.2537V52.11H57.0237L58.0987 50.5H58.3837L57.2337 52.2L58.4837 54H58.1787L57.0237 52.34ZM61.9771 50.5V54H61.7221V52.335H59.3821V54H59.1271V50.5H59.3821V52.11H61.7221V50.5H61.9771ZM64.6434 51.78C65.0567 51.78 65.3701 51.8717 65.5834 52.055C65.8001 52.2383 65.9084 52.51 65.9084 52.87C65.9084 53.24 65.7934 53.5217 65.5634 53.715C65.3367 53.905 65.0084 54 64.5784 54H63.2384V50.5H63.4934V51.78H64.6434ZM64.5834 53.785C64.9334 53.785 65.1984 53.7083 65.3784 53.555C65.5584 53.4017 65.6484 53.175 65.6484 52.875C65.6484 52.2883 65.2934 51.995 64.5834 51.995H63.4934V53.785H64.5834ZM68.2784 54.025C67.9351 54.025 67.6251 53.9483 67.3484 53.795C67.0718 53.6383 66.8534 53.425 66.6934 53.155C66.5368 52.885 66.4584 52.5833 66.4584 52.25C66.4584 51.9167 66.5368 51.615 66.6934 51.345C66.8534 51.075 67.0718 50.8633 67.3484 50.71C67.6251 50.5533 67.9351 50.475 68.2784 50.475C68.6218 50.475 68.9318 50.5517 69.2084 50.705C69.4851 50.8583 69.7018 51.07 69.8584 51.34C70.0184 51.61 70.0984 51.9133 70.0984 52.25C70.0984 52.5867 70.0184 52.89 69.8584 53.16C69.7018 53.43 69.4851 53.6417 69.2084 53.795C68.9318 53.9483 68.6218 54.025 68.2784 54.025ZM68.2784 53.79C68.5718 53.79 68.8368 53.7233 69.0734 53.59C69.3101 53.4567 69.4968 53.2733 69.6334 53.04C69.7701 52.8033 69.8384 52.54 69.8384 52.25C69.8384 51.96 69.7701 51.6983 69.6334 51.465C69.4968 51.2283 69.3101 51.0433 69.0734 50.91C68.8368 50.7767 68.5718 50.71 68.2784 50.71C67.9851 50.71 67.7184 50.7767 67.4784 50.91C67.2418 51.0433 67.0551 51.2283 66.9184 51.465C66.7818 51.6983 66.7134 51.96 66.7134 52.25C66.7134 52.54 66.7818 52.8033 66.9184 53.04C67.0551 53.2733 67.2418 53.4567 67.4784 53.59C67.7184 53.7233 67.9851 53.79 68.2784 53.79ZM70.7651 52.545H72.0501V52.77H70.7651V52.545ZM72.9894 50.5H75.4844V50.725H73.2444V51.985H74.4294C74.8394 51.985 75.151 52.0683 75.3644 52.235C75.5777 52.4017 75.6844 52.6467 75.6844 52.97C75.6844 53.3033 75.571 53.5583 75.3444 53.735C75.1177 53.9117 74.7894 54 74.3594 54H72.9894V50.5ZM74.3644 53.785C74.7144 53.785 74.9794 53.7183 75.1594 53.585C75.3394 53.4483 75.4294 53.2467 75.4294 52.98C75.4294 52.4567 75.0744 52.195 74.3644 52.195H73.2444V53.785H74.3644ZM79.1452 50.5L77.5302 53.49C77.4269 53.6833 77.3036 53.8267 77.1602 53.92C77.0202 54.0133 76.8702 54.06 76.7102 54.06C76.5869 54.06 76.4536 54.03 76.3102 53.97L76.3902 53.76C76.5036 53.8067 76.6102 53.83 76.7102 53.83C76.9469 53.83 77.1436 53.6983 77.3002 53.435L77.4202 53.23L75.9852 50.5H76.2652L77.5602 52.99L78.8802 50.5H79.1452ZM82.8573 53.77V54.8H82.6123V54H79.4123L79.4073 54.8H79.1623L79.1673 53.77H79.3573C79.5873 53.75 79.7473 53.5567 79.8373 53.19C79.9306 52.8233 79.9873 52.31 80.0073 51.65L80.0423 50.5H82.3173V53.77H82.8573ZM80.2423 51.67C80.2223 52.2367 80.1773 52.7 80.1073 53.06C80.0406 53.42 79.9256 53.6567 79.7623 53.77H82.0623V50.73H80.2723L80.2423 51.67ZM83.673 50.5H83.928V54H83.673V50.5ZM87.1566 52.2C87.4166 52.2433 87.6116 52.3383 87.7416 52.485C87.875 52.6317 87.9416 52.8267 87.9416 53.07C87.9416 53.37 87.8366 53.6 87.6266 53.76C87.4166 53.92 87.105 54 86.6916 54H85.1866V50.5H86.5966C86.9633 50.5 87.2483 50.5767 87.4516 50.73C87.6583 50.8833 87.7616 51.1033 87.7616 51.39C87.7616 51.5933 87.7083 51.7633 87.6016 51.9C87.495 52.0367 87.3466 52.1367 87.1566 52.2ZM85.4416 52.12H86.5916C86.885 52.12 87.11 52.06 87.2666 51.94C87.4233 51.82 87.5016 51.6467 87.5016 51.42C87.5016 51.19 87.4233 51.015 87.2666 50.895C87.11 50.775 86.885 50.715 86.5916 50.715H85.4416V52.12ZM86.6966 53.785C87.3566 53.785 87.6866 53.5417 87.6866 53.055C87.6866 52.805 87.6033 52.6217 87.4366 52.505C87.27 52.3883 87.0233 52.33 86.6966 52.33H85.4416V53.785H86.6966ZM91.3516 53.77V54H88.9366V50.5H91.2766V50.73H89.1916V52.11H91.0566V52.335H89.1916V53.77H91.3516ZM94.8482 50.5V54H94.5932V50.73H92.7832L92.7382 52.015C92.7182 52.495 92.6766 52.8817 92.6132 53.175C92.5532 53.465 92.4632 53.68 92.3432 53.82C92.2232 53.96 92.0649 54.03 91.8682 54.03C91.7782 54.03 91.6949 54.02 91.6182 54L91.6482 53.765C91.7049 53.7783 91.7599 53.785 91.8132 53.785C91.9666 53.785 92.0899 53.7267 92.1832 53.61C92.2799 53.49 92.3532 53.3017 92.4032 53.045C92.4532 52.7883 92.4866 52.4467 92.5032 52.02L92.5532 50.5H94.8482ZM97.5145 51.78C97.9278 51.78 98.2412 51.8717 98.4545 52.055C98.6712 52.2383 98.7795 52.51 98.7795 52.87C98.7795 53.24 98.6645 53.5217 98.4345 53.715C98.2078 53.905 97.8795 54 97.4495 54H96.1095V50.5H96.3645V51.78H97.5145ZM97.4545 53.785C97.8045 53.785 98.0695 53.7083 98.2495 53.555C98.4295 53.4017 98.5195 53.175 98.5195 52.875C98.5195 52.2883 98.1645 51.995 97.4545 51.995H96.3645V53.785H97.4545ZM102.5 50.5V54H102.245V52.335H99.9045V54H99.6495V50.5H99.9045V52.11H102.245V50.5H102.5ZM105.976 53.015H103.946L103.501 54H103.226L104.836 50.5H105.091L106.701 54H106.426L105.976 53.015ZM105.881 52.8L104.961 50.78L104.046 52.8H105.881ZM11.825 56.73H10.565V60H10.31V56.73H9.05V56.5H11.825V56.73ZM14.5452 59.015H12.5152L12.0702 60H11.7952L13.4052 56.5H13.6602L15.2702 60H14.9952L14.5452 59.015ZM14.4502 58.8L13.5302 56.78L12.6152 58.8H14.4502ZM18.3764 58.34H17.5364V60H17.2814V56.5H17.5364V58.11H18.3814L19.6364 56.5H19.9214L18.5814 58.205L20.0114 60H19.7114L18.3764 58.34ZM22.8167 59.015H20.7867L20.3417 60H20.0667L21.6767 56.5H21.9317L23.5417 60H23.2667L22.8167 59.015ZM22.7217 58.8L21.8017 56.78L20.8867 58.8H22.7217ZM25.5237 56.5C25.9637 56.5 26.3087 56.605 26.5587 56.815C26.8087 57.0217 26.9337 57.31 26.9337 57.68C26.9337 58.0467 26.8087 58.335 26.5587 58.545C26.3087 58.7517 25.9637 58.855 25.5237 58.855H24.5237V60H24.2687V56.5H25.5237ZM25.5237 58.625C25.897 58.625 26.182 58.5433 26.3787 58.38C26.5753 58.2167 26.6737 57.9833 26.6737 57.68C26.6737 57.3767 26.5753 57.1433 26.3787 56.98C26.182 56.8133 25.897 56.73 25.5237 56.73H24.5237V58.625H25.5237ZM27.7178 56.27C27.7778 56.27 27.8278 56.2917 27.8678 56.335C27.9078 56.375 27.9278 56.4233 27.9278 56.48C27.9278 56.5133 27.9228 56.5483 27.9128 56.585C27.9061 56.6217 27.8961 56.6633 27.8828 56.71L27.6878 57.39H27.5078L27.6728 56.685C27.6228 56.6717 27.5828 56.6483 27.5528 56.615C27.5228 56.5783 27.5078 56.5333 27.5078 56.48C27.5078 56.42 27.5278 56.37 27.5678 56.33C27.6078 56.29 27.6578 56.27 27.7178 56.27ZM30.2588 60.025C29.9354 60.025 29.6421 59.9483 29.3788 59.795C29.1188 59.6417 28.9138 59.43 28.7638 59.16C28.6138 58.8867 28.5388 58.5833 28.5388 58.25C28.5388 57.9167 28.6138 57.615 28.7638 57.345C28.9138 57.0717 29.1188 56.8583 29.3788 56.705C29.6421 56.5517 29.9354 56.475 30.2588 56.475C30.5221 56.475 30.7638 56.5167 30.9838 56.6C31.2071 56.68 31.3954 56.8 31.5488 56.96L31.3888 57.13C31.1054 56.85 30.7321 56.71 30.2688 56.71C30.0021 56.71 29.7588 56.7733 29.5387 56.9C29.3188 57.0267 29.1421 57.2033 29.0088 57.43C28.8788 57.6533 28.8088 57.9033 28.7988 58.18H30.6938V58.395H28.8038C28.8238 58.6617 28.9004 58.9017 29.0338 59.115C29.1671 59.325 29.3404 59.49 29.5538 59.61C29.7704 59.73 30.0088 59.79 30.2688 59.79C30.7254 59.79 31.0988 59.65 31.3888 59.37L31.5488 59.535C31.3954 59.695 31.2071 59.8167 30.9838 59.9C30.7638 59.9833 30.5221 60.025 30.2588 60.025ZM33.634 56.5C34.074 56.5 34.419 56.605 34.669 56.815C34.919 57.0217 35.044 57.31 35.044 57.68C35.044 58.0467 34.919 58.335 34.669 58.545C34.419 58.7517 34.074 58.855 33.634 58.855H32.634V60H32.379V56.5H33.634ZM33.634 58.625C34.0074 58.625 34.2924 58.5433 34.489 58.38C34.6857 58.2167 34.784 57.9833 34.784 57.68C34.784 57.3767 34.6857 57.1433 34.489 56.98C34.2924 56.8133 34.0074 56.73 33.634 56.73H32.634V58.625H33.634ZM38.7105 56.5V60H38.4555V58.335H36.1155V60H35.8605V56.5H36.1155V58.11H38.4555V56.5H38.7105ZM42.1868 59.015H40.1568L39.7118 60H39.4368L41.0468 56.5H41.3018L42.9118 60H42.6368L42.1868 59.015ZM42.0918 58.8L41.1718 56.78L40.2568 58.8H42.0918ZM47.118 56.73H45.858V60H45.603V56.73H44.343V56.5H47.118V56.73ZM50.2139 59.77V60H47.7989V56.5H50.1389V56.73H48.0539V58.11H49.9189V58.335H48.0539V59.77H50.2139ZM50.9166 56.5L51.9716 57.975L53.0316 56.5H53.3366L52.1316 58.185L53.4316 60H53.1266L51.9716 58.4L50.8266 60H50.5266L51.8166 58.19L50.6166 56.5H50.9166ZM56.9234 56.5V60H56.6684V58.335H54.3284V60H54.0734V56.5H54.3284V58.11H56.6684V56.5H56.9234ZM58.1847 56.5H58.4397V60H58.1847V56.5ZM60.7934 58.34H59.9534V60H59.6984V56.5H59.9534V58.11H60.7984L62.0534 56.5H62.3384L60.9984 58.205L62.4284 60H62.1284L60.7934 58.34ZM65.2337 59.015H63.2037L62.7587 60H62.4837L64.0937 56.5H64.3487L65.9587 60H65.6837L65.2337 59.015ZM65.1387 58.8L64.2187 56.78L63.3037 58.8H65.1387Z" fill="white"/>
<path d="M10.89 28.4H16.2C17.532 28.4 18.714 28.664 19.746 29.192C20.778 29.72 21.576 30.464 22.14 31.424C22.716 32.372 23.004 33.464 23.004 34.7C23.004 35.936 22.716 37.034 22.14 37.994C21.576 38.942 20.778 39.68 19.746 40.208C18.714 40.736 17.532 41 16.2 41H10.89V28.4ZM16.092 39.434C17.112 39.434 18.006 39.236 18.774 38.84C19.554 38.444 20.154 37.892 20.574 37.184C20.994 36.464 21.204 35.636 21.204 34.7C21.204 33.764 20.994 32.942 20.574 32.234C20.154 31.514 19.554 30.956 18.774 30.56C18.006 30.164 17.112 29.966 16.092 29.966H12.69V39.434H16.092ZM31.4491 41.144C30.1771 41.144 29.0311 40.868 28.0111 40.316C26.9911 39.752 26.1871 38.978 25.5991 37.994C25.0231 37.01 24.7351 35.912 24.7351 34.7C24.7351 33.488 25.0231 32.39 25.5991 31.406C26.1871 30.422 26.9911 29.654 28.0111 29.102C29.0311 28.538 30.1771 28.256 31.4491 28.256C32.7091 28.256 33.8491 28.538 34.8691 29.102C35.8891 29.654 36.6871 30.422 37.2631 31.406C37.8391 32.378 38.1271 33.476 38.1271 34.7C38.1271 35.924 37.8391 37.028 37.2631 38.012C36.6871 38.984 35.8891 39.752 34.8691 40.316C33.8491 40.868 32.7091 41.144 31.4491 41.144ZM31.4491 39.542C32.3731 39.542 33.2011 39.332 33.9331 38.912C34.6771 38.492 35.2591 37.916 35.6791 37.184C36.1111 36.44 36.3271 35.612 36.3271 34.7C36.3271 33.788 36.1111 32.966 35.6791 32.234C35.2591 31.49 34.6771 30.908 33.9331 30.488C33.2011 30.068 32.3731 29.858 31.4491 29.858C30.5251 29.858 29.6851 30.068 28.9291 30.488C28.1851 30.908 27.5971 31.49 27.1651 32.234C26.7451 32.966 26.5351 33.788 26.5351 34.7C26.5351 35.612 26.7451 36.44 27.1651 37.184C27.5971 37.916 28.1851 38.492 28.9291 38.912C29.6851 39.332 30.5251 39.542 31.4491 39.542ZM46.5663 41.144C45.2943 41.144 44.1483 40.868 43.1283 40.316C42.1083 39.752 41.3043 38.978 40.7163 37.994C40.1403 37.01 39.8523 35.912 39.8523 34.7C39.8523 33.488 40.1403 32.39 40.7163 31.406C41.3043 30.422 42.1083 29.654 43.1283 29.102C44.1483 28.538 45.2943 28.256 46.5663 28.256C47.8263 28.256 48.9663 28.538 49.9863 29.102C51.0063 29.654 51.8043 30.422 52.3803 31.406C52.9563 32.378 53.2443 33.476 53.2443 34.7C53.2443 35.924 52.9563 37.028 52.3803 38.012C51.8043 38.984 51.0063 39.752 49.9863 40.316C48.9663 40.868 47.8263 41.144 46.5663 41.144ZM46.5663 39.542C47.4903 39.542 48.3183 39.332 49.0503 38.912C49.7943 38.492 50.3763 37.916 50.7963 37.184C51.2283 36.44 51.4443 35.612 51.4443 34.7C51.4443 33.788 51.2283 32.966 50.7963 32.234C50.3763 31.49 49.7943 30.908 49.0503 30.488C48.3183 30.068 47.4903 29.858 46.5663 29.858C45.6423 29.858 44.8023 30.068 44.0463 30.488C43.3023 30.908 42.7143 31.49 42.2823 32.234C41.8623 32.966 41.6523 33.788 41.6523 34.7C41.6523 35.612 41.8623 36.44 42.2823 37.184C42.7143 37.916 43.3023 38.492 44.0463 38.912C44.8023 39.332 45.6423 39.542 46.5663 39.542ZM59.6675 41.144C58.7195 41.144 57.8015 41 56.9135 40.712C56.0375 40.412 55.3475 40.028 54.8435 39.56L55.5095 38.156C55.9895 38.588 56.6015 38.942 57.3455 39.218C58.1015 39.482 58.8755 39.614 59.6675 39.614C60.7115 39.614 61.4915 39.44 62.0075 39.092C62.5235 38.732 62.7815 38.258 62.7815 37.67C62.7815 37.238 62.6375 36.89 62.3495 36.626C62.0735 36.35 61.7255 36.14 61.3055 35.996C60.8975 35.852 60.3155 35.69 59.5595 35.51C58.6115 35.282 57.8435 35.054 57.2555 34.826C56.6795 34.598 56.1815 34.25 55.7615 33.782C55.3535 33.302 55.1495 32.66 55.1495 31.856C55.1495 31.184 55.3235 30.578 55.6715 30.038C56.0315 29.498 56.5715 29.066 57.2915 28.742C58.0115 28.418 58.9055 28.256 59.9735 28.256C60.7175 28.256 61.4495 28.352 62.1695 28.544C62.8895 28.736 63.5075 29.012 64.0235 29.372L63.4295 30.812C62.9015 30.476 62.3375 30.224 61.7375 30.056C61.1375 29.876 60.5495 29.786 59.9735 29.786C58.9535 29.786 58.1855 29.972 57.6695 30.344C57.1655 30.716 56.9135 31.196 56.9135 31.784C56.9135 32.216 57.0575 32.57 57.3455 32.846C57.6335 33.11 57.9875 33.32 58.4075 33.476C58.8395 33.62 59.4215 33.776 60.1535 33.944C61.1015 34.172 61.8635 34.4 62.4395 34.628C63.0155 34.856 63.5075 35.204 63.9155 35.672C64.3355 36.14 64.5455 36.77 64.5455 37.562C64.5455 38.222 64.3655 38.828 64.0055 39.38C63.6455 39.92 63.0995 40.352 62.3675 40.676C61.6355 40.988 60.7355 41.144 59.6675 41.144ZM75.2032 37.85H68.5072L67.1212 41H65.2672L70.9732 28.4H72.7552L78.4792 41H76.5892L75.2032 37.85ZM74.5732 36.41L71.8552 30.236L69.1372 36.41H74.5732ZM91.1948 28.4V41H89.7188L82.1588 31.604V41H80.3588V28.4H81.8348L89.3948 37.796V28.4H91.1948Z" fill="white"/>
</svg>
