<svg width="122" height="71" viewBox="0 0 122 71" fill="none" xmlns="http://www.w3.org/2000/svg">
<rect width="122" height="71" fill="#FFCC00"/>
<path d="M15.24 15.68C15.864 15.784 16.332 16.012 16.644 16.364C16.964 16.716 17.124 17.184 17.124 17.768C17.124 18.488 16.872 19.04 16.368 19.424C15.864 19.808 15.116 20 14.124 20H10.512V11.6H13.896C14.776 11.6 15.46 11.784 15.948 12.152C16.444 12.52 16.692 13.048 16.692 13.736C16.692 14.224 16.564 14.632 16.308 14.96C16.052 15.288 15.696 15.528 15.24 15.68ZM11.124 15.488H13.884C14.588 15.488 15.128 15.344 15.504 15.056C15.88 14.768 16.068 14.352 16.068 13.808C16.068 13.256 15.88 12.836 15.504 12.548C15.128 12.26 14.588 12.116 13.884 12.116H11.124V15.488ZM14.136 19.484C15.72 19.484 16.512 18.9 16.512 17.732C16.512 17.132 16.312 16.692 15.912 16.412C15.512 16.132 14.92 15.992 14.136 15.992H11.124V19.484H14.136ZM25.308 19.448V20H19.512V11.6H25.128V12.152H20.124V15.464H24.6V16.004H20.124V19.448H25.308ZM27.3518 11.6H33.3398V12.14H27.9638V15.164H30.8078C31.7918 15.164 32.5398 15.364 33.0518 15.764C33.5638 16.164 33.8198 16.752 33.8198 17.528C33.8198 18.328 33.5478 18.94 33.0038 19.364C32.4598 19.788 31.6718 20 30.6398 20H27.3518V11.6ZM30.6518 19.484C31.4918 19.484 32.1278 19.324 32.5598 19.004C32.9918 18.676 33.2078 18.192 33.2078 17.552C33.2078 16.296 32.3558 15.668 30.6518 15.668H27.9638V19.484H30.6518ZM35.2557 16.508H38.3397V17.048H35.2557V16.508ZM44.2995 20.06C43.4755 20.06 42.7315 19.876 42.0675 19.508C41.4115 19.14 40.8915 18.632 40.5075 17.984C40.1315 17.336 39.9435 16.608 39.9435 15.8C39.9435 14.992 40.1315 14.264 40.5075 13.616C40.8915 12.968 41.4115 12.46 42.0675 12.092C42.7315 11.724 43.4755 11.54 44.2995 11.54C44.9075 11.54 45.4675 11.64 45.9795 11.84C46.4915 12.032 46.9275 12.32 47.2875 12.704L46.9035 13.1C46.2315 12.436 45.3715 12.104 44.3235 12.104C43.6195 12.104 42.9795 12.264 42.4035 12.584C41.8275 12.904 41.3755 13.348 41.0475 13.916C40.7195 14.476 40.5555 15.104 40.5555 15.8C40.5555 16.496 40.7195 17.128 41.0475 17.696C41.3755 18.256 41.8275 18.696 42.4035 19.016C42.9795 19.336 43.6195 19.496 44.3235 19.496C45.3635 19.496 46.2235 19.16 46.9035 18.488L47.2875 18.884C46.9275 19.268 46.4875 19.56 45.9675 19.76C45.4555 19.96 44.8995 20.06 44.2995 20.06ZM54.3593 17.636H49.4873L48.4193 20H47.7593L51.6233 11.6H52.2353L56.0993 20H55.4393L54.3593 17.636ZM54.1313 17.12L51.9233 12.272L49.7273 17.12H54.1313ZM57.844 11.6H58.456V18.968L64.18 11.6H64.72V20H64.108V12.644L58.384 20H57.844V11.6ZM61.252 10.964C60.692 10.964 60.24 10.836 59.896 10.58C59.56 10.316 59.388 9.956 59.38 9.5H59.872C59.88 9.836 60.008 10.1 60.256 10.292C60.512 10.484 60.844 10.58 61.252 10.58C61.652 10.58 61.976 10.484 62.224 10.292C62.48 10.1 62.612 9.836 62.62 9.5H63.112C63.104 9.956 62.928 10.316 62.584 10.58C62.248 10.836 61.804 10.964 61.252 10.964ZM73.0144 12.152H69.9904V20H69.3784V12.152H66.3544V11.6H73.0144V12.152Z" fill="white"/>
<path d="M12.045 53.77V54H9.63V50.5H11.97V50.73H9.885V52.11H11.75V52.335H9.885V53.77H12.045ZM15.5416 50.5V54H15.2866V50.73H13.4766L13.4316 52.015C13.4116 52.495 13.3699 52.8817 13.3066 53.175C13.2466 53.465 13.1566 53.68 13.0366 53.82C12.9166 53.96 12.7583 54.03 12.5616 54.03C12.4716 54.03 12.3883 54.02 12.3116 54L12.3416 53.765C12.3983 53.7783 12.4533 53.785 12.5066 53.785C12.6599 53.785 12.7833 53.7267 12.8766 53.61C12.9733 53.49 13.0466 53.3017 13.0966 53.045C13.1466 52.7883 13.1799 52.4467 13.1966 52.02L13.2466 50.5H15.5416ZM19.2179 53.77V54H16.8029V50.5H19.1429V50.73H17.0579V52.11H18.9229V52.335H17.0579V53.77H19.2179ZM23.3795 54L23.3745 51.005L21.9095 53.535H21.7845L20.3195 51.015V54H20.0695V50.5H20.2845L21.8495 53.205L23.4145 50.5H23.6245L23.6295 54H23.3795ZM27.3038 53.77V54H24.8888V50.5H27.2288V50.73H25.1438V52.11H27.0088V52.335H25.1438V53.77H27.3038ZM31.0054 50.5V54H30.7504V52.335H28.4104V54H28.1554V50.5H28.4104V52.11H30.7504V50.5H31.0054ZM34.4617 50.73H33.2017V54H32.9467V50.73H31.6867V50.5H34.4617V50.73ZM35.1427 50.5H35.3977V53.57L37.7827 50.5H38.0077V54H37.7527V50.935L35.3677 54H35.1427V50.5ZM41.9529 52.17C42.1895 52.2233 42.3745 52.325 42.5079 52.475C42.6445 52.625 42.7129 52.8067 42.7129 53.02C42.7129 53.2233 42.6512 53.4017 42.5279 53.555C42.4045 53.7083 42.2412 53.825 42.0379 53.905C41.8345 53.985 41.6145 54.025 41.3779 54.025C41.1479 54.025 40.9212 53.985 40.6979 53.905C40.4779 53.825 40.2812 53.7067 40.1079 53.55L40.2129 53.37C40.3662 53.5133 40.5412 53.6217 40.7379 53.695C40.9379 53.765 41.1412 53.8 41.3479 53.8C41.5445 53.8 41.7279 53.7683 41.8979 53.705C42.0679 53.6383 42.2029 53.545 42.3029 53.425C42.4029 53.3017 42.4529 53.1567 42.4529 52.99C42.4529 52.7667 42.3662 52.595 42.1929 52.475C42.0195 52.3517 41.7762 52.29 41.4629 52.29H40.7429V52.07H41.4529C41.7195 52.07 41.9279 52.0133 42.0779 51.9C42.2279 51.7833 42.3029 51.6233 42.3029 51.42C42.3029 51.1933 42.2079 51.015 42.0179 50.885C41.8312 50.7517 41.5979 50.685 41.3179 50.685C41.1479 50.685 40.9762 50.71 40.8029 50.76C40.6329 50.81 40.4695 50.8867 40.3129 50.99L40.2179 50.775C40.3912 50.6683 40.5712 50.5883 40.7579 50.535C40.9479 50.4817 41.1362 50.455 41.3229 50.455C41.5495 50.455 41.7562 50.4933 41.9429 50.57C42.1329 50.6433 42.2829 50.7517 42.3929 50.895C42.5062 51.035 42.5629 51.2 42.5629 51.39C42.5629 51.58 42.5079 51.7433 42.3979 51.88C42.2912 52.0167 42.1429 52.1133 41.9529 52.17ZM45.9221 53.015H43.8921L43.4471 54H43.1721L44.7821 50.5H45.0371L46.6471 54H46.3721L45.9221 53.015ZM45.8271 52.8L44.9071 50.78L43.9921 52.8H45.8271ZM47.1129 50.5L48.1679 51.975L49.2279 50.5H49.5329L48.3279 52.185L49.6279 54H49.3229L48.1679 52.4L47.0229 54H46.7229L48.0129 52.19L46.8129 50.5H47.1129ZM50.2696 50.5H50.5246V53.57L52.9096 50.5H53.1346V54H52.8796V50.935L50.4946 54H50.2696V50.5ZM55.8956 54.025C55.5523 54.025 55.2423 53.9483 54.9656 53.795C54.6923 53.6417 54.4756 53.43 54.3156 53.16C54.159 52.89 54.0806 52.5867 54.0806 52.25C54.0806 51.9133 54.159 51.61 54.3156 51.34C54.4756 51.07 54.6923 50.8583 54.9656 50.705C55.2423 50.5517 55.5523 50.475 55.8956 50.475C56.149 50.475 56.3823 50.5167 56.5956 50.6C56.809 50.68 56.9906 50.8 57.1406 50.96L56.9806 51.125C56.7006 50.8483 56.3423 50.71 55.9056 50.71C55.6123 50.71 55.3456 50.7767 55.1056 50.91C54.8656 51.0433 54.6773 51.2283 54.5406 51.465C54.404 51.6983 54.3356 51.96 54.3356 52.25C54.3356 52.54 54.404 52.8033 54.5406 53.04C54.6773 53.2733 54.8656 53.4567 55.1056 53.59C55.3456 53.7233 55.6123 53.79 55.9056 53.79C56.339 53.79 56.6973 53.65 56.9806 53.37L57.1406 53.535C56.9906 53.695 56.8073 53.8167 56.5906 53.9C56.3773 53.9833 56.1456 54.025 55.8956 54.025ZM60.116 50.73H58.856V54H58.601V50.73H57.341V50.5H60.116V50.73ZM63.2956 50.5L61.6806 53.49C61.5773 53.6833 61.454 53.8267 61.3106 53.92C61.1706 54.0133 61.0206 54.06 60.8606 54.06C60.7373 54.06 60.604 54.03 60.4606 53.97L60.5406 53.76C60.654 53.8067 60.7606 53.83 60.8606 53.83C61.0973 53.83 61.294 53.6983 61.4506 53.435L61.5706 53.23L60.1356 50.5H60.4156L61.7106 52.99L63.0306 50.5H63.2956ZM12.51 56.5V60H12.255V56.73H9.885V60H9.63V56.5H12.51ZM15.0256 56.5C15.4656 56.5 15.8106 56.605 16.0606 56.815C16.3106 57.0217 16.4356 57.31 16.4356 57.68C16.4356 58.0467 16.3106 58.335 16.0606 58.545C15.8106 58.7517 15.4656 58.855 15.0256 58.855H14.0256V60H13.7706V56.5H15.0256ZM15.0256 58.625C15.399 58.625 15.684 58.5433 15.8806 58.38C16.0773 58.2167 16.1756 57.9833 16.1756 57.68C16.1756 57.3767 16.0773 57.1433 15.8806 56.98C15.684 56.8133 15.399 56.73 15.0256 56.73H14.0256V58.625H15.0256ZM17.2521 56.5H17.5071V59.57L19.8921 56.5H20.1171V60H19.8621V56.935L17.4771 60H17.2521V56.5ZM24.688 60L24.683 57.005L23.218 59.535H23.093L21.628 57.015V60H21.378V56.5H21.593L23.158 59.205L24.723 56.5H24.933L24.938 60H24.688ZM26.1974 56.5H26.4524V60H26.1974V56.5ZM31.9161 56.5V60H27.7111V56.5H27.9661V59.77H29.6861V56.5H29.9411V59.77H31.6611V56.5H31.9161ZM32.4811 59.77V60.8H32.2411V60H31.6611V59.77H32.4811ZM35.6925 59.77V60H33.2775V56.5H35.6175V56.73H33.5325V58.11H35.3975V58.335H33.5325V59.77H35.6925ZM39.3941 56.5V60H39.1391V58.335H36.7991V60H36.5441V56.5H36.7991V58.11H39.1391V56.5H39.3941ZM42.0604 57.78C42.4737 57.78 42.7871 57.8717 43.0004 58.055C43.2171 58.2383 43.3254 58.51 43.3254 58.87C43.3254 59.24 43.2104 59.5217 42.9804 59.715C42.7537 59.905 42.4254 60 41.9954 60H40.6554V56.5H40.9104V57.78H42.0604ZM42.0004 59.785C42.3504 59.785 42.6154 59.7083 42.7954 59.555C42.9754 59.4017 43.0654 59.175 43.0654 58.875C43.0654 58.2883 42.7104 57.995 42.0004 57.995H40.9104V59.785H42.0004ZM48.3596 56.5V60H48.1046V56.73H45.7346V60H45.4796V56.5H48.3596ZM50.8752 56.5C51.3152 56.5 51.6602 56.605 51.9102 56.815C52.1602 57.0217 52.2852 57.31 52.2852 57.68C52.2852 58.0467 52.1602 58.335 51.9102 58.545C51.6602 58.7517 51.3152 58.855 50.8752 58.855H49.8752V60H49.6202V56.5H50.8752ZM50.8752 58.625C51.2486 58.625 51.5336 58.5433 51.7302 58.38C51.9269 58.2167 52.0252 57.9833 52.0252 57.68C52.0252 57.3767 51.9269 57.1433 51.7302 56.98C51.5336 56.8133 51.2486 56.73 50.8752 56.73H49.8752V58.625H50.8752ZM55.5167 59.77V60H53.1017V56.5H55.4417V56.73H53.3567V58.11H55.2217V58.335H53.3567V59.77H55.5167ZM59.6783 60L59.6733 57.005L58.2083 59.535H58.0833L56.6183 57.015V60H56.3683V56.5H56.5833L58.1483 59.205L59.7133 56.5H59.9233L59.9283 60H59.6783ZM61.1876 56.5H61.4426V60H61.1876V56.5ZM65.3513 56.5L63.7363 59.49C63.633 59.6833 63.5096 59.8267 63.3663 59.92C63.2263 60.0133 63.0763 60.06 62.9163 60.06C62.793 60.06 62.6596 60.03 62.5163 59.97L62.5963 59.76C62.7096 59.8067 62.8163 59.83 62.9163 59.83C63.153 59.83 63.3496 59.6983 63.5063 59.435L63.6263 59.23L62.1913 56.5H62.4713L63.7663 58.99L65.0863 56.5H65.3513ZM69.2925 60L69.2875 57.005L67.8225 59.535H67.6975L66.2325 57.015V60H65.9825V56.5H66.1975L67.7625 59.205L69.3275 56.5H69.5375L69.5425 60H69.2925ZM70.4819 58.545H71.7669V58.77H70.4819V58.545ZM73.8012 58.34H72.9612V60H72.7062V56.5H72.9612V58.11H73.8062L75.0612 56.5H75.3462L74.0062 58.205L75.4362 60H75.1362L73.8012 58.34ZM78.7643 56.5V60H78.5093V56.73H76.6993L76.6543 58.015C76.6343 58.495 76.5926 58.8817 76.5293 59.175C76.4693 59.465 76.3793 59.68 76.2593 59.82C76.1393 59.96 75.9809 60.03 75.7843 60.03C75.6943 60.03 75.6109 60.02 75.5343 60L75.5643 59.765C75.6209 59.7783 75.6759 59.785 75.7293 59.785C75.8826 59.785 76.0059 59.7267 76.0993 59.61C76.1959 59.49 76.2693 59.3017 76.3193 59.045C76.3693 58.7883 76.4026 58.4467 76.4193 58.02L76.4693 56.5H78.7643ZM82.2405 59.015H80.2105L79.7655 60H79.4905L81.1005 56.5H81.3555L82.9655 60H82.6905L82.2405 59.015ZM82.1455 58.8L81.2255 56.78L80.3105 58.8H82.1455ZM85.1437 60.025C84.8003 60.025 84.4903 59.9483 84.2137 59.795C83.9403 59.6417 83.7237 59.43 83.5637 59.16C83.407 58.89 83.3287 58.5867 83.3287 58.25C83.3287 57.9133 83.407 57.61 83.5637 57.34C83.7237 57.07 83.9403 56.8583 84.2137 56.705C84.4903 56.5517 84.8003 56.475 85.1437 56.475C85.397 56.475 85.6303 56.5167 85.8437 56.6C86.057 56.68 86.2387 56.8 86.3887 56.96L86.2287 57.125C85.9487 56.8483 85.5903 56.71 85.1537 56.71C84.8603 56.71 84.5937 56.7767 84.3537 56.91C84.1137 57.0433 83.9253 57.2283 83.7887 57.465C83.652 57.6983 83.5837 57.96 83.5837 58.25C83.5837 58.54 83.652 58.8033 83.7887 59.04C83.9253 59.2733 84.1137 59.4567 84.3537 59.59C84.5937 59.7233 84.8603 59.79 85.1537 59.79C85.587 59.79 85.9453 59.65 86.2287 59.37L86.3887 59.535C86.2387 59.695 86.0553 59.8167 85.8387 59.9C85.6253 59.9833 85.3937 60.025 85.1437 60.025ZM89.7702 56.5L88.1552 59.49C88.0519 59.6833 87.9286 59.8267 87.7852 59.92C87.6452 60.0133 87.4952 60.06 87.3352 60.06C87.2119 60.06 87.0786 60.03 86.9352 59.97L87.0152 59.76C87.1286 59.8067 87.2352 59.83 87.3352 59.83C87.5719 59.83 87.7686 59.6983 87.9252 59.435L88.0452 59.23L86.6102 56.5H86.8902L88.1852 58.99L89.5052 56.5H89.7702Z" fill="white"/>
<path d="M10.89 28.4H12.69V39.434H19.512V41H10.89V28.4ZM21.5775 28.4H23.3775V41H21.5775V28.4ZM32.8378 41.144C31.5658 41.144 30.4198 40.868 29.3998 40.316C28.3798 39.752 27.5758 38.978 26.9878 37.994C26.4118 37.01 26.1238 35.912 26.1238 34.7C26.1238 33.488 26.4118 32.39 26.9878 31.406C27.5758 30.422 28.3798 29.654 29.3998 29.102C30.4198 28.538 31.5658 28.256 32.8378 28.256C34.0978 28.256 35.2378 28.538 36.2578 29.102C37.2778 29.654 38.0758 30.422 38.6518 31.406C39.2278 32.378 39.5158 33.476 39.5158 34.7C39.5158 35.924 39.2278 37.028 38.6518 38.012C38.0758 38.984 37.2778 39.752 36.2578 40.316C35.2378 40.868 34.0978 41.144 32.8378 41.144ZM32.8378 39.542C33.7618 39.542 34.5898 39.332 35.3218 38.912C36.0658 38.492 36.6478 37.916 37.0678 37.184C37.4998 36.44 37.7158 35.612 37.7158 34.7C37.7158 33.788 37.4998 32.966 37.0678 32.234C36.6478 31.49 36.0658 30.908 35.3218 30.488C34.5898 30.068 33.7618 29.858 32.8378 29.858C31.9138 29.858 31.0738 30.068 30.3178 30.488C29.5738 30.908 28.9858 31.49 28.5538 32.234C28.1338 32.966 27.9238 33.788 27.9238 34.7C27.9238 35.612 28.1338 36.44 28.5538 37.184C28.9858 37.916 29.5738 38.492 30.3178 38.912C31.0738 39.332 31.9138 39.542 32.8378 39.542ZM53.949 41L53.931 31.82L49.377 39.47H48.549L43.995 31.874V41H42.267V28.4H43.743L48.999 37.256L54.183 28.4H55.659L55.677 41H53.949Z" fill="white"/>
</svg>
