<svg width="122" height="71" viewBox="0 0 122 71" fill="none" xmlns="http://www.w3.org/2000/svg">
<rect width="122" height="71" fill="#FFCC00"/>
<path d="M15.24 15.68C15.864 15.784 16.332 16.012 16.644 16.364C16.964 16.716 17.124 17.184 17.124 17.768C17.124 18.488 16.872 19.04 16.368 19.424C15.864 19.808 15.116 20 14.124 20H10.512V11.6H13.896C14.776 11.6 15.46 11.784 15.948 12.152C16.444 12.52 16.692 13.048 16.692 13.736C16.692 14.224 16.564 14.632 16.308 14.96C16.052 15.288 15.696 15.528 15.24 15.68ZM11.124 15.488H13.884C14.588 15.488 15.128 15.344 15.504 15.056C15.88 14.768 16.068 14.352 16.068 13.808C16.068 13.256 15.88 12.836 15.504 12.548C15.128 12.26 14.588 12.116 13.884 12.116H11.124V15.488ZM14.136 19.484C15.72 19.484 16.512 18.9 16.512 17.732C16.512 17.132 16.312 16.692 15.912 16.412C15.512 16.132 14.92 15.992 14.136 15.992H11.124V19.484H14.136ZM25.308 19.448V20H19.512V11.6H25.128V12.152H20.124V15.464H24.6V16.004H20.124V19.448H25.308ZM27.3518 11.6H33.3398V12.14H27.9638V15.164H30.8078C31.7918 15.164 32.5398 15.364 33.0518 15.764C33.5638 16.164 33.8198 16.752 33.8198 17.528C33.8198 18.328 33.5478 18.94 33.0038 19.364C32.4598 19.788 31.6718 20 30.6398 20H27.3518V11.6ZM30.6518 19.484C31.4918 19.484 32.1278 19.324 32.5598 19.004C32.9918 18.676 33.2078 18.192 33.2078 17.552C33.2078 16.296 32.3558 15.668 30.6518 15.668H27.9638V19.484H30.6518ZM35.2557 16.508H38.3397V17.048H35.2557V16.508ZM44.2995 20.06C43.4755 20.06 42.7315 19.876 42.0675 19.508C41.4115 19.14 40.8915 18.632 40.5075 17.984C40.1315 17.336 39.9435 16.608 39.9435 15.8C39.9435 14.992 40.1315 14.264 40.5075 13.616C40.8915 12.968 41.4115 12.46 42.0675 12.092C42.7315 11.724 43.4755 11.54 44.2995 11.54C44.9075 11.54 45.4675 11.64 45.9795 11.84C46.4915 12.032 46.9275 12.32 47.2875 12.704L46.9035 13.1C46.2315 12.436 45.3715 12.104 44.3235 12.104C43.6195 12.104 42.9795 12.264 42.4035 12.584C41.8275 12.904 41.3755 13.348 41.0475 13.916C40.7195 14.476 40.5555 15.104 40.5555 15.8C40.5555 16.496 40.7195 17.128 41.0475 17.696C41.3755 18.256 41.8275 18.696 42.4035 19.016C42.9795 19.336 43.6195 19.496 44.3235 19.496C45.3635 19.496 46.2235 19.16 46.9035 18.488L47.2875 18.884C46.9275 19.268 46.4875 19.56 45.9675 19.76C45.4555 19.96 44.8995 20.06 44.2995 20.06ZM54.3593 17.636H49.4873L48.4193 20H47.7593L51.6233 11.6H52.2353L56.0993 20H55.4393L54.3593 17.636ZM54.1313 17.12L51.9233 12.272L49.7273 17.12H54.1313ZM57.844 11.6H58.456V18.968L64.18 11.6H64.72V20H64.108V12.644L58.384 20H57.844V11.6ZM61.252 10.964C60.692 10.964 60.24 10.836 59.896 10.58C59.56 10.316 59.388 9.956 59.38 9.5H59.872C59.88 9.836 60.008 10.1 60.256 10.292C60.512 10.484 60.844 10.58 61.252 10.58C61.652 10.58 61.976 10.484 62.224 10.292C62.48 10.1 62.612 9.836 62.62 9.5H63.112C63.104 9.956 62.928 10.316 62.584 10.58C62.248 10.836 61.804 10.964 61.252 10.964ZM73.0144 12.152H69.9904V20H69.3784V12.152H66.3544V11.6H73.0144V12.152Z" fill="white"/>
<path d="M11.13 54.025C10.7867 54.025 10.4767 53.9483 10.2 53.795C9.92333 53.6383 9.705 53.425 9.545 53.155C9.38833 52.885 9.31 52.5833 9.31 52.25C9.31 51.9167 9.38833 51.615 9.545 51.345C9.705 51.075 9.92333 50.8633 10.2 50.71C10.4767 50.5533 10.7867 50.475 11.13 50.475C11.4733 50.475 11.7833 50.5517 12.06 50.705C12.3367 50.8583 12.5533 51.07 12.71 51.34C12.87 51.61 12.95 51.9133 12.95 52.25C12.95 52.5867 12.87 52.89 12.71 53.16C12.5533 53.43 12.3367 53.6417 12.06 53.795C11.7833 53.9483 11.4733 54.025 11.13 54.025ZM11.13 53.79C11.4233 53.79 11.6883 53.7233 11.925 53.59C12.1617 53.4567 12.3483 53.2733 12.485 53.04C12.6217 52.8033 12.69 52.54 12.69 52.25C12.69 51.96 12.6217 51.6983 12.485 51.465C12.3483 51.2283 12.1617 51.0433 11.925 50.91C11.6883 50.7767 11.4233 50.71 11.13 50.71C10.8367 50.71 10.57 50.7767 10.33 50.91C10.0933 51.0433 9.90667 51.2283 9.77 51.465C9.63333 51.6983 9.565 51.96 9.565 52.25C9.565 52.54 9.63333 52.8033 9.77 53.04C9.90667 53.2733 10.0933 53.4567 10.33 53.59C10.57 53.7233 10.8367 53.79 11.13 53.79ZM13.8927 50.5H16.3877V50.725H14.1477V51.985H15.3327C15.7427 51.985 16.0544 52.0683 16.2677 52.235C16.481 52.4017 16.5877 52.6467 16.5877 52.97C16.5877 53.3033 16.4744 53.5583 16.2477 53.735C16.021 53.9117 15.6927 54 15.2627 54H13.8927V50.5ZM15.2677 53.785C15.6177 53.785 15.8827 53.7183 16.0627 53.585C16.2427 53.4483 16.3327 53.2467 16.3327 52.98C16.3327 52.4567 15.9777 52.195 15.2677 52.195H14.1477V53.785H15.2677ZM20.0582 50.5V54H19.8032V50.73H17.9932L17.9482 52.015C17.9282 52.495 17.8865 52.8817 17.8232 53.175C17.7632 53.465 17.6732 53.68 17.5532 53.82C17.4332 53.96 17.2749 54.03 17.0782 54.03C16.9882 54.03 16.9049 54.02 16.8282 54L16.8582 53.765C16.9149 53.7783 16.9699 53.785 17.0232 53.785C17.1765 53.785 17.2999 53.7267 17.3932 53.61C17.4899 53.49 17.5632 53.3017 17.6132 53.045C17.6632 52.7883 17.6965 52.4467 17.7132 52.02L17.7632 50.5H20.0582ZM23.5345 53.015H21.5045L21.0595 54H20.7845L22.3945 50.5H22.6495L24.2595 54H23.9845L23.5345 53.015ZM23.4395 52.8L22.5195 50.78L21.6045 52.8H23.4395ZM28.1063 53.77V54.8H27.8613V54H24.6613L24.6563 54.8H24.4113L24.4163 53.77H24.6063C24.8363 53.75 24.9963 53.5567 25.0863 53.19C25.1797 52.8233 25.2363 52.31 25.2563 51.65L25.2913 50.5H27.5663V53.77H28.1063ZM25.4913 51.67C25.4713 52.2367 25.4263 52.7 25.3563 53.06C25.2897 53.42 25.1747 53.6567 25.0113 53.77H27.3113V50.73H25.5213L25.4913 51.67ZM31.772 50.5V54H31.517V52.335H29.177V54H28.922V50.5H29.177V52.11H31.517V50.5H31.772ZM35.2483 53.015H33.2183L32.7733 54H32.4983L34.1083 50.5H34.3633L35.9733 54H35.6983L35.2483 53.015ZM35.1533 52.8L34.2333 50.78L33.3183 52.8H35.1533ZM39.5503 50.5V54H39.2953V52.335H36.9553V54H36.7003V50.5H36.9553V52.11H39.2953V50.5H39.5503ZM43.6616 50.5V54H43.4066V52.335H41.0666V54H40.8116V50.5H41.0666V52.11H43.4066V50.5H43.6616ZM47.323 50.5V54H47.068V52.9H45.953C45.8663 52.9 45.7846 52.895 45.708 52.885L44.933 54H44.658L45.468 52.84C45.208 52.7667 45.008 52.635 44.868 52.445C44.728 52.2517 44.658 52.01 44.658 51.72C44.658 51.3333 44.778 51.0333 45.018 50.82C45.2613 50.6067 45.5896 50.5 46.003 50.5H47.323ZM44.918 51.715C44.918 52.025 45.008 52.2633 45.188 52.43C45.368 52.5967 45.6313 52.68 45.978 52.68H47.068V50.73H46.023C45.6696 50.73 45.3963 50.815 45.203 50.985C45.013 51.1517 44.918 51.395 44.918 51.715ZM52.0643 50.73H50.8043V54H50.5493V50.73H49.2893V50.5H52.0643V50.73ZM54.7845 53.015H52.7545L52.3095 54H52.0345L53.6445 50.5H53.8995L55.5095 54H55.2345L54.7845 53.015ZM54.6895 52.8L53.7695 50.78L52.8545 52.8H54.6895ZM58.7756 50.5C59.2156 50.5 59.5606 50.605 59.8106 50.815C60.0606 51.0217 60.1856 51.31 60.1856 51.68C60.1856 52.0467 60.0606 52.335 59.8106 52.545C59.5606 52.7517 59.2156 52.855 58.7756 52.855H57.7756V54H57.5206V50.5H58.7756ZM58.7756 52.625C59.149 52.625 59.434 52.5433 59.6306 52.38C59.8273 52.2167 59.9256 51.9833 59.9256 51.68C59.9256 51.3767 59.8273 51.1433 59.6306 50.98C59.434 50.8133 59.149 50.73 58.7756 50.73H57.7756V52.625H58.7756ZM61.0021 50.5H61.2571V54H61.0021V50.5ZM66.7207 50.5V54H62.5157V50.5H62.7707V53.77H64.4907V50.5H64.7457V53.77H66.4657V50.5H66.7207ZM70.3946 53.77V54H67.9796V50.5H70.3196V50.73H68.2346V52.11H70.0996V52.335H68.2346V53.77H70.3946ZM74.0962 50.5V54H73.8412V52.335H71.5012V54H71.2462V50.5H71.5012V52.11H73.8412V50.5H74.0962ZM78.2075 50.5V54H77.9525V52.335H75.6125V54H75.3575V50.5H75.6125V52.11H77.9525V50.5H78.2075ZM81.8689 50.5V54H81.6139V52.9H80.4989C80.4122 52.9 80.3305 52.895 80.2539 52.885L79.4789 54H79.2039L80.0139 52.84C79.7539 52.7667 79.5539 52.635 79.4139 52.445C79.2739 52.2517 79.2039 52.01 79.2039 51.72C79.2039 51.3333 79.3239 51.0333 79.5639 50.82C79.8072 50.6067 80.1355 50.5 80.5489 50.5H81.8689ZM79.4639 51.715C79.4639 52.025 79.5539 52.2633 79.7339 52.43C79.9139 52.5967 80.1772 52.68 80.5239 52.68H81.6139V50.73H80.5689C80.2155 50.73 79.9422 50.815 79.7489 50.985C79.5589 51.1517 79.4639 51.395 79.4639 51.715ZM87.5302 53.77V54.8H87.2852V54H84.0852L84.0802 54.8H83.8352L83.8402 53.77H84.0302C84.2602 53.75 84.4202 53.5567 84.5102 53.19C84.6035 52.8233 84.6602 52.31 84.6802 51.65L84.7152 50.5H86.9902V53.77H87.5302ZM84.9152 51.67C84.8952 52.2367 84.8502 52.7 84.7802 53.06C84.7135 53.42 84.5985 53.6567 84.4352 53.77H86.7352V50.73H84.9452L84.9152 51.67ZM90.9908 50.5V54H90.7358V50.73H88.9258L88.8808 52.015C88.8608 52.495 88.8192 52.8817 88.7558 53.175C88.6958 53.465 88.6058 53.68 88.4858 53.82C88.3658 53.96 88.2075 54.03 88.0108 54.03C87.9208 54.03 87.8375 54.02 87.7608 54L87.7908 53.765C87.8475 53.7783 87.9025 53.785 87.9558 53.785C88.1092 53.785 88.2325 53.7267 88.3258 53.61C88.4225 53.49 88.4958 53.3017 88.5458 53.045C88.5958 52.7883 88.6292 52.4467 88.6458 52.02L88.6958 50.5H90.9908ZM94.6521 50.5V54H94.3971V52.9H93.2821C93.1954 52.9 93.1137 52.895 93.0371 52.885L92.2621 54H91.9871L92.7971 52.84C92.5371 52.7667 92.3371 52.635 92.1971 52.445C92.0571 52.2517 91.9871 52.01 91.9871 51.72C91.9871 51.3333 92.1071 51.0333 92.3471 50.82C92.5904 50.6067 92.9187 50.5 93.3321 50.5H94.6521ZM92.2471 51.715C92.2471 52.025 92.3371 52.2633 92.5171 52.43C92.6971 52.5967 92.9604 52.68 93.3071 52.68H94.3971V50.73H93.3521C92.9987 50.73 92.7254 50.815 92.5321 50.985C92.3421 51.1517 92.2471 51.395 92.2471 51.715ZM11.845 59.015H9.815L9.37 60H9.095L10.705 56.5H10.96L12.57 60H12.295L11.845 59.015ZM11.75 58.8L10.83 56.78L9.915 58.8H11.75ZM15.267 58.2C15.527 58.2433 15.722 58.3383 15.852 58.485C15.9853 58.6317 16.052 58.8267 16.052 59.07C16.052 59.37 15.947 59.6 15.737 59.76C15.527 59.92 15.2153 60 14.802 60H13.297V56.5H14.707C15.0737 56.5 15.3587 56.5767 15.562 56.73C15.7687 56.8833 15.872 57.1033 15.872 57.39C15.872 57.5933 15.8187 57.7633 15.712 57.9C15.6053 58.0367 15.457 58.1367 15.267 58.2ZM13.552 58.12H14.702C14.9953 58.12 15.2203 58.06 15.377 57.94C15.5337 57.82 15.612 57.6467 15.612 57.42C15.612 57.19 15.5337 57.015 15.377 56.895C15.2203 56.775 14.9953 56.715 14.702 56.715H13.552V58.12ZM14.807 59.785C15.467 59.785 15.797 59.5417 15.797 59.055C15.797 58.805 15.7137 58.6217 15.547 58.505C15.3803 58.3883 15.1337 58.33 14.807 58.33H13.552V59.785H14.807ZM19.1932 56.73H17.9332V60H17.6782V56.73H16.4182V56.5H19.1932V56.73ZM21.3253 60.025C20.982 60.025 20.672 59.9483 20.3953 59.795C20.1186 59.6383 19.9003 59.425 19.7403 59.155C19.5836 58.885 19.5053 58.5833 19.5053 58.25C19.5053 57.9167 19.5836 57.615 19.7403 57.345C19.9003 57.075 20.1186 56.8633 20.3953 56.71C20.672 56.5533 20.982 56.475 21.3253 56.475C21.6686 56.475 21.9786 56.5517 22.2553 56.705C22.532 56.8583 22.7486 57.07 22.9053 57.34C23.0653 57.61 23.1453 57.9133 23.1453 58.25C23.1453 58.5867 23.0653 58.89 22.9053 59.16C22.7486 59.43 22.532 59.6417 22.2553 59.795C21.9786 59.9483 21.6686 60.025 21.3253 60.025ZM21.3253 59.79C21.6186 59.79 21.8836 59.7233 22.1203 59.59C22.357 59.4567 22.5436 59.2733 22.6803 59.04C22.817 58.8033 22.8853 58.54 22.8853 58.25C22.8853 57.96 22.817 57.6983 22.6803 57.465C22.5436 57.2283 22.357 57.0433 22.1203 56.91C21.8836 56.7767 21.6186 56.71 21.3253 56.71C21.032 56.71 20.7653 56.7767 20.5253 56.91C20.2886 57.0433 20.102 57.2283 19.9653 57.465C19.8286 57.6983 19.7603 57.96 19.7603 58.25C19.7603 58.54 19.8286 58.8033 19.9653 59.04C20.102 59.2733 20.2886 59.4567 20.5253 59.59C20.7653 59.7233 21.032 59.79 21.3253 59.79ZM27.398 60L27.393 57.005L25.928 59.535H25.803L24.338 57.015V60H24.088V56.5H24.303L25.868 59.205L27.433 56.5H27.643L27.648 60H27.398ZM31.1223 59.015H29.0923L28.6473 60H28.3723L29.9823 56.5H30.2373L31.8473 60H31.5723L31.1223 59.015ZM31.0273 58.8L30.1073 56.78L29.1923 58.8H31.0273ZM34.5936 56.73H33.3336V60H33.0786V56.73H31.8186V56.5H34.5936V56.73ZM35.2745 56.5H35.5295V59.57L37.9145 56.5H38.1395V60H37.8845V56.935L35.4995 60H35.2745V56.5ZM40.8005 58.17C41.0372 58.2233 41.2222 58.325 41.3555 58.475C41.4922 58.625 41.5605 58.8067 41.5605 59.02C41.5605 59.2233 41.4988 59.4017 41.3755 59.555C41.2522 59.7083 41.0888 59.825 40.8855 59.905C40.6822 59.985 40.4622 60.025 40.2255 60.025C39.9955 60.025 39.7688 59.985 39.5455 59.905C39.3255 59.825 39.1288 59.7067 38.9555 59.55L39.0605 59.37C39.2138 59.5133 39.3888 59.6217 39.5855 59.695C39.7855 59.765 39.9888 59.8 40.1955 59.8C40.3922 59.8 40.5755 59.7683 40.7455 59.705C40.9155 59.6383 41.0505 59.545 41.1505 59.425C41.2505 59.3017 41.3005 59.1567 41.3005 58.99C41.3005 58.7667 41.2138 58.595 41.0405 58.475C40.8672 58.3517 40.6238 58.29 40.3105 58.29H39.5905V58.07H40.3005C40.5672 58.07 40.7755 58.0133 40.9255 57.9C41.0755 57.7833 41.1505 57.6233 41.1505 57.42C41.1505 57.1933 41.0555 57.015 40.8655 56.885C40.6788 56.7517 40.4455 56.685 40.1655 56.685C39.9955 56.685 39.8238 56.71 39.6505 56.76C39.4805 56.81 39.3172 56.8867 39.1605 56.99L39.0655 56.775C39.2388 56.6683 39.4188 56.5883 39.6055 56.535C39.7955 56.4817 39.9838 56.455 40.1705 56.455C40.3972 56.455 40.6038 56.4933 40.7905 56.57C40.9805 56.6433 41.1305 56.7517 41.2405 56.895C41.3538 57.035 41.4105 57.2 41.4105 57.39C41.4105 57.58 41.3555 57.7433 41.2455 57.88C41.1388 58.0167 40.9905 58.1133 40.8005 58.17ZM44.7698 59.015H42.7398L42.2948 60H42.0198L43.6298 56.5H43.8848L45.4948 60H45.2198L44.7698 59.015ZM44.6748 58.8L43.7548 56.78L42.8398 58.8H44.6748ZM49.5518 59.77V60.845H49.3118V60H46.2218V56.5H46.4768V59.77H48.7318V56.5H48.9868V59.77H49.5518ZM50.3429 56.5H50.5979V60H50.3429V56.5ZM51.8366 56.5H52.0916V60H51.8366V56.5ZM51.5366 56.08C51.4866 56.08 51.4432 56.0633 51.4066 56.03C51.3732 55.9933 51.3566 55.95 51.3566 55.9C51.3566 55.8467 51.3732 55.8033 51.4066 55.77C51.4432 55.7367 51.4866 55.72 51.5366 55.72C51.5866 55.72 51.6282 55.7383 51.6616 55.775C51.6982 55.8083 51.7166 55.85 51.7166 55.9C51.7166 55.95 51.6982 55.9933 51.6616 56.03C51.6249 56.0633 51.5832 56.08 51.5366 56.08ZM52.3966 56.08C52.3499 56.08 52.3082 56.0633 52.2716 56.03C52.2349 55.9933 52.2166 55.95 52.2166 55.9C52.2166 55.85 52.2332 55.8083 52.2666 55.775C52.3032 55.7383 52.3466 55.72 52.3966 55.72C52.4466 55.72 52.4882 55.7367 52.5216 55.77C52.5582 55.8033 52.5766 55.8467 52.5766 55.9C52.5766 55.95 52.5582 55.9933 52.5216 56.03C52.4882 56.0633 52.4466 56.08 52.3966 56.08ZM54.6154 56.5H57.1104V56.725H54.8704V57.985H56.0554C56.4654 57.985 56.777 58.0683 56.9904 58.235C57.2037 58.4017 57.3104 58.6467 57.3104 58.97C57.3104 59.3033 57.197 59.5583 56.9704 59.735C56.7437 59.9117 56.4154 60 55.9854 60H54.6154V56.5ZM55.9904 59.785C56.3404 59.785 56.6054 59.7183 56.7854 59.585C56.9654 59.4483 57.0554 59.2467 57.0554 58.98C57.0554 58.4567 56.7004 58.195 55.9904 58.195H54.8704V59.785H55.9904ZM58.2286 56.5H58.4836V59.57L60.8686 56.5H61.0936V60H60.8386V56.935L58.4536 60H58.2286V56.5ZM63.7546 58.17C63.9913 58.2233 64.1763 58.325 64.3096 58.475C64.4463 58.625 64.5146 58.8067 64.5146 59.02C64.5146 59.2233 64.4529 59.4017 64.3296 59.555C64.2063 59.7083 64.0429 59.825 63.8396 59.905C63.6363 59.985 63.4163 60.025 63.1796 60.025C62.9496 60.025 62.7229 59.985 62.4996 59.905C62.2796 59.825 62.0829 59.7067 61.9096 59.55L62.0146 59.37C62.1679 59.5133 62.3429 59.6217 62.5396 59.695C62.7396 59.765 62.9429 59.8 63.1496 59.8C63.3463 59.8 63.5296 59.7683 63.6996 59.705C63.8696 59.6383 64.0046 59.545 64.1046 59.425C64.2046 59.3017 64.2546 59.1567 64.2546 58.99C64.2546 58.7667 64.1679 58.595 63.9946 58.475C63.8213 58.3517 63.5779 58.29 63.2646 58.29H62.5446V58.07H63.2546C63.5213 58.07 63.7296 58.0133 63.8796 57.9C64.0296 57.7833 64.1046 57.6233 64.1046 57.42C64.1046 57.1933 64.0096 57.015 63.8196 56.885C63.6329 56.7517 63.3996 56.685 63.1196 56.685C62.9496 56.685 62.7779 56.71 62.6046 56.76C62.4346 56.81 62.2713 56.8867 62.1146 56.99L62.0196 56.775C62.1929 56.6683 62.3729 56.5883 62.5596 56.535C62.7496 56.4817 62.9379 56.455 63.1246 56.455C63.3513 56.455 63.5579 56.4933 63.7446 56.57C63.9346 56.6433 64.0846 56.7517 64.1946 56.895C64.3079 57.035 64.3646 57.2 64.3646 57.39C64.3646 57.58 64.3096 57.7433 64.1996 57.88C64.0929 58.0167 63.9446 58.1133 63.7546 58.17ZM68.3589 56.5V60H68.1039V58.335H65.7639V60H65.5089V56.5H65.7639V58.11H68.1039V56.5H68.3589ZM72.0352 59.77V60H69.6202V56.5H71.9602V56.73H69.8752V58.11H71.7402V58.335H69.8752V59.77H72.0352ZM74.3673 60.025C74.024 60.025 73.714 59.9483 73.4373 59.795C73.164 59.6417 72.9473 59.43 72.7873 59.16C72.6306 58.89 72.5523 58.5867 72.5523 58.25C72.5523 57.9133 72.6306 57.61 72.7873 57.34C72.9473 57.07 73.164 56.8583 73.4373 56.705C73.714 56.5517 74.024 56.475 74.3673 56.475C74.6206 56.475 74.854 56.5167 75.0673 56.6C75.2806 56.68 75.4623 56.8 75.6123 56.96L75.4523 57.125C75.1723 56.8483 74.814 56.71 74.3773 56.71C74.084 56.71 73.8173 56.7767 73.5773 56.91C73.3373 57.0433 73.149 57.2283 73.0123 57.465C72.8756 57.6983 72.8073 57.96 72.8073 58.25C72.8073 58.54 72.8756 58.8033 73.0123 59.04C73.149 59.2733 73.3373 59.4567 73.5773 59.59C73.8173 59.7233 74.084 59.79 74.3773 59.79C74.8106 59.79 75.169 59.65 75.4523 59.37L75.6123 59.535C75.4623 59.695 75.279 59.8167 75.0623 59.9C74.849 59.9833 74.6173 60.025 74.3673 60.025ZM78.9939 56.5L77.3789 59.49C77.2755 59.6833 77.1522 59.8267 77.0089 59.92C76.8689 60.0133 76.7189 60.06 76.5589 60.06C76.4355 60.06 76.3022 60.03 76.1589 59.97L76.2389 59.76C76.3522 59.8067 76.4589 59.83 76.5589 59.83C76.7955 59.83 76.9922 59.6983 77.1489 59.435L77.2689 59.23L75.8339 56.5H76.1139L77.4089 58.99L78.7289 56.5H78.9939Z" fill="white"/>
<path d="M16.11 41.144C14.43 41.144 13.122 40.664 12.186 39.704C11.25 38.744 10.782 37.364 10.782 35.564V28.4H12.582V35.492C12.582 38.192 13.764 39.542 16.128 39.542C17.28 39.542 18.162 39.212 18.774 38.552C19.386 37.88 19.692 36.86 19.692 35.492V28.4H21.438V35.564C21.438 37.376 20.97 38.762 20.034 39.722C19.098 40.67 17.79 41.144 16.11 41.144ZM35.9643 28.4V41H34.4883L26.9283 31.604V41H25.1283V28.4H26.6043L34.1643 37.796V28.4H35.9643ZM39.7357 28.4H41.5357V41H39.7357V28.4ZM50.222 28.4C51.854 28.4 53.138 28.79 54.074 29.57C55.01 30.35 55.478 31.424 55.478 32.792C55.478 34.16 55.01 35.234 54.074 36.014C53.138 36.794 51.854 37.184 50.222 37.184H47.108V41H45.308V28.4H50.222ZM50.168 35.618C51.308 35.618 52.178 35.378 52.778 34.898C53.378 34.406 53.678 33.704 53.678 32.792C53.678 31.88 53.378 31.184 52.778 30.704C52.178 30.212 51.308 29.966 50.168 29.966H47.108V35.618H50.168ZM66.5464 41L63.8284 37.13C63.4924 37.154 63.2284 37.166 63.0364 37.166H59.9224V41H58.1224V28.4H63.0364C64.6684 28.4 65.9524 28.79 66.8884 29.57C67.8244 30.35 68.2924 31.424 68.2924 32.792C68.2924 33.764 68.0524 34.592 67.5724 35.276C67.0924 35.96 66.4084 36.458 65.5204 36.77L68.5084 41H66.5464ZM62.9824 35.636C64.1224 35.636 64.9924 35.39 65.5924 34.898C66.1924 34.406 66.4924 33.704 66.4924 32.792C66.4924 31.88 66.1924 31.184 65.5924 30.704C64.9924 30.212 64.1224 29.966 62.9824 29.966H59.9224V35.636H62.9824ZM76.8885 41.144C75.6165 41.144 74.4705 40.868 73.4505 40.316C72.4305 39.752 71.6265 38.978 71.0385 37.994C70.4625 37.01 70.1745 35.912 70.1745 34.7C70.1745 33.488 70.4625 32.39 71.0385 31.406C71.6265 30.422 72.4305 29.654 73.4505 29.102C74.4705 28.538 75.6165 28.256 76.8885 28.256C78.1485 28.256 79.2885 28.538 80.3085 29.102C81.3285 29.654 82.1265 30.422 82.7025 31.406C83.2785 32.378 83.5665 33.476 83.5665 34.7C83.5665 35.924 83.2785 37.028 82.7025 38.012C82.1265 38.984 81.3285 39.752 80.3085 40.316C79.2885 40.868 78.1485 41.144 76.8885 41.144ZM76.8885 39.542C77.8125 39.542 78.6405 39.332 79.3725 38.912C80.1165 38.492 80.6985 37.916 81.1185 37.184C81.5505 36.44 81.7665 35.612 81.7665 34.7C81.7665 33.788 81.5505 32.966 81.1185 32.234C80.6985 31.49 80.1165 30.908 79.3725 30.488C78.6405 30.068 77.8125 29.858 76.8885 29.858C75.9645 29.858 75.1245 30.068 74.3685 30.488C73.6245 30.908 73.0365 31.49 72.6045 32.234C72.1845 32.966 71.9745 33.788 71.9745 34.7C71.9745 35.612 72.1845 36.44 72.6045 37.184C73.0365 37.916 73.6245 38.492 74.3685 38.912C75.1245 39.332 75.9645 39.542 76.8885 39.542Z" fill="white"/>
</svg>
