<svg width="182" height="75" viewBox="0 0 182 75" fill="none" xmlns="http://www.w3.org/2000/svg">
<path d="M4.09979 12.3866L2.44243 10.0314L1.57013 14.0439C1.04676 14.0439 0.523378 14.0439 0 14.0439C0.436148 11.776 1.04676 9.07185 1.4829 6.89111H1.91905L4.53594 10.4675L8.63573 6.89111H9.15911C8.72296 8.98462 8.11235 11.776 7.67621 14.0439C7.15283 14.0439 6.62945 14.0439 6.10607 14.0439L6.97837 10.0314L4.27425 12.3866H4.09979Z" fill="white"/>
<path d="M15.8758 13.6079C15.0035 14.044 14.1312 14.1312 13.2589 14.1312C10.7292 14.2185 9.50801 12.7356 10.0314 10.2059C10.5548 7.67625 12.4738 6.71673 14.3929 6.6295C15.963 6.54227 17.5331 7.41457 17.097 9.07193C16.7481 10.5548 15.2652 11.1654 13.8695 11.2527C12.91 11.3399 12.0377 10.991 11.4271 10.6421C11.0781 12.125 12.0377 12.91 13.6078 12.91C14.4801 12.91 15.3524 12.6483 16.0502 12.3867L15.8758 13.6079ZM13.8695 10.1187C14.4801 10.1187 15.4396 9.85699 15.6141 9.07193C15.8758 8.19963 14.9162 7.93794 14.2184 7.93794C13.2589 7.93794 12.3866 8.46132 11.8632 9.50808C12.2994 9.94422 13.1716 10.1187 13.8695 10.1187Z" fill="white"/>
<path d="M24.5982 8.37412C25.2088 5.49554 24.3365 4.7977 23.028 4.88493C22.1557 4.88493 21.109 5.23385 20.2367 5.58277L20.3239 4.27432C21.3707 3.75095 22.4174 3.48926 23.377 3.48926C27.3023 3.48926 26.2555 8.19966 25.2088 10.991C24.5109 12.8228 23.1153 14.2185 20.7601 14.2185C18.7538 14.2185 17.707 12.9973 17.707 11.3399C17.707 9.07195 19.4516 6.89121 22.0685 6.97844C23.377 6.97844 24.2493 7.50182 24.5982 8.37412ZM22.3302 8.37412C21.0218 8.37412 19.8878 9.33364 19.6261 10.5549C19.2772 11.8633 19.8005 12.7356 21.109 12.7356C22.3302 12.7356 23.5514 11.8633 23.9003 10.5549C24.2493 9.33364 23.6386 8.37412 22.3302 8.37412Z" fill="white"/>
<path d="M34.3677 14.1312C33.1465 14.3929 32.1869 14.1312 32.3614 12.91C31.6636 13.8696 30.6168 14.2185 29.57 14.2185C27.651 14.2185 26.9532 12.91 27.3893 11.1654L27.9127 8.63577C27.9999 8.1124 27.9127 7.93794 27.2148 8.02517L27.5638 6.97841C28.9594 6.71672 30.0062 6.89118 29.6573 8.63577L29.1339 11.1654C28.8722 12.2994 29.1339 12.9973 30.2679 12.9973C31.3146 12.9973 32.3614 12.2994 32.6231 11.1654L33.4954 6.97841H35.1527L34.0188 11.8633C33.8443 12.8228 33.6698 13.0845 34.6294 12.9973L34.3677 14.1312Z" fill="white"/>
<path d="M41.1723 9.33354L41.6957 6.89111H43.2658L41.7829 14.0439H40.1255L40.7361 10.9909C38.4682 12.4738 35.764 11.6015 36.3747 8.54848L36.7236 6.89111H38.3809L38.032 8.54848C37.5959 10.642 39.9511 10.9909 41.1723 9.33354Z" fill="white"/>
<path d="M44.0508 14.0442L45.1848 8.81046C45.3592 8.11262 45.272 7.93816 44.4869 8.02539C44.5742 7.67647 44.6614 7.24032 44.6614 6.89141C46.2315 6.62972 47.191 6.97864 46.8421 8.54877L46.5804 9.68275H49.9824L50.593 6.89141H52.1631L51.0291 12.1252C50.8547 12.823 50.9419 12.9975 51.727 12.9102C51.6398 13.2592 51.5525 13.6953 51.4653 14.0442C49.8952 14.3932 49.0229 13.957 49.3718 12.2124L49.6335 10.9912H46.1443L45.5337 13.957H44.0508V14.0442Z" fill="white"/>
<path d="M60.7993 14.1312C59.5781 14.3929 58.6186 14.1312 58.793 12.91C58.0952 13.8696 57.0484 14.2185 56.0017 14.2185C54.0826 14.2185 53.3848 12.91 53.8209 11.1654L54.3443 8.63577C54.4316 8.1124 54.3443 7.93794 53.6465 8.02517L53.9082 6.97841C55.3038 6.71672 56.3506 6.89118 56.0017 8.63577L55.4783 11.1654C55.2166 12.2994 55.4783 12.9973 56.6123 12.9973C57.659 12.9973 58.7058 12.2994 58.9675 11.1654L59.8398 6.97841H61.4971L60.4504 11.9505C60.1887 12.8228 60.1015 13.0845 60.9738 13.0845L60.7993 14.1312Z" fill="white"/>
<path d="M70.045 14.131C68.8238 14.3926 67.8642 14.131 68.0387 12.9097C67.3409 13.8693 66.2941 14.2182 65.2473 14.2182C63.3283 14.2182 62.6305 12.9097 63.0666 11.1651L63.6772 8.63549C63.7644 8.11211 63.6772 7.93765 62.9794 8.02488L63.1538 6.97813C64.5495 6.71644 65.5963 6.8909 65.2473 8.63549L64.724 11.1651C64.4623 12.2991 64.724 12.997 65.8579 12.997C66.9047 12.997 67.9515 12.2991 68.2131 11.1651L69.0854 6.97813H70.7428L69.6961 11.9502C69.5216 12.9097 69.3471 13.1714 70.3067 13.0842L70.045 14.131ZM66.4686 3.57617C66.3813 4.18678 66.7302 4.5357 67.3408 4.5357C68.0387 4.5357 68.5621 4.18678 68.911 3.57617C69.2599 3.57617 69.7833 3.6634 70.045 3.6634C69.6088 4.97185 68.7365 5.66968 67.2536 5.66968C66.0324 5.66968 65.1601 4.97185 65.4218 3.6634L66.4686 3.57617Z" fill="white"/>
<path d="M78.7692 12.9101C79.816 12.9101 80.8627 12.2122 81.1244 10.991L81.9967 6.89123H83.5668L82.4328 12.2122C82.2584 13.0845 82.4328 13.1718 83.3051 13.1718L82.6073 15.8759H81.3861L81.735 14.1313C80.8627 14.2185 80.601 13.7824 80.7755 12.9101C80.1649 13.8696 79.1181 14.1313 78.1586 14.1313C76.1523 14.1313 75.7162 12.8228 76.1523 10.991L76.5885 8.81028C76.7629 8.19967 76.7629 7.85075 75.8906 7.93798L76.1523 6.97846C77.7224 6.62954 78.682 7.06569 78.3331 8.63582L77.8097 11.0782C77.4608 12.2122 77.8097 12.9101 78.7692 12.9101Z" fill="white"/>
<path d="M90.8055 13.6079C89.9332 14.044 89.0609 14.1312 88.1886 14.1312C85.6589 14.2185 84.4377 12.7356 84.9611 10.2059C85.4844 7.67625 87.4035 6.71673 89.3226 6.6295C90.8927 6.54227 92.4628 7.41457 92.0267 9.07193C91.6777 10.5548 90.1948 11.1654 88.7992 11.2527C87.8396 11.3399 86.9674 10.991 86.3567 10.6421C86.0078 12.125 86.9674 12.91 88.5375 12.91C89.4098 12.91 90.2821 12.6483 90.9799 12.3867L90.8055 13.6079ZM88.7119 10.1187C89.3225 10.1187 90.2821 9.85699 90.4565 9.07193C90.7182 8.19963 89.7587 7.93794 89.0609 7.93794C88.1013 7.93794 87.229 8.46132 86.7057 9.50808C87.1418 9.94422 88.0141 10.1187 88.7119 10.1187Z" fill="white"/>
<path d="M92.8125 14.0439L93.9465 8.81011C94.1209 8.11227 94.0337 7.93781 93.2486 8.02504C93.3359 7.67612 93.4231 7.23997 93.4231 6.89106C94.9932 6.54214 95.8655 6.97829 95.5166 8.54842L95.2549 9.6824H98.6569L99.2675 6.97829H100.838L99.7036 12.2121C99.5292 12.9099 99.6164 13.0844 100.401 12.9971C100.314 13.346 100.227 13.7822 100.14 14.1311C98.6569 14.48 97.6974 14.0439 98.0463 12.2993L98.308 11.0781H94.8188L94.2082 14.0439H92.8125Z" fill="white"/>
<path d="M103.279 14.0439L104.5 8.28679H102.232L102.494 6.89111H108.687L108.338 8.28679H106.071L104.849 14.0439H103.279Z" fill="white"/>
<path d="M107.902 17.7076L109.734 9.24628C109.909 8.46122 110.083 7.76338 109.298 7.93784L109.56 6.80385C110.606 6.62939 111.653 6.71662 111.392 7.93784L111.304 8.19953C111.915 7.24 113.049 6.62939 114.096 6.62939C115.84 6.62939 116.713 7.93784 116.713 9.50797C116.713 11.9504 115.055 14.2184 112.526 14.1311C111.653 14.0439 110.955 13.7822 110.432 12.9972L109.472 17.6203H107.902V17.7076ZM113.572 8.1123C112.089 8.1123 111.043 9.50797 111.043 10.9909C111.043 12.0376 111.479 12.8227 112.526 12.8227C114.183 12.8227 115.055 11.3398 115.055 9.85689C114.968 8.89736 114.619 8.1123 113.572 8.1123Z" fill="white"/>
<path d="M18.0565 25.9946H27.8262L18.9288 74.2326H8.89742L0 25.9946H9.76971L10.642 32.1879L13.8695 57.1356L17.1842 32.1007L18.0565 25.9946Z" fill="white"/>
<path d="M40.2137 25.9946H30.5312V74.2326H40.2137V25.9946Z" fill="white"/>
<path d="M65.597 25.9946V34.9793H59.142V74.2326H49.2851V34.9793H42.8301V25.9946H65.597Z" fill="white"/>
<path d="M77.461 68.2138L76.5887 74.2326H66.9062L75.6292 25.9946H85.9223L94.6453 74.2326H84.9628L84.0905 68.2138H77.461ZM78.5078 60.6248H82.9565L80.7758 43.5278L78.5078 60.6248Z" fill="white"/>
<path d="M97.2617 25.9946H117.761V34.9793H107.206V46.4064H115.231V54.7804H107.206V65.248H117.325V74.2326H97.2617V25.9946Z" fill="white"/>
<path d="M151.692 25.82H156.839C157.013 25.82 157.275 25.82 157.449 25.82C166.085 25.82 173.587 30.3559 177.948 37.0726C180.303 33.3217 181.699 28.873 181.699 24.1626C181.699 10.8165 170.883 0 157.536 0C157.362 0 157.1 0 156.926 0H151.779C138.956 0 128.576 10.3803 128.576 23.2031V44.4871H129.012C131.019 33.8451 140.439 25.82 151.692 25.82Z" fill="#C8C8C8"/>
<path d="M128.49 74.2322H157.363C170.709 74.2322 181.525 63.4158 181.525 50.0697C181.525 45.3593 180.13 40.9105 177.774 37.1597C173.5 43.9636 165.911 48.4123 157.275 48.4123H152.042V53.5588H144.802V60.7989H135.642V53.5588H128.402V74.2322H128.49Z" fill="#AAAAAA"/>
<path d="M157.449 25.8198C157.274 25.8198 157.012 25.8198 156.838 25.8198H151.691C140.439 25.8198 130.669 33.8449 128.488 44.487H135.728V37.2469H144.887V44.487H152.127V48.4995H157.361C165.997 48.4995 173.499 43.9636 177.86 37.2469C173.586 30.3558 165.997 25.8198 157.449 25.8198Z" fill="#60B142"/>
<path d="M157.449 48.4123H152.215V44.487H144.975V37.2469H135.816V44.487H128.576C130.67 33.8449 140.527 25.8198 151.779 25.8198H156.926C157.1 25.8198 157.362 25.8198 157.536 25.8198C166.172 25.8198 173.674 30.3558 178.035 37.0724C173.587 43.8764 165.998 48.4123 157.449 48.4123Z" fill="#E3E3E3"/>
</svg>
