<svg width="143" height="19" viewBox="0 0 143 19" fill="none" xmlns="http://www.w3.org/2000/svg">
<path d="M143 0.492832C142.729 1.20981 142.459 1.90439 142.211 2.62137C140.338 7.90911 138.443 13.1744 136.571 18.4622C136.526 18.5742 136.503 18.6638 136.345 18.6638C133.503 18.6638 130.638 18.6638 127.796 18.6638C127.773 18.6638 127.773 18.6638 127.705 18.6414C127.277 14.8997 126.848 11.1355 126.397 7.37137C126.374 7.37137 126.352 7.37137 126.329 7.37137C126.307 7.46099 126.262 7.52821 126.239 7.61783C124.953 11.2251 123.667 14.8325 122.381 18.4398C122.336 18.5742 122.314 18.6638 122.133 18.6638C119.742 18.6638 117.328 18.6638 114.937 18.6638C114.914 18.6638 114.869 18.6638 114.824 18.6638C115.027 18.1261 115.208 17.5884 115.388 17.0506C117.351 11.5612 119.291 6.09425 121.253 0.604861C121.321 0.425615 121.389 0.358398 121.592 0.358398C124.412 0.358398 127.209 0.358398 130.029 0.358398C130.119 0.358398 130.187 0.358398 130.3 0.358398C130.683 4.12255 131.067 7.8867 131.427 11.6284C131.45 11.6284 131.473 11.6284 131.473 11.6509C131.495 11.5836 131.54 11.5164 131.563 11.4492C132.555 8.6709 133.548 5.8926 134.541 3.11429C134.834 2.28528 135.15 1.43387 135.443 0.604861C135.511 0.425615 135.578 0.358398 135.781 0.358398C138.195 0.358398 140.586 0.358398 143 0.358398C143 0.40321 143 0.448021 143 0.492832Z" fill="black"/>
<path d="M0 18.664C0 18.6416 0 18.5968 0 18.5744C0.0225588 18.5072 0.0676763 18.4624 0.0902351 18.3951C2.03029 12.973 3.94778 7.5508 5.88784 2.12863C6.09087 1.52368 6.31645 0.941134 6.54204 0.336182C6.65484 0.336182 6.76763 0.336182 6.85786 0.336182C10.3319 0.336182 13.8285 0.336182 17.3026 0.336182C18.2952 0.336182 19.2877 0.380993 20.2803 0.44821C21.318 0.515427 22.3557 0.717078 23.3258 1.12038C24.5665 1.63571 25.4463 2.48713 25.6719 3.85387C25.8072 4.63807 25.7395 5.44467 25.5591 6.20646C25.0177 8.55906 24.2056 10.7996 23.1227 12.9506C21.882 15.3928 19.9419 17.0508 17.3026 17.8798C15.6332 18.3951 13.9188 18.6192 12.1592 18.6192C8.12116 18.664 4.06058 18.664 0 18.664ZM9.22653 15.2359C10.1966 15.2135 11.0989 15.2135 12.0238 15.1463C12.9487 15.0791 13.7383 14.6982 14.3023 13.9364C14.5504 13.6003 14.776 13.2418 14.9565 12.8834C15.7009 11.4046 16.2198 9.83618 16.7612 8.26779C17.077 7.32675 17.3928 6.38571 17.483 5.37745C17.5507 4.59326 17.2123 4.12274 16.4679 3.92109C16.3777 3.89868 16.2649 3.87628 16.1746 3.87628C15.3174 3.85387 14.4602 3.83146 13.6029 3.78665C13.3548 3.76425 13.2871 3.87628 13.2194 4.07793C12.1817 6.96826 11.144 9.85859 10.1289 12.7489C9.83562 13.5555 9.54236 14.3621 9.22653 15.2359Z" fill="black"/>
<path d="M35.1914 19.0001C33.9281 19.0001 32.6873 19.0001 31.4241 19.0001C31.1534 18.9776 30.8826 18.9328 30.6119 18.9104C29.5066 18.7984 28.4012 18.6192 27.386 18.171C26.1227 17.6333 25.2204 16.7819 24.882 15.4376C24.679 14.5861 24.7015 13.7347 24.8369 12.8833C25.2655 10.4187 26.1227 8.13331 27.3409 5.95996C28.5591 3.80902 30.251 2.19581 32.5746 1.23237C34.1537 0.582602 35.8005 0.268923 37.4924 0.112084C37.8307 0.0896779 38.1691 0.0448666 38.5075 0.0224609C39.5678 0.0224609 40.6055 0.0224609 41.6657 0.0224609C41.9816 0.0448666 42.2974 0.0896779 42.6132 0.112084C43.8088 0.224112 45.0044 0.403357 46.1098 0.896282C47.3957 1.45642 48.2755 2.33024 48.5687 3.71939C48.7492 4.57081 48.7266 5.42222 48.5687 6.25123C48.1401 8.62623 47.3054 10.8668 46.1324 12.9729C45.0947 14.8102 43.7186 16.3338 41.8236 17.342C40.1994 18.2159 38.4173 18.6416 36.59 18.8656C36.1163 18.9104 35.6651 18.9552 35.1914 19.0001ZM34.4695 15.796C35.3493 15.796 36.1614 15.6168 36.7705 14.967C37.1765 14.5413 37.5375 14.026 37.7856 13.5107C38.9136 11.1581 39.7482 8.69345 40.4701 6.20642C40.6506 5.60147 40.7859 4.99652 40.7183 4.34675C40.6732 3.83142 40.3799 3.47293 39.861 3.3609C39.5678 3.29369 39.2745 3.27128 38.9812 3.24888C37.6954 3.18166 36.6803 3.67458 36.026 4.79487C35.823 5.10855 35.6425 5.44463 35.4846 5.78071C34.4921 7.97647 33.7025 10.2394 33.0032 12.5472C32.8001 13.2194 32.6197 13.8916 32.6648 14.5861C32.6873 15.2135 32.9806 15.5496 33.5897 15.7064C33.883 15.7512 34.1762 15.7512 34.4695 15.796Z" fill="black"/>
<path d="M61.6538 0C62.6915 0 63.7292 0 64.7669 0C65.1053 0.0224057 65.4437 0.067217 65.7595 0.0896226C66.91 0.201651 68.0379 0.380896 69.1208 0.829009C70.4968 1.38915 71.4217 2.30778 71.715 3.80896C71.8729 4.68278 71.8278 5.5566 71.6699 6.40802C71.2638 8.55896 70.5194 10.6203 69.4817 12.5472C68.4891 14.4516 67.1356 16.0425 65.2632 17.1403C63.5487 18.1486 61.6764 18.5967 59.7137 18.8208C59.2626 18.8656 58.8114 18.9104 58.3377 18.9776C57.0744 18.9776 55.8336 18.9776 54.5703 18.9776C54.2996 18.9552 54.0064 18.9104 53.7357 18.888C52.5401 18.7535 51.367 18.5519 50.2616 18.0366C49.0434 17.4764 48.2539 16.5578 47.9832 15.2358C47.8253 14.4292 47.8478 13.6002 47.9832 12.7936C48.3892 10.4186 49.2239 8.20047 50.397 6.09434C51.6151 3.92099 53.3071 2.21816 55.6306 1.23231C57.2323 0.560141 58.9016 0.246462 60.6387 0.0896226C60.9545 0.067217 61.2929 0.0224057 61.6538 0ZM57.5932 15.796C58.9016 15.8184 59.8717 15.2583 60.5259 14.1604C60.6612 13.9139 60.8191 13.6899 60.9319 13.4434C62.0147 11.158 62.8043 8.76061 63.5487 6.3408C63.7292 5.73585 63.8871 5.10849 63.8646 4.45873C63.842 3.83137 63.5487 3.45047 62.9396 3.31604C62.6689 3.24882 62.3982 3.24882 62.1275 3.22641C60.8417 3.1592 59.8265 3.65212 59.1723 4.77241C58.9693 5.1309 58.7437 5.46698 58.5858 5.84788C57.5707 8.08844 56.7811 10.3962 56.0818 12.7264C55.9013 13.3762 55.7434 14.0259 55.8111 14.6981C55.8788 15.191 56.1495 15.5271 56.6232 15.6616C56.939 15.7288 57.2774 15.7512 57.5932 15.796Z" fill="black"/>
<path d="M86.8508 0C87.1892 0.0224057 87.5502 0.067217 87.8886 0.0896226C89.1293 0.201651 90.3475 0.380896 91.498 0.896226C92.4454 1.32193 93.1673 1.92689 93.4155 2.97995C93.5734 3.65212 93.4831 4.30189 93.3252 4.95165C93.1448 5.64623 93.1448 5.64623 92.4229 5.64623C90.2572 5.64623 88.0916 5.64623 85.9259 5.64623C85.8357 5.64623 85.7455 5.64623 85.6327 5.64623C85.6552 5.5566 85.6778 5.48939 85.7004 5.42217C85.7455 5.26533 85.8131 5.1309 85.8583 4.97406C86.1064 4.05542 85.7004 3.40566 84.7529 3.27123C83.6249 3.11439 82.5647 3.31604 81.6623 4.10024C81.5495 4.18986 81.4593 4.30189 81.3916 4.41392C80.8728 5.1309 81.0081 5.82547 81.7526 6.3408C82.4068 6.76651 83.1512 6.99057 83.8956 7.21462C85.2266 7.59552 86.5576 7.95401 87.866 8.35731C88.7232 8.62618 89.5579 9.00708 90.2798 9.56722C91.34 10.4186 91.701 11.5165 91.3626 12.7936C90.8663 14.7877 89.603 16.1993 87.8434 17.1851C86.4222 17.9693 84.8882 18.395 83.3091 18.6415C82.3617 18.7759 81.4142 18.8432 80.4667 18.9552C80.4216 18.9552 80.3765 18.9776 80.3314 19C78.9553 19 77.6017 19 76.2257 19C76.1805 18.9776 76.158 18.9552 76.1129 18.9552C75.5263 18.9104 74.9398 18.8656 74.3758 18.7983C73.2705 18.6639 72.2102 18.4399 71.1951 17.9245C69.9092 17.2748 69.3678 16.2889 69.5708 14.8774C69.6385 14.3844 69.8415 13.9139 69.9543 13.4434C69.9994 13.2417 70.1122 13.1969 70.2927 13.1969C72.6839 13.1969 75.0752 13.1969 77.489 13.1969C77.5792 13.1969 77.6694 13.1969 77.7822 13.1969C77.692 13.4882 77.6018 13.7347 77.5341 14.0035C77.3085 14.8774 77.6469 15.4599 78.5267 15.6616C79.5869 15.8856 80.6246 15.796 81.5947 15.2583C82.091 14.9894 82.4744 14.6085 82.7 14.0708C82.9256 13.5106 82.7903 13.0401 82.3391 12.6368C81.8654 12.2335 81.2788 12.0094 80.6923 11.8302C79.3839 11.4493 78.0529 11.0908 76.7445 10.6875C75.7294 10.3738 74.7593 9.99292 73.9247 9.29835C73.1351 8.64858 72.7742 7.81958 72.8644 6.78891C72.9321 6.16156 73.1126 5.60142 73.3833 5.04127C74.2179 3.29363 75.594 2.15094 77.331 1.36675C79.0455 0.582547 80.8502 0.246462 82.7 0.0896226C83.0384 0.067217 83.3542 0.0224057 83.6926 0C84.7529 0 85.7906 0 86.8508 0Z" fill="black"/>
<path d="M112.906 0.358587C113.222 6.45293 113.538 12.5473 113.854 18.6416C111.011 18.6416 108.191 18.6416 105.326 18.6416C105.439 17.5885 105.529 16.5355 105.642 15.46C105.552 15.46 105.484 15.46 105.394 15.46C103.431 15.46 101.469 15.46 99.5062 15.46C99.3258 15.46 99.2355 15.5272 99.1679 15.6617C98.6039 16.6027 98.0174 17.5437 97.4534 18.4848C97.3857 18.5968 97.2955 18.6416 97.1601 18.6416C94.4531 18.6416 91.746 18.6416 89.039 18.6416C88.9939 18.6416 88.9262 18.6416 88.8359 18.6416C89.2194 18.1487 89.5578 17.7006 89.8962 17.2525C94.1598 11.6734 98.4234 6.11684 102.687 0.537833C102.777 0.425804 102.845 0.336182 103.025 0.336182C106.274 0.336182 109.522 0.336182 112.771 0.336182C112.771 0.336182 112.816 0.358587 112.906 0.358587ZM106.567 4.14514C106.545 4.14514 106.522 4.12274 106.499 4.12274C104.853 6.69939 103.206 9.25363 101.559 11.8527C103.071 11.8527 104.514 11.8527 106.003 11.8527C106.184 9.25363 106.364 6.69939 106.567 4.14514Z" fill="black"/>
</svg>
