<svg width="199" height="34" viewBox="0 0 199 34" fill="none" xmlns="http://www.w3.org/2000/svg">
<path fill-rule="evenodd" clip-rule="evenodd" d="M12.7801 20.853C11.2106 21.2454 5.21254 22.5347 4.14747 22.8711L3.86719 26.9632C5.10043 23.3195 11.8272 21.3015 12.7801 20.853Z" fill="white"/>
<path fill-rule="evenodd" clip-rule="evenodd" d="M9.5293 2.6909C11.1549 1.34555 18.3301 2.29851 19.3952 2.74696L18.3301 4.98921C17.6575 2.91513 11.3792 2.13034 9.5293 2.6909Z" fill="white"/>
<path fill-rule="evenodd" clip-rule="evenodd" d="M0 26.907C5.2693 36.1563 22.1983 35.0912 23.6558 23.3194C24.3285 17.9941 20.853 13.3414 17.5456 10.987C25.6738 20.0681 19.9 31.7839 10.2023 31.1673C5.32535 30.887 2.01803 29.0932 0 26.907ZM15.4715 4.76476C14.2383 3.4194 8.63268 3.30729 6.44648 3.53152C6.61465 2.80278 6.89493 2.018 7.39944 1.12109C3.53155 2.85884 4.31634 7.00701 6.72676 9.97799C8.96901 12.8369 11.2113 15.2473 12.893 17.5456L7.62366 20.2363C9.47352 19.8439 12.5566 18.3864 14.1823 19.3394C15.5837 21.5256 16.4245 23.5436 16.2563 25.6738C17.9941 22.0301 12.8369 13.7338 10.3704 11.0991C8.46451 8.96898 7.0631 7.45546 6.55859 5.88588C7.67972 3.97997 13.7338 3.97997 15.4715 4.76476ZM12.1082 5.71771C10.987 5.94194 9.47352 7.28729 9.69775 8.40842C9.92197 9.52954 11.8839 9.47349 13.0051 9.24926C14.1262 9.02504 15.4155 7.56757 15.1913 6.39039C14.967 5.26926 13.2293 5.49349 12.1082 5.71771Z" fill="white"/>
<path fill-rule="evenodd" clip-rule="evenodd" d="M3.86746 27.0192C2.41 21.5817 8.01563 16.0321 11.6593 12.8369C17.2089 8.07211 19.6754 5.82986 17.2649 0C22.1418 2.97099 20.348 8.40845 16.7044 11.9961C8.91254 19.6758 4.37197 20.4045 3.86746 27.0192Z" fill="white"/>
<path d="M197.402 12.048V6.73311L195.348 10.6813H194.512L192.458 6.73311V12.048H190.861V3.92383H192.534L194.892 8.55534L197.326 3.92383H198.999V11.972H197.402V12.048ZM165.609 16.2998V30.1185H161.425V8.55534H164.696L175.953 22.7536V8.63127H180.136V30.1944H176.713L165.609 16.2998ZM152.755 30.1185V8.55534H156.938V30.1185H152.755ZM145.225 19.3369C145.225 18.2739 145.072 17.3628 144.768 16.4517C144.464 15.6165 144.084 14.8572 143.551 14.1739C143.019 13.5665 142.334 13.035 141.498 12.7313C140.661 12.3517 139.824 12.1998 138.759 12.1998H135.109V26.3981H138.759C139.824 26.3981 140.737 26.2462 141.498 25.8666C142.334 25.4869 142.943 25.0314 143.475 24.348C144.008 23.7406 144.388 22.9814 144.692 22.0703C145.072 21.311 145.225 20.3239 145.225 19.3369ZM130.925 30.1185V8.55534H138.759C140.509 8.55534 142.106 8.85905 143.399 9.39053C144.692 9.92202 145.833 10.7572 146.746 11.6683C147.659 12.6554 148.343 13.7943 148.723 15.085C149.18 16.3758 149.408 17.8184 149.408 19.261C149.408 20.9314 149.18 22.374 148.647 23.7406C148.115 25.0314 147.43 26.1703 146.518 27.1573C145.605 28.0684 144.464 28.8277 143.171 29.3592C141.878 29.8907 140.433 30.1185 138.759 30.1185H130.925ZM122.254 30.1185V8.55534H126.438V30.1185H122.254ZM106.206 19.261H111.454C111.834 19.261 112.214 19.185 112.519 18.9573C112.823 18.8054 113.127 18.5017 113.355 18.198C113.584 17.8943 113.812 17.5147 113.964 17.0591C114.116 16.6035 114.192 16.148 114.192 15.6924C114.192 15.1609 114.116 14.7054 113.964 14.3258C113.812 13.8702 113.584 13.5665 113.279 13.1869C112.975 12.8832 112.671 12.6554 112.367 12.4276C111.986 12.2757 111.682 12.1998 111.302 12.1998H106.206V19.261ZM102.022 30.1185V8.55534H111.606C112.595 8.55534 113.507 8.78312 114.344 9.16275C115.181 9.54239 115.941 10.1498 116.55 10.8331C117.158 11.5165 117.615 12.2757 117.995 13.1109C118.375 13.9461 118.527 14.8572 118.527 15.6924C118.527 17.0591 118.147 18.3499 117.463 19.4888C116.778 20.6276 115.789 21.4628 114.648 21.9943L119.592 30.1185H114.877L110.465 22.9054H106.358V30.1185H102.022ZM92.5149 21.8425L89.5485 13.3387L86.4301 21.8425H92.5149ZM87.7231 8.55534H91.45L99.6645 30.1185H95.3291L93.3515 24.7277H85.8216L83.844 30.1185H79.5086L87.7231 8.55534ZM72.8153 30.1185V15.8443L67.2629 26.474H64.9811L59.4287 15.8443V30.1185H55.2454V8.55534H59.7329L66.122 20.8554L72.5871 8.55534H77.0747V30.1185H72.8153ZM35.1655 19.3369C35.1655 20.248 35.3176 21.1591 35.6219 22.0703C35.9261 22.9054 36.3064 23.7406 36.8388 24.348C37.3713 25.0314 38.0558 25.5629 38.8164 25.9425C39.577 26.3221 40.4897 26.5499 41.4785 26.5499C42.4673 26.5499 43.38 26.3221 44.1406 25.9425C44.9012 25.5629 45.5858 24.9555 46.1182 24.2721C46.6506 23.5888 47.0309 22.8295 47.3351 21.9184C47.6394 21.0832 47.7154 20.1721 47.7154 19.261C47.7154 18.3499 47.5633 17.4387 47.2591 16.5276C46.9548 15.6924 46.5745 14.8572 46.0421 14.2498C45.5097 13.5665 44.8251 13.035 44.0645 12.6554C43.3039 12.2757 42.3912 12.048 41.4024 12.048C40.4137 12.048 39.5009 12.2757 38.6643 12.6554C37.9037 13.035 37.2191 13.6424 36.6867 14.3258C36.1543 15.0091 35.774 15.7684 35.4697 16.6035C35.3176 17.5906 35.1655 18.5017 35.1655 19.3369ZM41.4024 30.2703C39.8052 30.2703 38.36 29.9666 37.067 29.3592C35.774 28.7518 34.7091 27.9166 33.7204 26.9295C32.8076 25.9425 32.047 24.7277 31.5907 23.4369C31.0583 22.1462 30.8301 20.7795 30.8301 19.4128C30.8301 17.9702 31.1343 16.6035 31.6667 15.3128C32.1992 14.022 32.9598 12.8072 33.8725 11.8202C34.8613 10.7572 36.0022 9.92202 37.2952 9.31461C38.5882 8.70719 40.0334 8.40349 41.5546 8.40349C43.1518 8.40349 44.5209 8.7072 45.8139 9.39053C47.107 9.99794 48.1718 10.8331 49.0845 11.8961C49.9972 12.9591 50.6818 14.098 51.2142 15.3887C51.7466 16.6795 51.9748 18.0461 51.9748 19.4128C51.9748 20.8554 51.7466 22.2221 51.2142 23.5129C50.6818 24.8036 49.9212 25.9425 49.0085 27.0055C48.0957 27.9925 46.9548 28.8277 45.6618 29.4351C44.3688 29.9666 42.9236 30.2703 41.4024 30.2703ZM189.796 5.2905H187.21V11.972H185.613V5.2905H183.026V3.92383H189.796V5.2905Z" fill="white"/>
</svg>
