<svg width="147" height="134" viewBox="0 0 147 134" fill="none" xmlns="http://www.w3.org/2000/svg">
<path d="M147 0H0V134H147V0Z" fill="#D31920"/>
<path d="M75.0969 76.1821C66.1509 76.1821 58.9269 68.9706 58.9689 59.9981C59.0109 51.0257 66.3189 43.7722 75.4329 43.9399C84.0429 44.1076 91.2669 50.9837 91.2669 60.082C91.2669 69.3899 83.6649 76.266 75.0969 76.1821ZM75.1389 47.1683C68.1249 47.1264 62.3709 52.7866 62.2029 59.7885C62.0349 67 67.8309 73.0375 75.1389 73.0375C82.2369 73.0795 88.0749 67.2096 88.0749 60.2078C88.0749 52.9962 82.2789 47.1683 75.1389 47.1683Z" fill="white"/>
<path d="M97.7773 60.082C97.7773 55.3442 97.7773 50.6064 97.7773 45.8686C97.7773 45.4493 97.8193 45.03 98.0713 44.6527C98.4073 44.2334 98.8273 43.9818 99.3733 43.9818C104.413 43.9818 109.411 43.8141 114.451 44.0238C120.667 44.2334 125.329 47.2522 128.311 52.7447C129.571 55.0507 130.117 57.5663 130.117 60.2078C130.117 64.9875 130.117 69.8091 130.117 74.5889C130.117 75.2597 129.823 75.7628 129.235 76.0563C128.647 76.3498 128.059 76.3079 127.555 75.9305C127.051 75.5532 126.925 75.0501 126.925 74.4631C126.925 71.1508 126.925 67.8386 126.925 64.5682C126.925 63.0588 126.925 61.5494 126.925 59.9981C126.883 56.0569 125.287 52.7866 122.305 50.229C120.373 48.5939 118.105 47.6295 115.627 47.2941C115.165 47.2522 114.703 47.2103 114.199 47.2103C109.957 47.2103 105.715 47.2103 101.473 47.2103C101.053 47.2103 101.053 47.2103 101.053 47.6715C101.053 56.6439 101.053 65.5745 101.053 74.5469C101.053 75.3855 100.675 75.9725 99.9613 76.1821C98.9953 76.5175 97.9873 75.8467 97.9033 74.7985C97.9033 74.5889 97.9033 74.4212 97.9033 74.2115C97.7773 69.4737 97.7773 64.7779 97.7773 60.082Z" fill="white"/>
<path d="M20.1598 53.3317C20.1598 55.6377 20.1598 57.9437 20.1598 60.2497C20.2018 63.6458 21.4198 66.5807 23.7718 69.0544C25.7878 71.1927 28.3078 72.4506 31.2058 72.9118C31.9618 73.0375 32.7178 73.0375 33.4738 73.0795C36.0778 73.0795 38.6398 73.0795 41.2438 73.0795C42.0838 73.0795 42.6718 73.6245 42.7978 74.505C42.9238 75.1758 42.4198 75.9305 41.7058 76.1821C41.5378 76.224 41.3278 76.266 41.1598 76.266C38.3878 76.266 35.6158 76.3079 32.8438 76.266C25.6198 76.1821 19.1518 71.067 17.4718 64.0232C17.1778 62.7234 17.0098 61.3817 17.0098 60.0401C17.0098 55.2603 17.0098 50.4806 17.0098 45.659C17.0098 44.6527 17.8078 43.898 18.7738 43.9819C19.6558 44.0657 20.2438 44.7785 20.2438 45.7009C20.1598 48.2585 20.1598 50.7741 20.1598 53.3317Z" fill="white"/>
<path d="M112.309 64.9036C112.309 61.6752 112.309 58.4887 112.309 55.2603C112.309 54.5056 112.771 53.9186 113.485 53.709C114.157 53.5413 114.913 53.7929 115.249 54.4218C115.375 54.6733 115.459 54.9668 115.459 55.2603C115.459 61.7171 115.459 68.174 115.459 74.5889C115.459 75.5113 114.787 76.1821 113.863 76.1821C112.981 76.1821 112.309 75.5113 112.309 74.5889C112.309 71.3604 112.309 68.132 112.309 64.9036Z" fill="white"/>
<path d="M49.3096 64.9455C49.3096 61.7171 49.3096 58.4887 49.3096 55.2603C49.3096 54.5056 49.8136 53.8348 50.5276 53.709C51.2836 53.5413 51.9976 53.9186 52.2916 54.5895C52.3756 54.7991 52.4176 55.0088 52.4176 55.2184C52.4176 61.7171 52.4176 68.174 52.4176 74.6727C52.4176 75.5532 51.7456 76.224 50.8636 76.224C49.9816 76.224 49.2676 75.5532 49.2676 74.6727C49.3096 71.4024 49.3096 68.174 49.3096 64.9455Z" fill="white"/>
<path d="M49.3086 45.5751C49.3086 44.6947 49.9806 43.9819 50.9046 43.9819C51.7866 43.9819 52.5006 44.6947 52.5006 45.5751C52.5006 46.4556 51.7866 47.1684 50.9046 47.1684C49.9806 47.1684 49.3086 46.4556 49.3086 45.5751Z" fill="white"/>
<path d="M97.483 85.9931C98.155 86.4123 98.281 87.6702 97.735 88.2152C97.567 88.3829 97.315 88.4668 97.105 88.4668C96.349 88.5087 95.551 88.4668 94.795 88.4668C94.417 88.4668 94.291 88.2991 94.291 87.9637C94.291 86.7478 94.291 85.4899 94.291 84.2741C94.291 83.8548 94.459 83.6871 94.879 83.6871C95.593 83.6871 96.307 83.6871 97.021 83.6871C97.651 83.6871 97.987 84.0225 98.071 84.6933C98.071 84.8191 98.071 84.9449 98.071 85.0707C98.071 85.5738 97.945 85.7415 97.483 85.9931ZM95.971 88.1314C96.265 88.1314 96.559 88.1314 96.895 88.1314C97.273 88.1314 97.483 87.9217 97.567 87.5863C97.609 87.3347 97.609 87.0413 97.567 86.7478C97.525 86.4543 97.315 86.2027 96.979 86.2027C96.307 86.2027 95.593 86.1608 94.921 86.2027C94.837 86.2027 94.711 86.3285 94.711 86.4123C94.711 86.8735 94.711 87.3347 94.711 87.8379C94.711 88.0894 94.837 88.1733 95.089 88.1733C95.383 88.1314 95.677 88.1314 95.971 88.1314ZM95.887 85.8254C96.223 85.8254 96.601 85.8254 96.937 85.8254C97.441 85.7834 97.609 85.4899 97.609 84.861C97.609 84.3998 97.357 84.1063 96.895 84.1063C96.307 84.1063 95.677 84.1063 95.089 84.1063C94.837 84.1063 94.753 84.2321 94.711 84.4418C94.711 84.8191 94.711 85.1965 94.711 85.5738C94.711 85.7834 94.795 85.8254 95.005 85.8254C95.299 85.8254 95.593 85.8254 95.887 85.8254Z" fill="white"/>
<path d="M111.344 90.0601C111.176 90.0601 111.092 90.0601 110.924 90.0601C110.924 89.9343 110.924 89.8085 110.924 89.6827C110.924 87.9218 110.924 86.2028 110.924 84.4418C110.924 83.8968 111.134 83.6452 111.68 83.6452C112.268 83.6452 112.856 83.6452 113.444 83.7291C114.2 83.8548 114.62 84.358 114.788 85.0707C114.956 85.7835 114.914 86.4963 114.746 87.209C114.536 88.0056 113.948 88.4669 113.108 88.5088C112.646 88.5088 112.184 88.5088 111.722 88.5088C111.47 88.5088 111.344 88.5926 111.386 88.8442C111.344 89.2215 111.344 89.6408 111.344 90.0601ZM111.344 86.1189C111.344 86.7059 111.344 87.251 111.344 87.8379C111.344 88.0476 111.386 88.1314 111.638 88.1314C112.1 88.1314 112.52 88.1314 112.982 88.1314C113.696 88.0895 114.2 87.7122 114.284 86.9994C114.368 86.4543 114.368 85.8673 114.326 85.2804C114.242 84.5257 113.864 84.1483 113.192 84.0645C112.688 84.0225 112.142 84.0225 111.638 84.0225C111.428 84.0225 111.344 84.1903 111.344 84.3999C111.344 85.0288 111.344 85.5739 111.344 86.1189Z" fill="white"/>
<path d="M28.6036 90.0601C28.4356 90.0601 28.3516 90.0601 28.1836 90.0601C28.1836 89.9343 28.1836 89.8505 28.1836 89.7247C28.1836 87.9637 28.1836 86.2028 28.1836 84.4418C28.1836 83.9387 28.3936 83.7291 28.8976 83.7291C29.4856 83.7291 30.0736 83.7291 30.6616 83.8129C31.4176 83.8968 31.8796 84.3999 32.0056 85.1127C32.1736 85.8254 32.1316 86.5382 31.9636 87.251C31.7536 88.0895 31.1656 88.5088 30.3256 88.5507C29.8636 88.5507 29.3596 88.5507 28.8976 88.5507C28.6036 88.5507 28.5616 88.6346 28.5616 88.8861C28.6036 89.2635 28.6036 89.6408 28.6036 90.0601ZM28.6036 86.1609C28.6036 86.7478 28.6036 87.2929 28.6036 87.8799C28.6036 88.0895 28.6456 88.1734 28.8556 88.1734C29.3176 88.1734 29.7796 88.1734 30.2416 88.1734C30.9556 88.1314 31.4176 87.7541 31.5436 87.0833C31.6276 86.4963 31.6276 85.8674 31.5856 85.2804C31.5016 84.5676 31.1236 84.1903 30.4096 84.1483C29.9056 84.1064 29.4016 84.1064 28.9396 84.1483C28.6876 84.1483 28.6036 84.3161 28.6036 84.5257C28.6036 85.0288 28.6036 85.5739 28.6036 86.1609Z" fill="white"/>
<path d="M79.17 90.06C79.002 90.06 78.876 90.06 78.75 90.06C78.75 89.9343 78.75 89.8085 78.75 89.7246C78.75 87.9637 78.75 86.2446 78.75 84.4837C78.75 83.8967 78.96 83.6871 79.548 83.6871C80.01 83.6871 80.43 83.6871 80.892 83.6871C81.858 83.729 82.53 84.316 82.614 85.2384C82.656 85.8673 82.656 86.5381 82.572 87.1251C82.404 88.0475 81.816 88.4668 80.85 88.4668C80.388 88.4668 79.968 88.4668 79.506 88.4668C79.254 88.4668 79.17 88.5506 79.17 88.8022C79.212 89.2215 79.17 89.6408 79.17 90.06ZM79.17 86.1608C79.17 86.7058 79.17 87.2509 79.17 87.796V87.8379C79.128 88.0475 79.212 88.1314 79.464 88.1314C79.884 88.1314 80.346 88.1314 80.766 88.1314C81.522 88.1314 81.984 87.754 82.11 86.9993C82.194 86.4124 82.194 85.7834 82.11 85.1545C82.068 84.5256 81.648 84.1483 81.018 84.0644C80.514 84.0225 79.968 84.0225 79.464 84.0225C79.212 84.0225 79.17 84.1902 79.17 84.4418C79.212 85.0287 79.17 85.6157 79.17 86.1608Z" fill="white"/>
<path d="M126.588 84.0644C126.588 83.9387 126.588 83.8129 126.588 83.6871C127.47 83.6871 128.31 83.6452 129.15 83.6871C129.696 83.729 130.032 84.1483 130.032 84.7353C130.032 85.7835 130.032 86.8736 130.032 87.9217C130.032 88.2991 129.864 88.4668 129.486 88.4668C128.73 88.4668 127.974 88.4668 127.218 88.4668C126.756 88.4668 126.42 88.2572 126.294 87.796C126.126 87.3348 126.126 86.8316 126.252 86.3704C126.378 85.9092 126.756 85.6157 127.344 85.6157C127.932 85.6157 128.562 85.5738 129.15 85.6157C129.528 85.6157 129.612 85.49 129.57 85.1965C129.57 85.1545 129.57 85.1545 129.57 85.1126C129.57 84.2321 129.36 84.0225 128.52 84.0225C127.89 84.0644 127.26 84.0644 126.588 84.0644ZM128.31 88.1314C128.646 88.1314 128.982 88.1314 129.276 88.1314C129.486 88.1314 129.612 88.0475 129.612 87.796C129.612 87.2928 129.612 86.7897 129.612 86.2866C129.612 86.1189 129.57 86.035 129.36 86.035C128.688 86.035 128.016 86.035 127.386 86.035C127.008 86.035 126.756 86.2447 126.714 86.5801C126.672 86.9155 126.672 87.2509 126.714 87.5863C126.756 87.9637 127.008 88.1314 127.386 88.1314C127.722 88.1314 128.016 88.1314 128.31 88.1314Z" fill="white"/>
<path d="M37.0456 86.4543C37.0456 86.9155 37.0456 87.3767 37.0456 87.8798C37.0456 88.3829 36.8776 88.5506 36.3736 88.5506C35.7436 88.5506 35.0716 88.5506 34.4416 88.5506C33.6016 88.5506 33.2236 88.2152 33.1816 87.3767C33.1816 87.2509 33.1816 87.1251 33.1816 86.9993C33.1816 86.1189 33.6016 85.6996 34.4836 85.6996C35.0716 85.6996 35.6596 85.6996 36.2896 85.6996C36.5836 85.6996 36.6676 85.6157 36.6256 85.3222C36.6256 85.2384 36.6256 85.1545 36.6256 85.0707C36.6256 84.3579 36.3736 84.1063 35.6596 84.1063C35.0716 84.1063 34.4836 84.1063 33.8956 84.1063C33.7696 84.1063 33.6016 84.0225 33.6016 83.9386C33.5596 83.6871 33.7696 83.729 33.9376 83.729C34.5676 83.729 35.1556 83.729 35.7856 83.729C36.6676 83.729 37.0456 84.1063 37.0876 84.9868C37.0456 85.448 37.0456 85.9511 37.0456 86.4543ZM35.3656 86.035C35.0716 86.035 34.7356 86.035 34.4416 86.035C33.9376 86.035 33.7276 86.2446 33.6856 86.7478C33.6436 86.9993 33.6856 87.2928 33.6856 87.5444C33.7276 87.9217 33.9796 88.1314 34.3576 88.1314C34.9876 88.1314 35.5756 88.1314 36.2056 88.1314C36.4576 88.1314 36.5836 88.0475 36.5836 87.754C36.5836 87.2509 36.5836 86.7478 36.5836 86.2866C36.5836 86.0769 36.4996 85.9931 36.2896 85.9931C35.9956 86.035 35.7016 86.035 35.3656 86.035Z" fill="white"/>
<path d="M99.498 84.0644C99.498 83.8967 99.498 83.8129 99.498 83.729C99.54 83.729 99.582 83.6871 99.582 83.6871C100.38 83.6871 101.178 83.6871 101.934 83.6871C102.522 83.6871 102.942 84.0644 102.942 84.6514C102.984 85.7415 102.984 86.8735 102.942 87.9637C102.942 88.3829 102.774 88.5087 102.354 88.5087C101.64 88.5087 100.968 88.5087 100.254 88.5087C99.54 88.5087 99.162 88.1733 99.078 87.4605V87.4186C98.994 86.2866 99.162 85.5319 100.716 85.6157C101.22 85.6577 101.724 85.6157 102.186 85.6157C102.396 85.6157 102.48 85.5319 102.48 85.3222C102.48 85.1965 102.48 85.1126 102.48 84.9868C102.48 84.2741 102.228 84.0225 101.514 84.0225C100.884 84.0644 100.212 84.0644 99.498 84.0644ZM101.262 88.1314C101.598 88.1314 101.934 88.1314 102.228 88.1314C102.438 88.1314 102.564 88.0475 102.564 87.7959C102.564 87.2928 102.564 86.7897 102.564 86.2866C102.564 86.0769 102.48 85.9931 102.27 85.9931C101.64 85.9931 101.01 85.9931 100.38 85.9931C99.918 85.9931 99.666 86.1608 99.624 86.622C99.582 86.9155 99.624 87.209 99.666 87.5025C99.708 87.8798 99.96 88.0475 100.338 88.0894C100.632 88.1314 100.968 88.1314 101.262 88.1314Z" fill="white"/>
<path d="M60.3123 84.0644C60.3123 83.8967 60.3123 83.8129 60.3543 83.6871C61.2363 83.6871 62.0763 83.6452 62.9163 83.6871C63.5043 83.729 63.7983 84.1064 63.8403 84.6514C63.8823 85.7415 63.8823 86.8736 63.8403 87.9637C63.8403 88.341 63.6723 88.4668 63.2943 88.4668C62.6223 88.4668 61.9083 88.4668 61.2363 88.4668C60.4803 88.4668 60.1443 88.1733 60.0183 87.4606C60.0183 87.4186 60.0183 87.3767 60.0183 87.3767C59.9343 86.1608 60.1863 85.5319 61.6143 85.6157C62.1183 85.6577 62.6643 85.6157 63.1683 85.6157C63.3783 85.6157 63.4623 85.5319 63.4623 85.3223C63.4623 85.1545 63.4623 84.9868 63.4623 84.8611C63.4203 84.2741 63.1263 84.0225 62.5383 84.0225C61.7823 84.0644 61.0683 84.0644 60.3123 84.0644ZM62.0763 88.1314C62.3703 88.1314 62.7063 88.1314 63.0003 88.1314C63.2523 88.1314 63.3783 88.0056 63.3783 87.754C63.3783 87.2509 63.3783 86.7478 63.3783 86.2866C63.3783 86.0769 63.2943 85.9931 63.0843 85.9931C62.4123 85.9931 61.7823 85.9931 61.1103 85.9931C60.6903 85.9931 60.4803 86.2027 60.3963 86.622C60.3543 86.9155 60.3543 87.209 60.3963 87.5025C60.4383 87.8798 60.6903 88.0895 61.1103 88.0895C61.4883 88.1314 61.7823 88.1314 62.0763 88.1314Z" fill="white"/>
<path d="M88.2012 86.0351C88.2432 85.6577 88.2852 85.2804 88.3692 84.945C88.5792 84.1483 89.1252 83.7291 89.9232 83.6871C90.3852 83.6452 90.8472 83.6452 91.3512 83.6871C92.1492 83.7291 92.6952 84.2322 92.9052 84.9869C93.0732 85.6577 93.1152 86.3286 92.9472 86.9994C92.6952 88.0057 92.1912 88.4669 91.0572 88.5507C90.6372 88.5926 90.1752 88.5507 89.7552 88.4669C88.8732 88.2992 88.3692 87.6283 88.2852 86.6221C88.2852 86.4124 88.2852 86.2447 88.2852 86.0351C88.2432 86.077 88.2432 86.077 88.2012 86.0351ZM88.7052 86.1189C88.7472 86.2866 88.7052 86.4544 88.7472 86.6221C88.8312 87.4606 89.1672 87.9218 89.8392 88.0895C90.3852 88.2153 90.9312 88.2153 91.5192 88.0895C92.0652 87.9637 92.4432 87.5864 92.4852 87.0413C92.5272 86.4124 92.5272 85.7835 92.4852 85.1546C92.4432 84.5676 92.0652 84.1903 91.4772 84.1064C90.9732 84.0226 90.4272 84.0226 89.9232 84.1064C89.2512 84.1903 88.9152 84.6095 88.8312 85.2804C88.7472 85.5739 88.7052 85.8254 88.7052 86.1189Z" fill="white"/>
<path d="M77.5744 86.1189C77.4904 86.5801 77.4484 87.0413 77.2804 87.4606C77.0284 88.2572 76.3144 88.5507 75.5584 88.5927C75.0964 88.6346 74.6344 88.5927 74.1724 88.5088C73.5004 88.383 73.0384 87.9637 72.8704 87.2929C72.6604 86.5382 72.6604 85.7835 72.8704 85.0288C73.0384 84.358 73.4584 83.8968 74.1724 83.771C74.8024 83.6452 75.4324 83.6033 76.0624 83.771C76.9444 83.9807 77.4064 84.6096 77.4904 85.6158C77.4904 85.7835 77.4904 85.9512 77.4904 86.1189C77.5324 86.077 77.5324 86.077 77.5744 86.1189ZM77.0284 86.1189C77.0284 85.9932 77.0284 85.8674 77.0284 85.6997C76.9864 84.7353 76.6504 84.2322 75.8944 84.1064C75.3904 84.0226 74.8444 84.0226 74.3404 84.1064C73.7524 84.1903 73.3744 84.5676 73.2904 85.1546C73.2484 85.6158 73.2064 86.077 73.2064 86.5382C73.2904 87.6702 73.6684 88.0895 74.8024 88.1734C76.2304 88.2992 76.9024 87.838 77.0284 86.664C77.0704 86.4544 77.0284 86.2866 77.0284 86.1189Z" fill="white"/>
<path d="M20.0767 86.9574C20.2867 86.5382 20.4968 86.1608 20.6648 85.7835C21.2108 84.6934 21.7988 83.5613 22.3448 82.4293C22.4708 82.1358 22.6807 82.0519 23.0168 82.1358C22.7228 82.6808 22.4708 83.2259 22.2188 83.729C21.4628 85.1965 20.7067 86.664 19.9507 88.1314C19.8247 88.4249 19.6568 88.5507 19.2788 88.4249C19.4048 88.1733 19.5307 87.9218 19.6567 87.6702C19.7827 87.4606 19.7827 87.3348 19.6567 87.1252C18.8167 85.5738 17.9767 84.0225 17.1367 82.4712C17.0947 82.3454 17.0108 82.2196 16.9688 82.1358C17.3048 82.01 17.4727 82.1358 17.6407 82.4293C18.3547 83.8129 19.1107 85.1965 19.8667 86.5801C19.9507 86.7059 19.9927 86.8317 20.0767 86.9574Z" fill="white"/>
<path d="M50.4424 83.7291C50.6104 83.7291 50.7364 83.7291 50.8624 83.7291C50.8624 84.2741 50.8624 84.7773 50.8624 85.3223C50.8624 85.8254 50.8624 85.8254 51.3664 85.8254C51.9124 85.8254 52.4584 85.8254 53.0044 85.8254C54.0124 85.7835 54.3064 86.3286 54.3064 87.1671C54.3064 87.4187 54.2644 87.6702 54.1804 87.8799C54.0544 88.3411 53.7604 88.5507 53.2984 88.5507C52.5004 88.5507 51.6604 88.5507 50.8624 88.5507C50.5684 88.5507 50.4004 88.383 50.4004 88.1314C50.4424 86.6221 50.4424 85.1965 50.4424 83.7291ZM52.1644 86.1609C51.8284 86.1609 51.4924 86.1609 51.1564 86.1609C50.9464 86.1609 50.8624 86.2447 50.9044 86.4543C50.9044 86.9155 50.9044 87.3768 50.9044 87.838C50.9044 88.0476 50.9884 88.1734 51.2404 88.1734C51.8704 88.1734 52.5424 88.1734 53.1724 88.1734C53.5924 88.1734 53.8444 87.8799 53.8444 87.3768C53.8864 86.5382 53.7184 86.2447 53.2144 86.2028C53.1304 86.2028 53.0884 86.2028 53.0044 86.2028C52.7104 86.1609 52.4584 86.1609 52.1644 86.1609Z" fill="white"/>
<path d="M40.7833 88.4669C40.5733 88.5088 40.3633 88.5926 40.3633 88.2572C40.3633 86.7898 40.3633 85.2804 40.3633 83.8129C40.3633 83.771 40.3633 83.7291 40.4053 83.6871C40.4893 83.6871 40.6153 83.6871 40.7833 83.6452C40.7833 84.2322 40.7833 84.7772 40.7833 85.3642C40.7833 85.8254 40.7833 85.8254 41.2453 85.8254C42.0013 85.8254 42.7153 85.8254 43.4713 85.8254C43.7233 85.8254 43.8073 85.7416 43.8073 85.49C43.8073 84.903 43.8073 84.316 43.8073 83.6871C43.9753 83.6871 44.0593 83.6871 44.2273 83.6871C44.2273 85.2804 44.2273 86.8736 44.2273 88.4669C44.1013 88.4669 43.9753 88.4669 43.8073 88.4669C43.8073 87.8379 43.8073 87.209 43.8073 86.6221C43.8073 86.2866 43.7233 86.1608 43.3873 86.2028C42.6313 86.2447 41.9173 86.2028 41.1613 86.2028C40.9093 86.2028 40.8253 86.2866 40.8253 86.5382C40.7833 87.209 40.7833 87.8379 40.7833 88.4669Z" fill="white"/>
<path d="M120.205 83.7291C119.911 84.358 119.659 84.945 119.365 85.5739C118.735 86.9994 118.063 88.4249 117.433 89.8505C117.307 90.102 117.139 90.1859 116.887 90.0601C117.097 89.6408 117.265 89.2216 117.433 88.8442C117.517 88.6346 117.517 88.4669 117.433 88.2992C116.845 86.9575 116.257 85.5739 115.711 84.2322C115.669 84.1064 115.585 83.9806 115.543 83.8129C115.837 83.7291 116.005 83.771 116.131 84.0645C116.593 85.2385 117.097 86.4124 117.601 87.5864C117.643 87.7122 117.727 87.838 117.811 88.0057C117.895 87.838 117.937 87.7541 118.021 87.6283C118.567 86.4124 119.113 85.2384 119.617 84.0226C119.743 83.7291 119.911 83.6452 120.205 83.7291Z" fill="white"/>
<path d="M124.909 88.5088C124.783 88.5088 124.699 88.5088 124.531 88.5088C124.531 88.3411 124.489 88.2153 124.489 88.0895C124.489 86.9155 124.489 85.7835 124.489 84.6095C124.489 84.1064 124.447 84.1064 123.985 84.1064C123.313 84.1064 122.641 84.1064 121.969 84.1064C121.633 84.1064 121.549 84.2322 121.549 84.5257C121.549 85.6997 121.549 86.9155 121.549 88.0895C121.549 88.2153 121.549 88.3411 121.549 88.5088C121.381 88.5088 121.255 88.5088 121.129 88.5088C121.129 88.4249 121.129 88.2991 121.129 88.2153C121.129 86.9994 121.129 85.7416 121.129 84.5257C121.129 83.8549 121.255 83.7291 121.927 83.7291C122.725 83.7291 123.523 83.7291 124.321 83.7291C124.783 83.7291 124.951 83.8968 124.951 84.358C124.951 85.6577 124.951 86.9575 124.951 88.2572C124.909 88.2991 124.909 88.383 124.909 88.5088Z" fill="white"/>
<path d="M67.2012 82.5132C67.2012 82.3454 67.2012 82.2616 67.2432 82.1358C69.1752 82.1358 71.1072 82.1358 73.0392 82.1358C73.0392 82.2616 73.0392 82.3454 73.0392 82.5132C72.5772 82.5132 72.1152 82.5132 71.6952 82.5132C71.2752 82.5132 70.8552 82.5551 70.4352 82.5551C70.4352 82.9744 70.3932 83.3936 70.3932 83.8129C70.3932 85.1965 70.3932 86.622 70.3932 88.0057C70.3932 88.1314 70.3932 88.2572 70.3932 88.4249C70.2252 88.4249 70.0992 88.4249 69.9312 88.4249C69.9312 88.2991 69.9312 88.1734 69.9312 88.0476C69.9312 86.3286 69.9312 84.5676 69.9312 82.8486C69.9312 82.5551 69.8472 82.4712 69.5532 82.4712C68.7552 82.5132 67.9992 82.5132 67.2012 82.5132Z" fill="white"/>
<path d="M49.1826 88.1734C49.1826 88.2991 49.1826 88.383 49.1826 88.5088C48.3846 88.5088 47.6286 88.5926 46.8726 88.5088C46.0746 88.4249 45.5706 87.8379 45.4866 86.9994C45.4446 86.4543 45.4446 85.8674 45.5286 85.2804C45.6546 84.2741 46.3266 83.771 47.2926 83.7291C47.7966 83.7291 48.3426 83.7291 48.8466 83.7291C48.9306 83.7291 49.0146 83.8549 49.0986 83.8968C49.0146 83.9806 48.9306 84.0645 48.8466 84.0645C48.2586 84.1064 47.6706 84.0645 47.0826 84.1483C46.4106 84.2322 46.0326 84.6934 45.9906 85.3642C45.9486 85.8674 45.9486 86.3705 45.9906 86.8317C46.0746 87.7122 46.5366 88.1314 47.4186 88.1314C47.9646 88.1734 48.4686 88.1314 49.0146 88.1314C49.0566 88.1314 49.0986 88.1734 49.1826 88.1734Z" fill="white"/>
<path d="M107.226 85.4899C107.226 84.6095 107.226 83.7709 107.226 82.8904C107.226 82.3454 107.436 82.1357 107.982 82.1357C109.158 82.1357 110.292 82.1357 111.468 82.1357C111.594 82.1357 111.762 82.0938 111.762 82.3454C111.762 82.5969 111.594 82.5131 111.426 82.5131C110.376 82.5131 109.284 82.5131 108.234 82.5131C107.73 82.5131 107.646 82.5969 107.646 83.1001C107.646 84.6933 107.646 86.2866 107.646 87.8379C107.646 87.9217 107.646 88.0475 107.646 88.1314C107.646 88.2991 107.73 88.5087 107.436 88.4668C107.142 88.4668 107.226 88.2572 107.226 88.0894C107.226 87.2509 107.226 86.3704 107.226 85.4899Z" fill="white"/>
<path d="M84.378 88.5087C84.21 88.5087 84.084 88.5087 83.958 88.5087C83.958 88.3829 83.916 88.2991 83.916 88.2152C83.916 86.9155 83.916 85.6577 83.916 84.3579C83.916 83.8129 84.042 83.6871 84.588 83.6871C85.554 83.6871 86.52 83.6871 87.528 83.6871C87.528 83.8129 87.528 83.8967 87.57 84.0644C87.192 84.0644 86.814 84.0644 86.478 84.0644C85.932 84.0644 85.386 84.0644 84.84 84.0644C84.504 84.0644 84.42 84.1902 84.42 84.5256C84.378 85.8254 84.378 87.1251 84.378 88.5087Z" fill="white"/>
<path d="M59.0535 83.7291C58.4235 84.358 57.7935 84.903 57.2055 85.49C57.1215 85.532 57.0795 85.6158 56.9955 85.6577C56.6595 85.9932 56.6595 86.077 56.9955 86.4124C57.6675 87.0413 58.3395 87.6703 58.9695 88.2992C59.0115 88.3411 59.0535 88.4249 59.1375 88.4669C58.7595 88.5507 58.5075 88.4669 58.2555 88.2153C57.7515 87.6703 57.1635 87.2091 56.6595 86.7059C56.1135 86.2028 56.1135 85.9093 56.6595 85.3642C57.1635 84.903 57.6675 84.4418 58.1715 83.9806C58.5075 83.6871 58.5075 83.6871 59.0535 83.7291Z" fill="white"/>
<path d="M27.0497 83.7291C26.4197 84.316 25.7897 84.903 25.1597 85.49C25.0757 85.5319 25.0337 85.6158 24.9497 85.6577C24.6557 85.9512 24.6557 86.0351 24.9497 86.3286C25.6217 86.9575 26.2937 87.5864 26.9657 88.2153C27.0497 88.2572 27.0917 88.3411 27.2177 88.4249C26.8397 88.5088 26.5877 88.4669 26.3357 88.2153C25.7897 87.6702 25.1597 87.1252 24.6137 86.5801C24.1517 86.1609 24.1517 85.8254 24.5717 85.4062C25.1597 84.8611 25.7477 84.2741 26.3357 83.771C26.4617 83.6452 26.7557 83.6452 26.9237 83.6033C27.0077 83.6871 27.0497 83.7291 27.0497 83.7291Z" fill="white"/>
<path d="M23.9835 88.5088C23.8575 88.5088 23.7315 88.5088 23.6055 88.5088C23.6055 86.9155 23.6055 85.3223 23.6055 83.7291C23.7315 83.7291 23.8575 83.7291 23.9835 83.7291C23.9835 85.3223 23.9835 86.8736 23.9835 88.5088Z" fill="white"/>
<path d="M55.6094 88.4669C55.6094 86.8736 55.6094 85.3223 55.6094 83.7291C55.9034 83.6452 55.9874 83.7291 55.9874 84.0226C55.9874 85.4062 55.9874 86.7898 55.9874 88.2153C55.9874 88.4669 55.9034 88.5927 55.6094 88.4669Z" fill="white"/>
<path d="M38.5137 83.729C38.7237 83.6871 38.8917 83.6451 38.8917 83.9386C38.8917 85.4061 38.8917 86.8735 38.8917 88.341C38.8917 88.3829 38.8917 88.4249 38.8497 88.5087C38.7237 88.5087 38.6397 88.5087 38.5137 88.5087C38.5137 86.9155 38.5137 85.3222 38.5137 83.729Z" fill="white"/>
<path d="M38.3458 83.1001C38.2198 83.1001 38.1358 83.1001 38.0098 83.1001C38.0098 82.8904 38.0098 82.6808 38.0098 82.4712C38.4298 82.3454 38.5138 82.5131 38.3458 83.1001Z" fill="white"/>
<path d="M39.3126 83.1001C39.1866 83.1001 39.1026 83.1001 38.9766 83.1001C38.9766 82.8905 38.9766 82.6808 38.9766 82.4712C39.3966 82.3454 39.4386 82.4712 39.3126 83.1001Z" fill="white"/>
</svg>
