<svg width="60" height="58" viewBox="0 0 60 58" fill="none" xmlns="http://www.w3.org/2000/svg">
<path d="M2.49609 2.47852H57.4059V55.5213H2.49609V2.47852Z" fill="#1F0040"/>
<path d="M0 0V58H59.9016V0H0ZM2.4959 2.47863H57.4057V55.5214H2.4959V2.47863ZM16.9222 32.8419L14.9505 40.253C14.9005 40.4513 14.8257 40.5256 14.5761 40.5256H10.9071C10.6575 40.5256 10.6076 40.4513 10.6575 40.1538L17.7459 15.541C17.8707 15.0949 17.9455 14.7479 17.9955 13.5085C17.9955 13.335 18.0703 13.2607 18.1951 13.2607H23.4365C23.6112 13.2607 23.6861 13.3103 23.736 13.5085L31.673 40.2034C31.7229 40.4017 31.673 40.5256 31.4733 40.5256H27.3551C27.1554 40.5256 27.0306 40.4513 26.9807 40.2778L24.9091 32.8419H16.9222ZM23.9357 28.8265C23.2368 26.0752 21.5396 20.0769 20.9157 17.1769H20.8657C20.3416 20.0769 18.9689 24.9846 17.9455 28.8265C17.9705 28.8265 23.9357 28.8265 23.9357 28.8265ZM37.3137 31.3547C37.3636 34.7009 38.961 36.9564 42.7548 36.9564C44.2274 36.9564 45.5003 36.7581 46.8231 36.188C46.9978 36.1137 47.1226 36.1385 47.1226 36.3615V39.4598C47.1226 39.7077 47.0477 39.8316 46.873 39.9556C45.5502 40.6 43.9029 40.8974 41.8563 40.8974C35.2671 40.8974 32.7961 36.0641 32.7961 30.6607C32.7961 24.8111 35.8411 20.0274 41.2073 20.0274C46.6484 20.0274 48.5453 24.5632 48.5453 28.2564C48.5453 29.4462 48.4704 30.4128 48.3456 30.8838C48.2957 31.0821 48.2208 31.1564 48.0211 31.206C47.522 31.2803 46.0494 31.3795 43.853 31.3795L37.3137 31.3547ZM42.3804 27.9342C43.6533 27.9342 44.1026 27.9342 44.2274 27.8846C44.2274 27.7111 44.2773 27.5872 44.2773 27.4632C44.2773 26.1248 43.6284 23.6462 41.0326 23.6462C38.6366 23.6462 37.6132 25.7282 37.3636 27.9342H42.3804Z" fill="#D291FF"/>
</svg>
