<svg width="59" height="58" viewBox="0 0 59 58" fill="none" xmlns="http://www.w3.org/2000/svg">
<path d="M2.45605 2.47852H56.4943V55.5213H2.45605V2.47852Z" fill="#261300"/>
<path d="M0 0V58H58.9508V0H0ZM2.45628 2.47863H56.4945V55.5214H2.45628V2.47863Z" fill="#FF7C00"/>
<path d="M20.4607 32.8419L18.5202 40.2778C18.4711 40.4761 18.3974 40.5256 18.1518 40.5256H14.5411C14.2954 40.5256 14.2463 40.4513 14.2954 40.1538L21.2713 15.5162C21.3941 15.0701 21.4678 14.6735 21.5169 13.459C21.5169 13.2855 21.5906 13.2111 21.7134 13.2111H26.8716C27.0436 13.2111 27.1172 13.2607 27.1664 13.459L34.9774 40.2034C35.0265 40.4017 34.9774 40.5256 34.7809 40.5256H30.7034C30.5069 40.5256 30.3841 40.4761 30.335 40.3026L28.2963 32.8419H20.4607ZM27.2892 28.8265C26.6014 26.0752 24.9803 20.0769 24.3662 17.1769H24.3171C23.8013 20.0769 22.4994 24.9846 21.4678 28.8265H27.2892ZM38.3425 15.0453C38.3425 13.459 39.4478 12.5171 40.8479 12.5171C42.3462 12.5171 43.3533 13.5333 43.3533 15.0453C43.3533 16.6812 42.2971 17.5735 40.7987 17.5735C39.3741 17.5735 38.3425 16.6812 38.3425 15.0453ZM38.6372 20.6718C38.6372 20.4735 38.7109 20.3744 38.932 20.3744H42.7883C42.9848 20.3744 43.0831 20.4487 43.0831 20.6718V40.2282C43.0831 40.4265 43.034 40.5256 42.7883 40.5256H38.9811C38.7355 40.5256 38.6618 40.4017 38.6618 40.2034V20.6718H38.6372Z" fill="#FF7C00"/>
</svg>
