<svg width="173" height="70" viewBox="0 0 173 70" fill="none" xmlns="http://www.w3.org/2000/svg">
<path d="M173.001 12.9165H146.392V21.4165H154.953V44.6665H164.355V21.4165H173.001V12.9165Z" fill="white"/>
<path d="M37.6051 13.1667H47.9297L53.4697 20.3333L68.1592 0H78.3999L46.5867 44.6667H36.9336L48.7691 27.75L37.6051 13.1667Z" fill="white"/>
<path d="M53.4697 20.3335L58.7579 27.6668L46.5867 44.6668H36.9336L48.7691 27.7502L53.4697 20.3335Z" fill="white"/>
<path d="M82.7644 44.4998H72.4398L66.8998 37.2498L52.2103 57.5832H41.8857L73.6989 12.9165L83.436 12.9998L71.5165 29.8332L82.7644 44.4998Z" fill="white"/>
<path d="M66.8998 37.25L52.2103 57.5833H41.8857L61.4437 30.25L66.8998 37.25Z" fill="white"/>
<path d="M23.8389 13.1665H12.0034L0 44.6665H11.2479L12.591 40.9998L23.755 40.9165L24.7622 44.5832H35.6744L23.8389 13.1665ZM15.1931 32.3332L17.7952 22.7498L20.985 32.4165L15.1931 32.3332Z" fill="white"/>
<path d="M99.1332 12.3335C89.3962 12.3335 81.5059 19.7502 81.5059 28.8335C81.5059 37.9168 89.3962 45.3335 99.1332 45.3335C108.87 45.3335 116.761 37.9168 116.761 28.8335C116.761 19.7502 108.87 12.3335 99.1332 12.3335ZM99.1332 36.9168C94.7683 36.9168 91.3268 33.3335 91.3268 28.9168C91.3268 24.5002 94.8523 20.9168 99.1332 20.9168C103.498 20.9168 106.94 24.5002 106.94 28.9168C107.024 33.3335 103.498 36.9168 99.1332 36.9168Z" fill="white"/>
<path d="M143.957 21.4998V13.1665H129.519H125.574H119.95V44.6665H129.519V32.8332H143.621V24.5832H129.519V21.4998H143.957Z" fill="white"/>
<path d="M27.5324 69.5835H26.8609V68.3335H23.0836V69.6668H22.4121V67.8335H22.6639C22.9997 67.8335 23.2515 67.5835 23.3354 67.1668C23.5033 66.7502 23.5873 66.0835 23.6712 65.2502L23.7551 63.0835H26.8609V67.7502H27.5324V69.5835ZM24.4267 65.1668C24.4267 65.7502 24.3427 66.2502 24.2588 66.7502C24.1748 67.1668 24.007 67.5002 23.8391 67.7502H26.1894V63.5835H24.5106L24.4267 65.1668Z" fill="white"/>
<path d="M30.6384 64.417H31.3099V68.3337H30.6384V65.5837L28.9596 68.3337H28.2881V64.417H28.9596V67.167L30.6384 64.417Z" fill="white"/>
<path d="M33.9122 67.8333C34.1641 67.8333 34.3319 67.75 34.4998 67.5833C34.6677 67.4167 34.7516 67.25 34.7516 67.0833H35.4232C35.4232 67.4167 35.2553 67.75 35.0035 68C34.6677 68.25 34.3319 68.4167 33.9962 68.4167C33.4925 68.4167 33.0728 68.25 32.7371 67.8333C32.4013 67.4167 32.3174 67 32.3174 66.4167V66.25C32.3174 65.6667 32.4853 65.25 32.7371 64.8333C33.0728 64.5 33.4086 64.25 33.9962 64.25C34.4159 64.25 34.7516 64.4167 35.0874 64.6667C35.3392 64.9167 35.5071 65.25 35.5071 65.6667H34.8356C34.8356 65.4167 34.7516 65.25 34.5838 65.0833C34.4159 64.9167 34.1641 64.9167 33.9122 64.9167C33.5765 64.9167 33.3247 65.0833 33.1568 65.3333C32.9889 65.5833 32.905 65.9167 32.905 66.3333V66.5C32.905 66.9167 32.9889 67.25 33.1568 67.5C33.3247 67.6667 33.5765 67.8333 33.9122 67.8333Z" fill="white"/>
<path d="M39.1165 65.0003H37.8574V68.3337H37.1859V65.0003H35.9268V64.417H39.1165V65.0003Z" fill="white"/>
<path d="M43.2288 66.5002C43.2288 67.0835 43.0609 67.5002 42.8091 67.8335C42.5573 68.1668 42.1376 68.3335 41.7179 68.3335C41.466 68.3335 41.2982 68.3335 41.1303 68.2502C40.9624 68.1668 40.7945 68.0835 40.7106 67.9168V69.8335H40.0391V64.4168H40.5427L40.6266 64.9168C40.7106 64.7502 40.8785 64.5835 41.1303 64.5002C41.2982 64.4168 41.55 64.3335 41.8018 64.3335C42.3054 64.3335 42.6412 64.5002 42.893 64.9168C43.0609 65.3335 43.2288 65.8335 43.2288 66.5002ZM42.4733 66.4168C42.4733 66.0002 42.3894 65.5835 42.2215 65.3335C42.0536 65.0835 41.8018 64.9168 41.466 64.9168C41.2982 64.9168 41.1303 65.0002 40.9624 65.0835C40.7945 65.1668 40.7106 65.3335 40.6266 65.5002V67.4168C40.7106 67.5835 40.7945 67.6668 40.9624 67.8335C41.1303 67.9168 41.2982 68.0002 41.466 68.0002C41.8018 68.0002 42.0536 67.9168 42.2215 67.6668C42.3894 67.2502 42.4733 66.9168 42.4733 66.4168Z" fill="white"/>
<path d="M46.5027 64.417H47.1742V68.3337H46.5027V65.5837L44.8239 68.3337H44.1523V64.417H44.8239V67.167L46.5027 64.417Z" fill="white"/>
<path d="M49.8603 64.3335C50.3639 64.3335 50.6997 64.5002 51.0355 64.9168C51.2873 65.2502 51.4552 65.7502 51.4552 66.3335V66.4168C51.4552 67.0002 51.2873 67.5002 50.9515 67.8335C50.6158 68.1668 50.1961 68.4168 49.6924 68.4168C49.1888 68.4168 48.7691 68.2502 48.4333 67.8335C48.0976 67.5002 47.9297 67.0002 47.9297 66.4168V66.3335C47.9297 66.3335 47.9297 66.3335 47.9297 66.2502C47.9297 66.1668 47.9297 66.2502 47.9297 66.1668V65.3335C47.9297 64.5835 48.0976 64.0835 48.3494 63.6668C48.6012 63.3335 49.1048 63.0835 49.6085 63.0835C49.9442 63.0835 50.1961 63.0002 50.3639 62.9168C50.5318 62.8335 50.6158 62.7502 50.6158 62.5835H51.1194C51.1194 63.0002 51.0355 63.2502 50.7836 63.4168C50.5318 63.5835 50.1121 63.6668 49.6085 63.6668C49.2727 63.6668 48.937 63.7502 48.7691 64.0002C48.6012 64.2502 48.4333 64.5002 48.4333 64.8335C48.6012 64.6668 48.7691 64.5002 48.937 64.4168C49.4406 64.4168 49.6085 64.3335 49.8603 64.3335ZM49.7764 64.9168C49.4406 64.9168 49.1888 65.0835 49.0209 65.3335C48.853 65.5835 48.7691 65.9168 48.7691 66.3335V66.4168C48.7691 66.8335 48.853 67.1668 49.0209 67.4168C49.1888 67.6668 49.4406 67.8335 49.7764 67.8335C50.1121 67.8335 50.3639 67.6668 50.5318 67.4168C50.6997 67.1668 50.7836 66.8335 50.7836 66.4168V66.3335C50.7836 65.9168 50.6997 65.5835 50.5318 65.3335C50.3639 65.0835 50.1121 64.9168 49.7764 64.9168Z" fill="white"/>
<path d="M53.3858 66.8337L53.4698 67.3337L54.3931 64.417H55.1486L53.5537 68.917C53.4698 69.167 53.3019 69.417 53.134 69.5837C52.9661 69.7503 52.7143 69.917 52.3786 69.917C52.2946 69.917 52.2107 69.917 52.1267 69.917C52.0428 69.917 51.9589 69.917 51.9589 69.917L52.0428 69.3337C52.0428 69.3337 52.0428 69.3337 52.2107 69.3337C52.3786 69.3337 52.3786 69.3337 52.3786 69.3337C52.5464 69.3337 52.6304 69.2503 52.7143 69.167C52.7982 69.0003 52.8822 68.917 52.9661 68.7503L53.134 68.3337L51.707 64.5003H52.4625L53.3858 66.8337Z" fill="white"/>
<path d="M55.9043 64.417H56.5758V67.7503H58.2546V64.417H58.9261V67.7503H59.4298V69.5837H58.7582V68.3337H55.9043V64.417Z" fill="white"/>
<path d="M62.6189 64.417H63.2904V68.3337H62.6189V65.5837L60.9401 68.3337H60.2686V64.417H60.9401V67.167L62.6189 64.417Z" fill="white"/>
<path d="M67.4035 64.417V68.3337H66.732V66.8337H65.8087L64.8853 68.3337H64.1299L65.1372 66.7503C64.8853 66.667 64.7175 66.5003 64.5496 66.3337C64.3817 66.167 64.3817 65.917 64.3817 65.667C64.3817 65.3337 64.5496 65.0003 64.8014 64.8337C65.0532 64.5837 65.389 64.5003 65.8926 64.5003H67.4035V64.417ZM65.0532 65.5837C65.0532 65.7503 65.1372 65.917 65.2211 66.0003C65.305 66.0837 65.4729 66.167 65.7247 66.167H66.732V64.917H65.8087C65.5569 64.917 65.389 65.0003 65.2211 65.0837C65.0532 65.2503 65.0532 65.417 65.0532 65.5837Z" fill="white"/>
<path d="M72.6921 64.417H73.3636V68.3337H72.6921V65.5837L71.0133 68.3337H70.3418V64.417H71.0133V67.167L72.6921 64.417Z" fill="white"/>
<path d="M79.3236 68.3337H78.6521V65.0003H76.9733V68.3337H76.3018V64.417H79.4075V68.3337H79.3236Z" fill="white"/>
<path d="M82.7653 68.3335C82.7653 68.2502 82.6813 68.0835 82.6813 68.0002C82.6813 67.9168 82.6813 67.8335 82.6813 67.7502C82.5134 67.9168 82.3456 68.0835 82.1777 68.2502C81.9259 68.4168 81.758 68.4168 81.5062 68.4168C81.0865 68.4168 80.8346 68.3335 80.5828 68.0835C80.415 67.8335 80.2471 67.5835 80.2471 67.2502C80.2471 66.9168 80.4149 66.5835 80.6668 66.3335C81.0025 66.0835 81.3383 66.0002 81.8419 66.0002H82.5974V65.5835C82.5974 65.3335 82.5134 65.1668 82.4295 65.0002C82.2616 64.8335 82.0937 64.8335 81.8419 64.8335C81.5901 64.8335 81.4222 64.9168 81.2544 65.0002C81.0865 65.0835 81.0865 65.2502 81.0865 65.4168H80.415C80.415 65.1668 80.4989 64.8335 80.8347 64.6668C81.0865 64.4168 81.5062 64.3335 81.9259 64.3335C82.3456 64.3335 82.6813 64.4168 83.0171 64.6668C83.2689 64.9168 83.4368 65.2502 83.4368 65.6668V67.5835C83.4368 67.7502 83.4368 67.8335 83.4368 68.0002C83.4368 68.1668 83.4368 68.2502 83.5207 68.4168H82.7653V68.3335ZM81.5901 67.8335C81.8419 67.8335 82.0937 67.7502 82.2616 67.6668C82.4295 67.5835 82.5974 67.4168 82.6813 67.2502V66.5835H81.9259C81.674 66.5835 81.4222 66.6668 81.2544 66.8335C81.0865 67.0002 81.0025 67.1668 81.0025 67.3335C81.0025 67.5002 81.0865 67.6668 81.1704 67.7502C81.1704 67.7502 81.3383 67.8335 81.5901 67.8335Z" fill="white"/>
<path d="M87.6331 66.5002C87.6331 67.0835 87.4652 67.5002 87.2134 67.8335C86.9616 68.1668 86.5419 68.3335 86.1222 68.3335C85.8703 68.3335 85.7025 68.3335 85.5346 68.2502C85.3667 68.1668 85.1988 68.0835 85.1149 67.9168V69.8335H84.4434V64.4168H84.947L85.0309 64.9168C85.1149 64.7502 85.2828 64.5835 85.5346 64.5002C85.7025 64.4168 85.9543 64.3335 86.2061 64.3335C86.7097 64.3335 87.0455 64.5002 87.2973 64.9168C87.5491 65.3335 87.6331 65.8335 87.6331 66.5002ZM86.9616 66.4168C86.9616 66.0002 86.8776 65.5835 86.7097 65.3335C86.5419 65.0835 86.29 64.9168 85.9543 64.9168C85.7864 64.9168 85.6185 65.0002 85.4506 65.0835C85.2828 65.1668 85.1988 65.3335 85.1149 65.5002V67.4168C85.1988 67.5835 85.2828 67.6668 85.4506 67.8335C85.6185 67.9168 85.7864 68.0002 85.9543 68.0002C86.29 68.0002 86.5419 67.9168 86.7097 67.6668C86.8776 67.2502 86.9616 66.9168 86.9616 66.4168Z" fill="white"/>
<path d="M91.4104 65.0003H90.1513V68.3337H89.4798V65.0003H88.1367V64.417H91.3264V65.0003H91.4104Z" fill="white"/>
<path d="M95.2718 68.3337H94.6003V66.667H92.9215V68.3337H92.25V64.417H92.9215V66.0837H94.6003V64.417H95.2718V68.3337Z" fill="white"/>
<path d="M97.8741 68.4168C97.2865 68.4168 96.8668 68.2502 96.615 67.9168C96.2792 67.5835 96.1113 67.0835 96.1113 66.5002V66.3335C96.1113 65.7502 96.2792 65.3335 96.615 64.9168C96.9507 64.5835 97.2865 64.3335 97.7901 64.3335C98.2938 64.3335 98.7135 64.5002 98.9653 64.8335C99.2171 65.1668 99.385 65.5835 99.385 66.1668V66.5835H96.9507C96.9507 67.0002 97.0347 67.3335 97.2025 67.5002C97.3704 67.7502 97.6222 67.8335 97.958 67.8335C98.2098 67.8335 98.3777 67.8335 98.5456 67.7502C98.7135 67.6668 98.8813 67.5835 98.9653 67.5002L99.2171 68.0002C99.0492 68.1668 98.8813 68.2502 98.7135 68.3335C98.4616 68.3335 98.2098 68.4168 97.8741 68.4168ZM97.7901 64.9168C97.5383 64.9168 97.3704 65.0002 97.2025 65.1668C97.0347 65.3335 96.9507 65.5835 96.9507 65.9168H98.7135V65.8335C98.7135 65.5835 98.6295 65.3335 98.5456 65.1668C98.2938 65.0002 98.0419 64.9168 97.7901 64.9168Z" fill="white"/>
<path d="M103.414 66.5002C103.414 67.0835 103.246 67.5002 102.995 67.8335C102.743 68.1668 102.323 68.3335 101.903 68.3335C101.652 68.3335 101.484 68.3335 101.316 68.2502C101.148 68.1668 100.98 68.0835 100.896 67.9168V69.8335H100.225V64.4168H100.728V64.9168C100.812 64.7502 100.98 64.5835 101.232 64.5002C101.4 64.4168 101.652 64.3335 101.903 64.3335C102.407 64.3335 102.743 64.5002 102.995 64.9168C103.246 65.3335 103.414 65.8335 103.414 66.5002ZM102.659 66.4168C102.659 66.0002 102.575 65.5835 102.407 65.3335C102.239 65.0835 101.987 64.9168 101.652 64.9168C101.484 64.9168 101.316 65.0002 101.148 65.0835C100.98 65.1668 100.896 65.3335 100.812 65.5002V67.4168C100.896 67.5835 100.98 67.6668 101.148 67.8335C101.316 67.9168 101.484 68.0002 101.652 68.0002C101.987 68.0002 102.239 67.9168 102.407 67.6668C102.575 67.2502 102.659 66.9168 102.659 66.4168Z" fill="white"/>
<path d="M105.765 67.8333C106.017 67.8333 106.184 67.75 106.352 67.5833C106.52 67.4167 106.604 67.25 106.604 67.0833H107.276C107.276 67.4167 107.108 67.75 106.856 68C106.52 68.25 106.184 68.4167 105.849 68.4167C105.345 68.4167 104.925 68.25 104.59 67.8333C104.254 67.4167 104.17 67 104.17 66.4167V66.25C104.17 65.6667 104.338 65.25 104.59 64.8333C104.925 64.5 105.261 64.25 105.849 64.25C106.268 64.25 106.604 64.4167 106.94 64.6667C107.192 64.9167 107.36 65.25 107.36 65.6667H106.604C106.604 65.4167 106.52 65.25 106.352 65.0833C106.184 64.9167 106.017 64.8333 105.765 64.8333C105.429 64.8333 105.177 65 105.009 65.25C104.841 65.5 104.758 65.8333 104.758 66.25V66.4167C104.758 66.8333 104.841 67.1667 105.009 67.4167C105.177 67.6667 105.429 67.8333 105.765 67.8333Z" fill="white"/>
<path d="M109.122 66.667H108.786V68.3337H108.114V64.417H108.786V66.0837H109.122L110.465 64.417H111.304L109.709 66.2503L111.388 68.2503H110.549L109.122 66.667Z" fill="white"/>
<path d="M114.41 64.417H115.081V68.3337H114.41V65.5837L112.731 68.3337H112.06V64.417H112.731V67.167L114.41 64.417Z" fill="white"/>
<path d="M117.768 68.4168C117.18 68.4168 116.76 68.2502 116.509 67.9168C116.173 67.5835 116.005 67.0835 116.005 66.5002V66.3335C116.005 65.7502 116.173 65.3335 116.509 64.9168C116.844 64.5835 117.18 64.3335 117.684 64.3335C118.187 64.3335 118.607 64.5002 118.859 64.8335C119.111 65.1668 119.279 65.5835 119.279 66.1668V66.5835H116.844C116.844 67.0002 116.928 67.3335 117.096 67.5002C117.264 67.7502 117.516 67.8335 117.852 67.8335C118.103 67.8335 118.271 67.8335 118.439 67.7502C118.607 67.6668 118.775 67.5835 118.859 67.5002L119.111 68.0002C118.943 68.1668 118.775 68.2502 118.607 68.3335C118.355 68.3335 118.103 68.4168 117.768 68.4168ZM117.684 64.9168C117.432 64.9168 117.264 65.0002 117.096 65.1668C116.928 65.3335 116.844 65.5835 116.844 65.9168H118.607V65.8335C118.607 65.5835 118.523 65.3335 118.439 65.1668C118.103 65.0002 117.935 64.9168 117.684 64.9168Z" fill="white"/>
<path d="M123.308 67.8333C123.56 67.8333 123.727 67.75 123.895 67.5833C124.063 67.4167 124.147 67.25 124.147 67.0833H124.819C124.819 67.4167 124.651 67.75 124.399 68C124.063 68.25 123.727 68.4167 123.392 68.4167C122.888 68.4167 122.468 68.25 122.133 67.8333C121.797 67.4167 121.713 67 121.713 66.4167V66.25C121.713 65.6667 121.881 65.25 122.133 64.8333C122.468 64.5 122.804 64.25 123.392 64.25C123.811 64.25 124.147 64.4167 124.483 64.6667C124.735 64.9167 124.903 65.25 124.903 65.6667H124.231C124.231 65.4167 124.147 65.25 123.979 65.0833C123.811 64.9167 123.644 64.8333 123.392 64.8333C123.056 64.8333 122.804 65 122.636 65.25C122.468 65.5 122.384 65.8333 122.384 66.25V66.4167C122.384 66.8333 122.468 67.1667 122.636 67.4167C122.72 67.6667 122.972 67.8333 123.308 67.8333Z" fill="white"/>
<path d="M127.169 68.4168C126.581 68.4168 126.162 68.2502 125.91 67.9168C125.574 67.5835 125.406 67.0835 125.406 66.5002V66.3335C125.406 65.7502 125.574 65.3335 125.91 64.9168C126.246 64.5835 126.581 64.3335 127.085 64.3335C127.589 64.3335 128.008 64.5002 128.26 64.8335C128.512 65.1668 128.68 65.5835 128.68 66.1668V66.5835H126.246C126.246 67.0002 126.33 67.3335 126.497 67.5002C126.665 67.7502 126.917 67.8335 127.253 67.8335C127.505 67.8335 127.673 67.8335 127.841 67.7502C128.008 67.6668 128.176 67.5835 128.26 67.5002L128.512 68.0002C128.344 68.1668 128.176 68.2502 128.008 68.3335C127.757 68.3335 127.505 68.4168 127.169 68.4168ZM127.085 64.9168C126.833 64.9168 126.665 65.0002 126.497 65.1668C126.33 65.3335 126.246 65.5835 126.246 65.9168H128.008V65.8335C128.008 65.5835 127.924 65.3335 127.841 65.1668C127.589 65.0002 127.337 64.9168 127.085 64.9168Z" fill="white"/>
<path d="M132.709 66.5002C132.709 67.0835 132.541 67.5002 132.29 67.8335C132.038 68.1668 131.618 68.3335 131.198 68.3335C130.947 68.3335 130.779 68.3335 130.611 68.2502C130.443 68.1668 130.275 68.0835 130.191 67.9168V69.8335H129.52V64.4168H130.023L130.107 64.9168C130.191 64.7502 130.359 64.5835 130.611 64.5002C130.779 64.4168 131.03 64.3335 131.282 64.3335C131.786 64.3335 132.122 64.5002 132.373 64.9168C132.541 65.3335 132.709 65.8335 132.709 66.5002ZM131.954 66.4168C131.954 66.0002 131.87 65.5835 131.702 65.3335C131.534 65.0835 131.282 64.9168 130.947 64.9168C130.779 64.9168 130.611 65.0002 130.443 65.0835C130.275 65.1668 130.191 65.3335 130.107 65.5002V67.4168C130.191 67.5835 130.275 67.6668 130.443 67.8335C130.611 67.9168 130.779 68.0002 130.947 68.0002C131.282 68.0002 131.534 67.9168 131.702 67.6668C131.87 67.2502 131.954 66.9168 131.954 66.4168Z" fill="white"/>
<path d="M133.549 68.3337V64.417H135.06C135.563 64.417 135.983 64.5003 136.235 64.667C136.487 64.8337 136.655 65.0837 136.655 65.5003C136.655 65.667 136.571 65.8337 136.487 66.0003C136.403 66.167 136.235 66.2503 135.983 66.3337C136.235 66.417 136.403 66.5003 136.571 66.667C136.739 66.8337 136.739 67.0003 136.739 67.2503C136.739 67.5837 136.571 67.917 136.319 68.0837C136.067 68.2503 135.731 68.3337 135.228 68.3337H133.549ZM134.22 66.0837H135.06C135.395 66.0837 135.563 66.0003 135.731 65.917C135.899 65.8337 135.983 65.667 135.983 65.5003C135.983 65.3337 135.899 65.167 135.731 65.0837C135.563 65.0003 135.395 64.917 135.06 64.917H134.22V66.0837ZM134.22 66.5837V67.7503H135.312C135.563 67.7503 135.731 67.667 135.899 67.5837C136.067 67.5003 136.067 67.3337 136.067 67.167C136.067 67.0003 135.983 66.8337 135.899 66.7503C135.731 66.667 135.563 66.5837 135.312 66.5837H134.22Z" fill="white"/>
<path d="M140.095 64.417H140.767V68.3337H140.095V65.5837L138.417 68.3337H137.661V64.417H138.333V67.167L140.095 64.417Z" fill="white"/>
<path d="M143.369 67.8333C143.621 67.8333 143.789 67.75 143.957 67.5833C144.125 67.4167 144.209 67.25 144.209 67.0833H144.88C144.88 67.4167 144.712 67.75 144.461 68C144.125 68.25 143.789 68.4167 143.453 68.4167C142.95 68.4167 142.53 68.25 142.194 67.8333C141.858 67.4167 141.774 67 141.774 66.4167V66.25C141.774 65.6667 141.942 65.25 142.194 64.8333C142.53 64.5 142.866 64.25 143.453 64.25C143.873 64.25 144.209 64.4167 144.544 64.6667C144.796 64.9167 144.964 65.25 144.964 65.6667H144.293C144.293 65.4167 144.209 65.25 144.041 65.0833C143.873 64.9167 143.705 64.8333 143.453 64.8333C143.117 64.8333 142.866 65 142.698 65.25C142.53 65.5 142.446 65.8333 142.446 66.25V66.4167C142.446 66.8333 142.53 67.1667 142.698 67.4167C142.698 67.6667 142.95 67.8333 143.369 67.8333Z" fill="white"/>
<path d="M146.391 65.917H147.315C147.734 65.917 148.154 66.0003 148.406 66.2503C148.658 66.5003 148.825 66.7503 148.825 67.0837C148.825 67.417 148.658 67.7503 148.406 68.0003C148.154 68.2503 147.818 68.3337 147.315 68.3337H145.636V64.417H146.307V65.917H146.391ZM146.391 66.417V67.7503H147.315C147.566 67.7503 147.734 67.667 147.902 67.5837C148.07 67.5003 148.07 67.3337 148.07 67.0837C148.07 66.917 147.986 66.7503 147.902 66.5837C147.818 66.417 147.566 66.417 147.315 66.417H146.391ZM150.168 68.3337H149.497V64.417H150.168V68.3337Z" fill="white"/>
</svg>
