<svg width="58" height="58" viewBox="0 0 58 58" fill="none" xmlns="http://www.w3.org/2000/svg">
<path d="M58 48.3207C58 53.6418 53.6418 57.9747 48.346 57.9747H9.654C4.3329 57.9747 0 53.6164 0 48.3207V9.654C0 4.35823 4.35823 0 9.654 0H48.3207C53.6418 0 57.9747 4.35823 57.9747 9.654V48.3207H58Z" fill="#563D7C"/>
<path d="M15.7607 12.5933H32.2055C35.2461 12.5933 37.6786 13.2774 39.503 14.671C41.3274 16.0646 42.2396 18.1677 42.2396 20.9803C42.2396 22.678 41.8341 24.1477 40.998 25.3639C40.1618 26.5802 38.9709 27.5177 37.4252 28.1765V28.2778C39.503 28.7339 41.0993 29.6968 42.1635 31.2425C43.2278 32.7881 43.7852 34.6885 43.7852 36.9943C43.7852 38.3119 43.5572 39.5535 43.0757 40.7191C42.5943 41.8847 41.8595 42.8729 40.8459 43.709C39.8324 44.5452 38.5401 45.204 36.9691 45.7108C35.3981 46.1922 33.5231 46.4456 31.344 46.4456H15.7607V12.5933ZM21.69 26.7575H31.344C32.7629 26.7575 33.9538 26.3521 34.8914 25.5413C35.8289 24.7304 36.3103 23.5649 36.3103 22.0446C36.3103 20.3469 35.8796 19.1306 35.0434 18.4465C34.1819 17.7623 32.9656 17.4076 31.344 17.4076H21.69V26.7575ZM21.69 41.6059H32.1548C33.9538 41.6059 35.3475 41.1498 36.3357 40.2123C37.3239 39.2748 37.8306 37.9572 37.8306 36.2595C37.8306 34.5872 37.3492 33.2949 36.3357 32.3827C35.3221 31.4705 33.9538 31.0397 32.1548 31.0397H21.69V41.6059Z" fill="white"/>
</svg>
