<svg width="60" height="85" viewBox="0 0 60 85" fill="none" xmlns="http://www.w3.org/2000/svg">
<path d="M29.9133 84.5489L5.45126 77.758L0 16.6157H59.9L54.443 77.7485L29.9133 84.5489Z" fill="#264DE4"/>
<path d="M49.7713 73.856L54.4347 21.6152H29.9502V79.3512L49.7713 73.856Z" fill="#2965F1"/>
<path d="M12.4971 44.292L13.1692 51.7908H29.9502V44.292H12.4971Z" fill="#EBEBEB"/>
<path d="M11.1465 29.114L11.8282 36.6129H29.9501V29.114H11.1465Z" fill="#EBEBEB"/>
<path d="M29.9498 63.7673L29.917 63.7761L21.5655 61.521L21.0316 55.5403H13.5039L14.5545 67.3146L29.9153 71.5788L29.9498 71.5693V63.7673Z" fill="#EBEBEB"/>
<path d="M14.0967 0H23.1791V3.7981H17.8948V7.5962H23.1791V11.3943H14.0967V0Z" fill="black"/>
<path d="M24.9961 0H34.0785V3.3027H28.7942V3.96324H34.0785V11.5594H24.9961V8.09161H30.2804V7.43107H24.9961V0Z" fill="black"/>
<path d="M35.8945 0H44.9769V3.3027H39.6926V3.96324H44.9769V11.5594H35.8945V8.09161H41.1788V7.43107H35.8945V0Z" fill="black"/>
<path d="M47.3548 44.2919L48.7086 29.114H29.9238V36.6129H40.4905L39.8081 44.2919H29.9238V51.7906H39.1578L38.2874 61.5161L29.9238 63.7735V71.5751L45.2969 67.3145L45.4097 66.0476L47.1718 46.3055L47.3548 44.2919Z" fill="white"/>
</svg>
