<svg width="60" height="60" viewBox="0 0 60 60" fill="none" xmlns="http://www.w3.org/2000/svg">
<path d="M58.7702 27.2811L32.617 1.12978C31.1119 -0.376594 28.669 -0.376594 27.1619 1.12978L21.7312 6.56049L28.6203 13.4496C30.2214 12.9087 32.057 13.2715 33.3334 14.5478C34.6156 15.8321 34.9758 17.6835 34.4217 19.2898L41.0611 25.9291C42.6674 25.3757 44.5208 25.7339 45.8037 27.0188C47.5966 28.8111 47.5966 31.7161 45.8037 33.5097C44.0101 35.3032 41.1051 35.3032 39.3109 33.5097C37.9622 32.1597 37.629 30.1788 38.3119 28.5173L32.1201 22.3255L32.1194 38.6196C32.5565 38.8365 32.9692 39.125 33.3334 39.4878C35.1263 41.2801 35.1263 44.1851 33.3334 45.98C31.5398 47.7729 28.6335 47.7729 26.8425 45.98C25.0496 44.1851 25.0496 41.2801 26.8425 39.4878C27.2855 39.0455 27.7981 38.711 28.345 38.4862V22.0403C27.7981 21.8168 27.2862 21.4843 26.8425 21.0387C25.484 19.6821 25.1574 17.6888 25.8534 16.0207L19.0629 9.22886L1.13028 27.1601C-0.376759 28.6678 -0.376759 31.1108 1.13028 32.6171L27.2835 58.7691C28.7892 60.2754 31.2315 60.2754 32.7392 58.7691L58.7702 32.7387C60.2766 31.2317 60.2766 28.7874 58.7702 27.2811Z" fill="#DE4C36"/>
</svg>
