<svg width="39" height="86" viewBox="0 0 39 86" fill="none" xmlns="http://www.w3.org/2000/svg">
<g clip-path="url(#clip0)">
<path d="M38.5637 2.29809C38.804 2.02082 38.4393 1.31162 37.7491 0.71426C37.0586 0.117205 36.304 -0.142201 36.0633 0.135063C35.8228 0.412327 36.1877 1.12153 36.8782 1.71859C37.5683 2.31579 38.3232 2.5755 38.5637 2.29809Z" fill="#D34A47"/>
<path d="M29.8921 83.0505L30.7145 69.3643L32.985 65.4929C32.985 65.4929 27.8172 67.6045 19.1653 67.6045C10.5133 67.6045 5.42383 65.532 5.42383 65.532L7.96851 69.7551L8.86871 83.0505C8.86871 84.4758 13.5749 85.6312 19.3805 85.6312C25.1858 85.6312 29.8921 84.4758 29.8921 83.0505Z" fill="#D34A47"/>
<path d="M27.2983 19.1382L29.0243 12.3239L38.5826 2.27821L36.0633 0.13501L25.944 10.8362L23.9399 18.9775C22.4879 18.9284 20.9725 18.9022 19.4135 18.9022C8.75593 18.9022 0.116211 20.1154 0.116211 21.6116C0.116211 23.108 8.75593 24.321 19.4135 24.321C30.0709 24.321 38.7104 23.108 38.7104 21.6116C38.7104 20.5098 34.0247 19.5615 27.2983 19.1382Z" fill="#D34A47"/>
<path d="M26.2943 22.9543C26.2943 22.9543 25.9205 23.038 24.8209 23.0427C23.721 23.0472 22.94 23.0355 22.6289 22.7525C22.5453 22.6766 22.4995 22.5257 22.5 22.4235C22.5009 22.229 22.6391 22.1145 22.8152 22.0427L22.9817 22.3036C22.9093 22.3286 22.8679 22.3581 22.8678 22.3896C22.8671 22.5373 23.9924 22.6384 24.853 22.6275C25.7138 22.6169 26.7539 22.5461 26.7548 22.4005C26.7548 22.3565 26.6761 22.315 26.5393 22.2823L26.7051 22.0232C26.9281 22.0924 27.1228 22.226 27.1224 22.4573C27.1203 22.8504 26.6193 22.9102 26.2943 22.9543Z" fill="white"/>
<path d="M29.4324 49.6208C29.2059 47.4438 34.1997 44.291 32.9181 44.1901C30.1591 44.3476 28.786 47.4195 27.3979 50.6367C26.8893 51.8159 25.1487 56.8439 24.0071 56.2249C22.8659 55.6062 25.4868 51.4716 26.2213 49.0161C25.3737 49.637 22.2652 52.0492 21.4641 49.7901C20.1762 50.8827 17.424 51.4746 17.7345 48.6046C17.0493 49.8169 15.5115 51.5094 13.6657 50.8061C11.2416 49.8827 15.0703 42.1701 16.0223 42.5592C16.9745 42.9481 15.8302 44.7051 15.5304 45.3873C14.8713 46.8888 14.1099 48.7764 14.6186 49.1628C15.49 49.8248 17.8613 46.6585 17.9141 46.5889C18.3576 46.0036 19.6211 42.1747 20.6395 42.6144C21.6579 43.0541 18.0994 48.1094 19.4299 49.1127C19.6983 49.3152 20.7962 48.9878 21.4641 48.2661C21.8963 47.7992 21.7476 46.765 23.1881 43.3337C24.6287 39.9026 25.9125 35.6295 26.9005 35.9551C27.8884 36.2805 27.0741 38.4736 26.7197 39.2912C25.0566 43.1284 22.1807 49.4678 23.5369 48.9878C24.8932 48.5081 25.5995 48.4799 26.9276 46.9276C28.2557 45.3752 28.1945 42.8183 29.0797 42.8726C29.9652 42.9271 29.8165 43.7469 29.6018 44.3712C30.4731 43.3754 33.7317 41.278 34.5185 43.3552C35.4503 45.8144 29.8562 49.3667 31.251 49.1855C32.6109 49.0089 34.8141 47.6151 35.7547 46.3479L38.344 23.0974C38.344 23.0974 35.7385 25.2511 19.1628 25.2511C2.58686 25.2511 0.250977 23.1422 0.250977 23.1422L2.45534 44.3644C3.6254 41.0428 6.40389 34.3243 10.7835 34.5498C12.7758 34.6524 15.4353 38.484 13.1571 38.6139C12.1928 38.6687 12.095 36.7014 10.9531 36.4124C10.1291 36.2039 8.98191 36.873 8.2405 37.5979C6.76194 39.0433 3.58192 44.7458 4.00209 47.5888C4.53742 51.2134 9.00964 46.3293 9.76635 44.8793C10.2993 43.8579 10.6593 40.8316 11.8248 41.1491C12.9905 41.4666 11.7231 44.5898 10.8782 47.351C9.92908 50.4517 9.43011 53.7224 8.2405 53.3461C7.05074 52.9702 8.98873 48.9674 8.91857 48.2661C7.80033 49.2966 5.74022 51.9055 3.10462 50.6142L4.47363 63.793C4.47363 63.793 8.11216 66.6645 19.0729 66.6645C30.0337 66.6645 33.8069 63.8378 33.8069 63.8378L35.5068 48.5736C34.116 49.9263 29.7143 52.3285 29.4324 49.6208Z" fill="#D34A47"/>
</g>
<defs>
<clipPath id="clip0">
<rect width="38.79" height="85.6612" fill="white"/>
</clipPath>
</defs>
</svg>
