<svg width="60" height="85" viewBox="0 0 60 85" fill="none" xmlns="http://www.w3.org/2000/svg">
<path d="M5.66113 0H9.46192V3.75517H12.9387V0H16.7397V11.3716H12.9389V7.5637H9.46209V11.3716H5.6613L5.66113 0Z" fill="black"/>
<path d="M21.7377 3.77098H18.3916V0H28.8863V3.77098H25.5388V11.3716H21.7378L21.7377 3.77098Z" fill="black"/>
<path d="M30.5518 0H34.5149L36.9528 3.99563L39.3883 0H43.3529V11.3716H39.5678V5.73519L36.9528 9.77842H36.8874L34.2707 5.73519V11.3716H30.5518V0Z" fill="black"/>
<path d="M45.2451 0H49.0471V7.61278H54.3921V11.3716H45.2451V0Z" fill="black"/>
<path d="M5.45372 77.5289L0 16.3542H59.9L54.4395 77.5335L29.9354 84.3265L5.45372 77.5289Z" fill="#E34E26"/>
<path d="M29.9502 21.3542V79.1298L49.7648 73.6374L54.4334 21.3542H29.9502Z" fill="#EF662A"/>
<path d="M11.1582 28.8584L13.1807 51.5477H39.1861L38.3133 61.2795L29.9403 63.5433L21.5831 61.2826L21.0242 55.034H13.493L14.57 67.0796L29.9383 71.3481L45.3266 67.0796L47.3894 44.0457H20.043L19.3565 36.3621H48.0463H48.0695L48.7415 28.8584H11.1582Z" fill="white"/>
<path d="M29.9498 28.8584H11.1582L13.1807 51.5477H29.9498V44.0457H20.043L19.3565 36.3621H29.9498V28.8584Z" fill="#EBEBEB"/>
<path d="M29.95 63.5399L29.9405 63.5432L21.5832 61.2825L21.0244 55.0339H13.4932L14.5701 67.0795L29.9385 71.348L29.95 71.3447V63.5399Z" fill="#EBEBEB"/>
</svg>
