<svg width="60" height="73" viewBox="0 0 60 73" fill="none" xmlns="http://www.w3.org/2000/svg">
<g clip-path="url(#clip0)">
<path d="M8.84264 11.0292C4.46899 17.2094 5.03947 25.3862 8.36724 31.9467C8.36724 32.1368 8.46232 32.327 8.5574 32.5171C8.5574 32.6122 8.65248 32.7073 8.74756 32.8024C8.74756 32.8975 8.84264 32.8975 8.84264 32.9925C8.93772 33.0876 8.93772 33.1827 9.0328 33.2778C9.12788 33.4679 9.22296 33.6581 9.31804 33.8482C9.41312 33.9433 9.41312 34.0384 9.5082 34.1335C9.60328 34.3236 9.79343 34.5138 9.88851 34.704C9.98359 34.799 9.98359 34.8941 10.0787 34.9892C10.2688 35.2744 10.459 35.4646 10.6491 35.7498L10.7442 35.8449C10.9344 36.0351 11.0295 36.3203 11.2196 36.5105C11.3147 36.6056 11.3147 36.7006 11.4098 36.7006C11.5999 36.8908 11.695 37.0809 11.8852 37.2711C11.9803 37.3662 11.9803 37.3662 12.0753 37.4613C12.2655 37.7465 12.4557 37.9367 12.7409 38.1268C12.9311 38.317 13.1212 38.6022 13.4065 38.7924C13.3114 38.8875 13.4065 38.9825 13.4065 39.0776C13.5966 39.2678 13.6917 39.3629 13.8818 39.553C13.9769 39.6481 13.9769 39.6481 14.072 39.7432C14.2622 39.9333 14.5474 40.1235 14.7376 40.4087L14.8326 40.5038C15.0228 40.694 15.213 40.8841 15.4982 41.0743C15.5933 41.1694 15.6884 41.1694 15.7834 41.2644C15.9736 41.3595 16.1638 41.5497 16.3539 41.6448C16.449 41.7398 16.5441 41.7398 16.6391 41.8349C16.8293 42.0251 17.0195 42.1202 17.2096 42.2152C17.3047 42.3103 17.3047 42.3103 17.3998 42.4054C17.3998 42.4054 17.3998 42.4054 17.4949 42.4054C17.685 42.5005 17.8752 42.6906 18.0653 42.7857C18.1604 42.8808 18.2555 42.8808 18.3506 42.9759C18.6358 43.166 18.9211 43.3562 19.2063 43.5463C19.3014 43.5463 19.3965 43.6414 19.4915 43.6414C19.6817 43.7365 19.9669 43.9267 20.1571 44.0217C20.2522 44.1168 20.4423 44.1168 20.5374 44.2119C20.7276 44.307 20.8226 44.4021 21.0128 44.4971C21.0128 44.4971 21.1079 44.4971 21.1079 44.5922C21.203 44.5922 21.203 44.6873 21.298 44.6873C21.5833 44.7824 21.7734 44.9725 22.0587 45.0676C22.1538 45.0676 22.1538 45.0676 22.2488 45.1627C22.5341 45.2578 22.8193 45.4479 23.1045 45.543C23.1996 45.543 23.1996 45.6381 23.2947 45.6381C23.5799 45.7332 23.8652 45.8282 24.1504 45.9233H24.2455C24.5307 46.0184 24.9111 46.1135 25.1963 46.2086C25.2914 46.2086 25.3864 46.3036 25.3864 46.3036C25.6717 46.3987 26.052 46.4938 26.3372 46.5889C47.2547 50.3921 53.3398 34.0384 53.3398 34.0384C48.2055 40.694 39.173 42.4054 30.5207 40.5038C30.2355 40.4087 29.8552 40.3136 29.5699 40.2186C29.4749 40.2186 29.3798 40.2186 29.3798 40.1235C29.0945 40.0284 28.7142 39.9333 28.429 39.8382C28.429 39.8382 28.3339 39.8382 28.3339 39.7432C28.0487 39.6481 27.7634 39.553 27.4782 39.4579C27.3831 39.4579 27.288 39.3629 27.288 39.3629C27.0028 39.2678 26.7176 39.0776 26.4323 38.9825C26.3372 38.9825 26.3372 38.8875 26.2422 38.8875C25.9569 38.7924 25.7668 38.6973 25.4815 38.5071C25.3864 38.5071 25.3864 38.4121 25.2914 38.4121C25.1012 38.317 24.9111 38.2219 24.7209 38.1268C24.6258 38.0317 24.4357 38.0317 24.3406 37.9367C24.1504 37.8416 23.8652 37.6514 23.675 37.5563C23.5799 37.4613 23.4849 37.4613 23.4849 37.4613C23.1996 37.2711 22.9144 37.0809 22.6291 36.8908C22.5341 36.7957 22.439 36.7957 22.3439 36.7006C22.1538 36.6055 21.8685 36.4154 21.6784 36.3203C21.5833 36.2252 21.5833 36.2252 21.4882 36.1302C21.298 36.0351 21.1079 35.8449 20.9177 35.6548C20.8226 35.5597 20.7276 35.5597 20.6325 35.4646C20.4423 35.3695 20.2522 35.1794 20.062 35.0843C19.9669 34.9892 19.8718 34.9892 19.7768 34.8941C19.5866 34.704 19.3014 34.5138 19.1112 34.3236C19.1112 34.3236 19.0161 34.3236 19.0161 34.2286C18.7309 34.0384 18.5407 33.7532 18.3506 33.563C18.2555 33.4679 18.2555 33.4679 18.1604 33.3728C17.9703 33.1827 17.7801 33.0876 17.685 32.8975C17.5899 32.8024 17.5899 32.8024 17.4949 32.7073C17.3047 32.5171 17.1145 32.2319 16.8293 32.0417C16.6391 31.7565 16.449 31.5663 16.1638 31.2811C16.0687 31.186 16.0687 31.186 15.9736 31.0909C15.7834 30.9008 15.6884 30.7106 15.4982 30.5205C15.4031 30.4254 15.4031 30.4254 15.308 30.3303C15.1179 30.1402 14.9277 29.8549 14.7376 29.6648C9.98359 23.1994 8.27216 14.1668 12.0753 6.8457" fill="#0769AD"/>
<path d="M22.2489 5.79992C19.1113 10.2686 19.3015 16.3537 21.7735 21.1077C22.1539 21.8683 22.6293 22.724 23.1997 23.3896C23.6751 24.0552 24.1505 24.8158 24.8161 25.3863C25.0062 25.6715 25.2915 25.8617 25.4816 26.1469C25.5767 26.242 25.5767 26.242 25.6718 26.3371C25.862 26.5272 26.1472 26.8125 26.4324 27.0026C26.7177 27.2879 27.0029 27.478 27.2881 27.6682C27.3832 27.7633 27.3832 27.7633 27.4783 27.8583C27.7635 28.0485 28.0488 28.3337 28.334 28.5239C28.4291 28.619 28.6193 28.714 28.7143 28.8091C28.8094 28.8091 28.8094 28.9042 28.9045 28.9042C29.0947 28.9993 29.3799 29.1894 29.5701 29.2845C29.5701 29.2845 29.6651 29.2845 29.6651 29.3796C29.8553 29.4747 30.0454 29.5698 30.2356 29.6648C30.3307 29.6648 30.3307 29.7599 30.4258 29.7599C30.5208 29.855 30.711 29.855 30.8061 29.9501C30.8061 29.9501 30.8061 29.9501 30.9012 29.9501C31.1864 30.0452 31.4716 30.2353 31.7569 30.3304C31.852 30.3304 31.852 30.4255 31.947 30.4255C32.1372 30.5206 32.4224 30.6156 32.6126 30.7107C32.7077 30.7107 32.8028 30.8058 32.8978 30.8058C33.088 30.9009 33.2781 30.9959 33.5634 30.9959C33.6585 30.9959 33.7535 31.091 33.8486 31.091C34.1339 31.1861 34.4191 31.2812 34.7994 31.3763C50.9629 34.0385 54.671 21.5831 54.671 21.5831C51.3432 26.4321 44.7827 28.714 37.842 26.9075C37.5567 26.8125 37.2715 26.7174 36.8912 26.6223C36.7961 26.6223 36.701 26.5272 36.6059 26.5272C36.4158 26.6223 36.1305 26.6223 35.9404 26.5272C35.8453 26.5272 35.7502 26.4321 35.6551 26.4321C35.465 26.3371 35.1797 26.242 34.9896 26.1469C34.8945 26.1469 34.8945 26.0518 34.7994 26.0518C34.5142 25.9567 34.2289 25.7666 33.9437 25.6715C33.8486 25.5764 33.6585 25.4813 33.5634 25.4813C33.4683 25.4813 33.3732 25.3863 33.2781 25.3863C33.088 25.2912 32.8978 25.1961 32.7077 25.101C32.7077 25.101 32.6126 25.101 32.6126 25.0059C32.4224 24.9109 32.1372 24.7207 31.947 24.6256C31.852 24.6256 31.852 24.5306 31.7569 24.5306C31.6618 24.4355 31.4716 24.3404 31.3766 24.2453C31.0913 24.0552 30.8061 23.865 30.5208 23.5798C30.4258 23.4847 30.4258 23.4847 30.3307 23.3896C27.2881 21.0126 24.9112 17.6848 23.7702 13.9767C22.5342 10.0785 22.8194 5.79992 24.9112 2.28198" fill="#0769AD"/>
<path d="M33.5629 1.90161C31.7564 4.65892 31.5662 7.98669 32.8023 11.0292C34.1334 14.2619 36.8907 16.734 40.1234 17.8749C40.2184 17.97 40.4086 17.97 40.5037 17.97C40.5988 17.97 40.5988 17.97 40.6938 18.0651C40.884 18.1602 41.0742 18.1602 41.2643 18.2553C50.2018 19.9667 52.5788 13.6915 53.2443 12.7407C51.1526 15.7832 47.5396 16.5438 43.1659 15.498C42.7856 15.4029 42.4053 15.3078 42.12 15.2127C41.7397 15.0226 41.2643 14.9275 40.884 14.7373C40.1234 14.357 39.3627 13.8816 38.6972 13.4062C34.7989 10.4588 32.3269 4.754 34.894 0.190186" fill="#0769AD"/>
</g>
<g clip-path="url(#clip1)">
<path d="M13.8786 70.1891C13.8786 70.3505 13.8518 70.5119 13.8518 70.7002L14.5242 69.4898L14.4435 69.0864L15.1159 68.9788L15.358 70.6733L15.6539 69.6243C15.6808 69.5167 15.6808 69.436 15.6808 69.3554C15.6808 69.2747 15.6808 69.194 15.6539 69.0864L16.3532 68.9519C16.3801 69.0864 16.407 69.2209 16.3801 69.3554C16.3801 69.5167 16.3263 69.705 16.2187 70.0009L15.6539 71.534H14.8201L14.6318 70.4043L13.9862 71.534H13.1793C13.2062 70.485 13.1793 69.8126 13.0986 69.1133L13.798 69.0057C13.8518 69.3554 13.8786 69.7588 13.8786 70.1891Z" fill="#0769AD"/>
<path d="M18.2357 69.5974C17.9129 69.7588 17.7785 69.8395 17.4826 70.0278L17.1598 71.5071H16.4336L16.9446 69.0595L17.5902 68.9519L17.5633 69.3016C17.8053 69.1671 18.0205 69.0595 18.2357 68.9519V69.5974Z" fill="#0769AD"/>
<path d="M18.6663 69.0595L19.4194 68.9519L18.8815 71.5071H18.1553L18.6663 69.0595ZM18.9084 67.9567L19.6615 67.8491L19.5001 68.6291L18.747 68.7367L18.9084 67.9567Z" fill="#0769AD"/>
<path d="M20.7638 69.5706L20.4949 70.8079C20.4949 70.8348 20.4949 70.8617 20.4949 70.8617C20.4949 70.8886 20.5218 70.9154 20.5756 70.9154C20.71 70.9154 20.8445 70.8617 20.979 70.8079L21.1135 71.3189C20.8983 71.4265 20.6024 71.5341 20.3066 71.5341C19.93 71.5341 19.7417 71.3458 19.7686 71.0499C19.7686 71.023 19.7686 70.9692 19.7955 70.9423L20.0914 69.5437H19.7148L19.8493 68.952H20.2259L20.3604 68.3603L21.1135 68.2527L20.979 68.952H21.5707L21.4094 69.5437H20.7638V69.5706Z" fill="#0769AD"/>
<path d="M21.6248 69.8933C21.7593 69.3285 22.0283 68.9519 22.8083 68.9519C23.2924 68.9519 23.6421 69.1671 23.6152 69.5705C23.5883 70.0547 23.3462 70.2967 22.7276 70.4581C22.4317 70.5388 22.4048 70.5388 22.1896 70.6195L22.1627 70.7809C22.1359 70.8616 22.1627 70.9691 22.2972 70.9691C22.5662 70.9691 22.9428 70.8347 23.2924 70.7002L23.4 71.2112C23.0773 71.3995 22.5931 71.5609 22.1627 71.5609C21.6517 71.5609 21.4365 71.3457 21.4365 70.9154C21.4365 70.8347 21.4634 70.7271 21.4903 70.6195L21.6248 69.8933ZM22.9428 69.6512C22.9428 69.5705 22.8621 69.5167 22.7276 69.5167C22.4586 69.5167 22.3779 69.6781 22.351 69.8664L22.3241 70.0547C22.4586 70.0278 22.5124 70.0009 22.6469 69.974C22.8352 69.8933 22.9428 69.8126 22.9428 69.6512Z" fill="#0769AD"/>
<path d="M25.4982 67.9836L26.2514 67.876L25.4982 71.507H24.7451L25.4982 67.9836Z" fill="#0769AD"/>
<path d="M26.3318 69.8933C26.4663 69.3285 26.7353 68.9519 27.5153 68.9519C27.9995 68.9519 28.3491 69.1671 28.3222 69.5705C28.2953 70.0547 28.0533 70.2967 27.4346 70.4581C27.1387 70.5388 27.1119 70.5388 26.8967 70.6195L26.8698 70.7809C26.8429 70.8616 26.8698 70.9691 27.0043 70.9691C27.2732 70.9691 27.6498 70.8347 27.9995 70.7002L28.107 71.2112C27.7843 71.3995 27.3001 71.5609 26.8698 71.5609C26.3587 71.5609 26.1436 71.3457 26.1436 70.9154C26.1436 70.8347 26.1705 70.7271 26.1974 70.6195L26.3318 69.8933ZM27.6498 69.6512C27.6498 69.5705 27.5691 69.5167 27.4346 69.5167C27.1656 69.5167 27.085 69.6781 27.0581 69.8664L27.0312 70.0547C27.1656 70.0278 27.2194 70.0009 27.3539 69.974C27.5422 69.8933 27.6498 69.8126 27.6498 69.6512Z" fill="#0769AD"/>
<path d="M28.376 71.3995L28.5374 70.8615C28.7256 70.9153 28.9408 70.996 29.2098 70.996C29.4519 70.996 29.4788 70.9153 29.5057 70.8077C29.5326 70.7001 29.4519 70.6463 29.1829 70.485C28.6718 70.216 28.6449 70.0277 28.7256 69.6512C28.8332 69.1132 28.9946 68.9788 29.6939 68.9788C29.936 68.9788 30.2319 69.0326 30.4471 69.0863L30.3126 69.6243C30.1243 69.5705 29.8553 69.5436 29.6939 69.5436C29.4788 69.5436 29.4519 69.5705 29.425 69.705C29.3981 69.8126 29.425 69.8395 29.667 69.9739C30.2319 70.2698 30.3126 70.3774 30.2319 70.7808C30.0974 71.3457 29.936 71.5608 29.1829 71.5608C28.9139 71.5608 28.5912 71.4801 28.376 71.3995Z" fill="#0769AD"/>
<path d="M30.4746 71.3995L30.636 70.8615C30.8243 70.9153 31.0394 70.996 31.3084 70.996C31.5505 70.996 31.5774 70.9153 31.6043 70.8077C31.6312 70.7001 31.5505 70.6463 31.2815 70.485C30.7705 70.216 30.7436 70.0277 30.8243 69.6512C30.9319 69.1132 31.0932 68.9788 31.7926 68.9788C32.0346 68.9788 32.3305 69.0326 32.5457 69.0863L32.4112 69.6243C32.2229 69.5705 31.954 69.5436 31.7926 69.5436C31.5774 69.5436 31.5505 69.5705 31.5236 69.705C31.4967 69.8126 31.5236 69.8395 31.7657 69.9739C32.3305 70.2698 32.4112 70.3774 32.3305 70.7808C32.196 71.3457 32.0346 71.5608 31.2815 71.5608C31.0126 71.5608 30.6898 71.4801 30.4746 71.3995Z" fill="#0769AD"/>
<path d="M32.4375 72.072L32.841 71.5072H32.572L32.7603 70.6465H33.4865L33.2982 71.561L32.7065 72.2603L32.4375 72.072Z" fill="#0769AD"/>
<path d="M36.4188 71.507V71.2918C36.2305 71.4532 35.9615 71.5608 35.6118 71.5608C35.0739 71.5608 34.9394 71.238 35.0739 70.6732L35.2084 70.0008C35.3429 69.4091 35.5043 68.9518 36.5532 68.9518C36.6339 68.9518 36.7953 68.9518 36.8491 68.9787L37.0643 67.9836L37.8174 67.876L37.0643 71.507H36.4188ZM35.7463 70.7539C35.7194 70.8884 35.7463 70.9422 35.8808 70.9422C36.1498 70.9422 36.3381 70.8077 36.4726 70.6732L36.7146 69.5705C36.6339 69.5436 36.5264 69.5436 36.4457 69.5436C36.0691 69.5436 35.9884 69.7318 35.9346 69.9739L35.7463 70.7539Z" fill="#0769AD"/>
<path d="M37.7096 70.7271C37.7096 70.6733 37.7096 70.6195 37.7365 70.5388L37.8709 69.9471C38.0054 69.3016 38.3282 68.925 39.2158 68.925C39.8882 68.925 40.1841 69.3016 40.1572 69.7588C40.1572 69.8126 40.1572 69.8664 40.1303 69.9471L39.9958 70.5388C39.8613 71.1306 39.5655 71.5609 38.651 71.5609C38.0054 71.5609 37.6827 71.1844 37.7096 70.7271ZM39.4041 69.8395C39.4041 69.6513 39.2965 69.5437 39.0544 69.5437C38.7854 69.5437 38.6241 69.6782 38.5703 69.9202L38.4358 70.5388C38.4358 70.5657 38.4358 70.6195 38.4089 70.6464C38.4089 70.8347 38.5165 70.9423 38.7586 70.9423C39.0275 70.9423 39.1889 70.8078 39.2427 70.5657L39.3772 69.9471C39.4041 69.8933 39.4041 69.8664 39.4041 69.8395Z" fill="#0769AD"/>
<path d="M44.5686 69.8126C44.5686 69.7857 44.5686 69.7588 44.5686 69.7319C44.5686 69.6782 44.5417 69.6513 44.461 69.6513C44.3265 69.6513 44.0037 69.7857 43.7886 69.8933L43.4389 71.5071H42.7665L43.1161 69.8126C43.1161 69.7857 43.1161 69.7588 43.1161 69.7319C43.1161 69.6782 43.0892 69.6513 43.0085 69.6513C42.874 69.6513 42.5513 69.7857 42.363 69.8933L42.0133 71.5071H41.2871L41.7982 69.0595L42.4437 68.9519L42.4168 69.2209C42.8202 69.0326 43.1161 68.925 43.412 68.925C43.6541 68.925 43.7885 69.0326 43.8423 69.2209C44.2189 69.0057 44.5686 68.925 44.8644 68.925C45.1872 68.925 45.3217 69.1133 45.2948 69.4361C45.2948 69.5168 45.2948 69.6244 45.2679 69.7319L44.8913 71.4802H44.1651L44.5686 69.8126Z" fill="#0769AD"/>
<path d="M45.5635 70.7271C45.5635 70.6733 45.5635 70.6195 45.5904 70.5388L45.7249 69.9471C45.8593 69.3016 46.1821 68.925 47.0697 68.925C47.7421 68.925 48.038 69.3016 48.0111 69.7588C48.0111 69.8126 48.0111 69.8664 47.9842 69.9471L47.8497 70.5388C47.7152 71.1306 47.4194 71.5609 46.5049 71.5609C45.8862 71.5609 45.5635 71.1844 45.5635 70.7271ZM47.2849 69.8395C47.2849 69.6513 47.1773 69.5437 46.9352 69.5437C46.6663 69.5437 46.5049 69.6782 46.4511 69.9202L46.3166 70.5388C46.3166 70.5657 46.3166 70.6195 46.2897 70.6464C46.2897 70.8347 46.3973 70.9423 46.6394 70.9423C46.9083 70.9423 47.0697 70.8078 47.1235 70.5657L47.258 69.9471C47.258 69.8933 47.2849 69.8664 47.2849 69.8395Z" fill="#0769AD"/>
<path d="M49.9207 69.5974C49.598 69.7588 49.4635 69.8395 49.1676 70.0278L48.8448 71.5071H48.1455L48.6566 69.0595L49.3021 68.9519L49.2752 69.3016C49.5173 69.1671 49.7324 69.0595 49.9476 68.9519L49.9207 69.5974Z" fill="#0769AD"/>
<path d="M50.0818 69.8933C50.2163 69.3285 50.4853 68.9519 51.2653 68.9519C51.7495 68.9519 52.0991 69.1671 52.0722 69.5705C52.0453 70.0547 51.8032 70.2967 51.1846 70.4581C50.8887 70.5388 50.8619 70.5388 50.6467 70.6195L50.6198 70.7809C50.5929 70.8616 50.6198 70.9691 50.7543 70.9691C51.0232 70.9691 51.3998 70.8347 51.7495 70.7002L51.857 71.2112C51.5343 71.3995 51.0501 71.5609 50.6198 71.5609C50.1087 71.5609 49.8936 71.3457 49.8936 70.9154C49.8936 70.8347 49.9205 70.7271 49.9473 70.6195L50.0818 69.8933ZM51.3998 69.6512C51.3998 69.5705 51.3191 69.5167 51.1846 69.5167C50.9156 69.5167 50.835 69.6781 50.8081 69.8664L50.7812 70.0547C50.9156 70.0278 50.9694 70.0009 51.1039 69.974C51.3191 69.8933 51.3998 69.8126 51.3998 69.6512Z" fill="#0769AD"/>
<path d="M52.3953 70.6465H53.1215L52.9333 71.5072H52.207L52.3953 70.6465Z" fill="#0769AD"/>
<path d="M51.4815 57.8706L51.5891 58.301C51.616 58.4085 51.5353 58.5161 51.4277 58.5161" fill="#333333"/>
<path d="M43.4927 57.1443C43.4658 57.2519 43.4389 57.4133 43.412 57.4939L42.5244 61.5822L43.4389 57.2788L43.4927 57.1443Z" fill="#333333"/>
<path d="M17.2947 59.8879L16.8105 61.6093L17.2947 59.8879Z" fill="#333333"/>
<path d="M51.5622 58.301L51.3201 57.2251C51.1319 56.4451 50.567 56.0955 49.3029 56.0955H43.9772C43.8427 56.0955 43.7351 56.1493 43.7082 56.2837L41.691 65.832C41.6641 65.9665 41.6641 66.0472 41.6641 66.101C41.691 66.1548 41.9061 66.1548 42.0406 66.1548H43.8965C44.031 66.1548 44.2462 66.1548 44.3 66.1279C44.3807 66.101 44.4076 65.9127 44.4345 65.8051L45.08 62.443L45.8869 58.7044C45.9138 58.5968 46.0214 58.4893 46.1559 58.4893H51.4277C51.5353 58.5161 51.5891 58.4086 51.5622 58.301Z" fill="#333333"/>
<path d="M59.0662 54.4009C58.9318 54.4009 56.7262 54.4009 56.7262 54.4009C56.5917 54.4009 56.4572 54.5354 56.3765 54.6429L52.2613 60.6947C52.1806 60.8023 52.0999 60.8023 52.073 60.6678L51.7771 59.3498C51.7502 59.2423 51.6157 59.1347 51.5081 59.1347H48.8722C48.7377 59.1347 48.6839 59.2423 48.7108 59.3498L49.8943 63.4919C49.9212 63.5995 49.9212 63.8147 49.8943 63.9223L49.3295 66.0202C49.3026 66.1278 49.3833 66.1816 49.4908 66.1816H52.0999C52.2344 66.1816 52.3419 66.1547 52.3688 66.0202L52.9337 63.8954C52.9606 63.7878 53.0413 63.6264 53.122 63.5188L59.8194 54.6429C59.9001 54.5354 59.8732 54.4278 59.7656 54.4278L59.0662 54.4009Z" fill="#333333"/>
<path d="M31.6041 56.0955H29.2103C29.0758 56.0955 28.9682 56.1493 28.9413 56.2568L28.1613 59.9417L27.3812 63.4651C27.3543 63.5727 27.2468 63.5727 27.1123 63.5727H25.5522C23.9922 63.5727 24.1805 62.6044 24.5032 61.1251C24.5032 61.0982 25.4984 56.2568 25.4984 56.2568C25.5253 56.1493 25.4446 56.0955 25.3102 56.0955H23.0508C22.9163 56.0955 22.8087 56.1493 22.7818 56.2568L21.8673 61.1251C21.4101 63.761 21.4101 66.0741 24.4495 66.1548C24.5032 66.1548 29.264 66.1548 29.264 66.1548C29.3985 66.1548 29.5061 66.101 29.533 65.9934L30.582 61.0982L31.6041 56.203C31.6041 56.203 31.631 56.0955 31.6041 56.0955Z" fill="#333333"/>
<path d="M7.88133 56.0955H5.3261C5.19162 56.0955 5.08403 56.1224 5.05713 56.2568L4.59988 58.2472C4.57298 58.3548 4.65367 58.4624 4.78816 58.4624H7.2358C7.37029 58.4624 7.47788 58.3548 7.50477 58.2203L7.93513 56.203C7.93513 56.203 7.96203 56.0955 7.88133 56.0955Z" fill="#333333"/>
<path d="M4.59975 59.1079C4.46526 59.1079 4.35767 59.2155 4.33078 59.3231L3.98111 60.8562L3.22799 64.3527C3.22799 64.3527 2.82453 66.2086 2.77074 66.3431C2.77074 66.3431 2.42108 67.6879 1.61416 67.6341C1.2376 67.6072 0.807245 67.5265 0.807245 67.5265C0.565171 67.4458 0.565171 67.6879 0.538274 67.8224L0.000330258 70.001C-0.0265669 70.1086 0.0541246 70.2162 0.161713 70.2431C0.161713 70.2431 1.2645 70.4045 2.04452 70.4045H2.179C4.0887 70.4045 5.11079 69.2748 5.75633 66.2086L6.50945 62.6583L7.20877 59.35C7.23567 59.2424 7.15498 59.1079 7.04739 59.1079" fill="#333333"/>
<path d="M37.6287 56.0686C33.3252 56.0686 32.3031 58.7314 31.7383 61.3403C31.1734 64.03 31.2272 66.1548 35.6652 66.1548H35.8266C37.6018 66.1548 39.7267 66.1548 39.7267 66.1548C39.8343 66.1548 39.9688 66.0472 39.9957 65.9127L40.426 64.2183C40.4529 64.1107 40.3723 64.0569 40.2378 64.0569H36.2301C34.7776 64.0569 34.2666 63.5996 34.3204 62.6045C34.3204 62.4969 34.4549 62.201 34.5625 62.201H40.7219C40.9909 62.201 40.9909 62.0396 40.9909 62.0396C41.6633 59.2424 41.6902 56.0686 37.6287 56.0686ZM38.7584 60.2914C38.7584 60.4258 38.3281 60.399 38.3281 60.399L34.9928 60.3721C34.8852 60.3721 34.8314 60.2107 34.8314 60.1031C34.8314 60.1031 34.8314 59.9686 34.8583 59.9417C35.1273 59.0541 35.8804 58.5431 37.1177 58.5431C38.4894 58.5431 38.7853 59.2155 38.7853 59.9955" fill="#333333"/>
<path d="M19.0703 63.3844C19.0703 63.3844 20.2807 60.4527 20.5497 58.7851C20.9263 56.5258 19.7966 53.2444 15.4123 53.2444C11.0819 53.2444 9.17219 56.3644 8.47286 59.7803C7.74664 63.1961 8.68804 66.1816 13.0185 66.1547H19.6083C19.7428 66.1547 19.8504 66.0472 19.8773 65.9396L20.4421 63.8147C20.469 63.7071 20.3883 63.5996 20.2807 63.5996H19.7428H19.2048C19.0972 63.5996 19.0435 63.5189 19.0435 63.4382C19.0703 63.4382 19.0703 63.4113 19.0703 63.3844ZM16.811 61.6092L16.3268 63.3037C16.2999 63.4113 16.1655 63.492 16.031 63.492H13.4488C11.5122 63.492 11.0281 61.9858 11.5122 59.7534C11.9964 57.4671 12.9109 56.0685 14.8206 55.9071C17.4296 55.7189 17.9676 57.5478 17.322 59.6727L16.811 61.6092Z" fill="#333333"/>
</g>
<defs>
<clipPath id="clip0">
<rect width="48.9659" height="47.1594" fill="white" transform="translate(5.70508)"/>
</clipPath>
<clipPath id="clip1">
<rect width="59.9" height="19.0159" fill="white" transform="translate(0 53.2444)"/>
</clipPath>
</defs>
</svg>
