<svg width="60" height="68" viewBox="0 0 60 68" fill="none" xmlns="http://www.w3.org/2000/svg">
<path d="M5.55961 60.9597L0 0L59.9 0.0244165L54.3867 60.9135L29.9037 67.8017L5.55961 60.9597ZM49.8785 57.6309L54.5283 5.42045H29.999L30.187 63.0052L49.8785 57.6309ZM27.7082 13.0764H21.7509L21.68 44.3239L10.1168 41.1824L10.1413 48.3255L27.7082 53.0487V13.0764Z" fill="#D4B830"/>
<path d="M29.9971 5.39819H54.5264L49.8766 57.6085L29.9971 62.9828V5.39819ZM48.6154 48.8593L50.228 29.3371L38.3133 30.6637V20.2406L51.0234 20.1945L51.5382 13.0758L32.3588 13.168L32.6148 39.0873L44.2026 37.1096L44.0391 42.88L32.3588 45.9755L32.4759 53.0481L48.6154 48.8593Z" fill="#FDD83C"/>
</svg>
