<svg width="149" height="38" viewBox="0 0 149 38" fill="none" xmlns="http://www.w3.org/2000/svg">
<path d="M47.2139 0.413391H48.5797V12.9574H53.8381V14.3149H47.2139V0.413391Z" fill="black"/>
<path d="M63.9757 3.32575L61.6352 8.38533H66.31L63.9757 3.32575ZM64.1495 0.407244L70.5067 14.2964H69.0416L66.9122 9.72427H61.0081L58.8911 14.2964H57.3701L63.8081 0.388733L64.1495 0.407244Z" fill="black"/>
<path d="M87.8963 2.97406L86.8223 3.80704C86.2678 3.04654 85.5346 2.43226 84.6867 2.01768C83.8348 1.60291 82.8973 1.39162 81.9488 1.40066C80.8896 1.39334 79.8478 1.66818 78.9316 2.19661C78.0353 2.7127 77.2971 3.46132 76.796 4.36236C76.2805 5.28897 76.0173 6.33324 76.0324 7.39193C76.0126 8.18184 76.1551 8.96745 76.4511 9.70078C76.7472 10.4341 77.1905 11.0997 77.7542 11.657C78.3178 12.2143 78.9898 12.6515 79.7292 12.9419C80.4685 13.2324 81.2597 13.3699 82.0544 13.3462C82.9754 13.3552 83.8862 13.1533 84.7162 12.7564C85.5463 12.3594 86.2732 11.778 86.8409 11.057L87.9149 11.89C87.246 12.7653 86.3752 13.4679 85.3758 13.9385C84.3086 14.4304 83.1437 14.6772 81.9675 14.6604C80.9026 14.7097 79.8405 14.5163 78.8623 14.0949C77.8842 13.6735 77.016 13.0354 76.3242 12.2294C75.1629 10.8472 74.5453 9.09344 74.5859 7.29321C74.564 6.34041 74.739 5.39329 75.0999 4.51033C75.4608 3.62737 76 2.82732 76.6842 2.15959C77.3721 1.47321 78.194 0.93408 79.0994 0.575405C80.0048 0.21673 80.9745 0.0461112 81.9488 0.07406C83.142 0.0550747 84.3228 0.317268 85.3944 0.839166C86.4015 1.33493 87.268 2.07305 87.9149 2.9864" fill="black"/>
<path d="M99.7664 1.41913C98.7544 1.41978 97.7621 1.6973 96.8982 2.22126C96.0116 2.74093 95.2808 3.48647 94.7812 4.38083C94.2719 5.31403 94.0112 6.36118 94.0238 7.42275C94.0059 8.19585 94.1457 8.96456 94.4349 9.68249C94.724 10.4004 95.1565 11.0527 95.7062 11.6C96.2278 12.1473 96.8579 12.5812 97.5568 12.8743C98.2556 13.1674 99.008 13.3134 99.7664 13.303C100.799 13.3112 101.814 13.0403 102.703 12.5193C103.591 12.0114 104.321 11.2708 104.814 10.3783C105.32 9.45089 105.579 8.40993 105.565 7.35487C105.581 6.30936 105.322 5.2778 104.814 4.36232C104.308 3.4711 103.57 2.73156 102.678 2.22126C101.8 1.69319 100.793 1.41567 99.7664 1.41913ZM99.7043 0.0616816C100.668 0.0380276 101.627 0.213349 102.519 0.576568C103.411 0.939786 104.218 1.48301 104.888 2.17189C105.571 2.85055 106.107 3.65984 106.466 4.55075C106.825 5.44165 106.997 6.39562 106.974 7.35487C106.994 8.31224 106.82 9.26385 106.463 10.1532C106.106 11.0425 105.572 11.8513 104.894 12.5317C104.229 13.2037 103.435 13.7373 102.56 14.1016C101.685 14.4659 100.746 14.6535 99.7974 14.6535C98.8487 14.6535 97.9095 14.4659 97.0344 14.1016C96.1594 13.7373 95.366 13.2037 94.7005 12.5317C94.0258 11.8604 93.494 11.061 93.1367 10.1812C92.7794 9.30135 92.604 8.35905 92.6207 7.4104C92.6148 6.11686 92.9395 4.843 93.5644 3.70828C94.1703 2.59922 95.0671 1.67386 96.1594 1.0304C97.2326 0.387545 98.4638 0.0522731 99.7167 0.0616816H99.7043Z" fill="black"/>
<path d="M112.325 14.3149V0.413391H112.623L121.687 11.0447V0.413391H123.053V14.3149H122.743L113.734 3.77616V14.3149H112.325Z" fill="black"/>
<path d="M130.112 0.407227H128.746V14.3087H130.112V0.407227Z" fill="black"/>
<path d="M148.52 2.97408L147.439 3.80706C146.885 3.04656 146.152 2.43228 145.304 2.0177C144.452 1.60228 143.515 1.39096 142.566 1.40068C141.507 1.39336 140.465 1.6682 139.549 2.19663C138.649 2.70672 137.905 3.44854 137.394 4.34387C136.879 5.27048 136.616 6.31475 136.631 7.37344C136.611 8.16335 136.754 8.94897 137.05 9.68229C137.346 10.4156 137.789 11.0813 138.353 11.6385C138.916 12.1958 139.588 12.633 140.328 12.9234C141.067 13.2139 141.858 13.3514 142.653 13.3277C143.574 13.3367 144.485 13.1349 145.315 12.7379C146.145 12.341 146.872 11.7595 147.439 11.0385L148.52 11.8715C147.847 12.7457 146.974 13.448 145.974 13.92C144.907 14.4119 143.742 14.6587 142.566 14.642C141.501 14.6912 140.439 14.4978 139.461 14.0764C138.483 13.6551 137.615 13.0169 136.923 12.2109C135.763 10.8281 135.148 9.07425 135.191 7.27472C135.168 6.32178 135.342 5.37433 135.703 4.49121C136.064 3.60809 136.604 2.80816 137.289 2.1411C137.975 1.4543 138.796 0.914834 139.7 0.556099C140.605 0.197364 141.574 0.0270051 142.547 0.0555707C143.741 0.0365854 144.921 0.298778 145.993 0.820677C147 1.31863 147.868 2.05623 148.52 2.96791" fill="black"/>
<path d="M48.5238 35.5651H50.1007C51.4147 35.6228 52.7305 35.5024 54.0119 35.2072C55.005 34.8806 55.8567 34.2278 56.4269 33.3562C57.0341 32.3837 57.3387 31.2546 57.3022 30.1106C57.3388 28.8955 57.0056 27.6977 56.3462 26.6738C55.7239 25.73 54.7843 25.0368 53.6953 24.7179C52.3142 24.4005 50.896 24.2718 49.4799 24.3353H48.5238V35.5651ZM47.2139 36.8794V22.9779H50.0386C51.5376 22.9094 53.038 23.0781 54.4837 23.4777C55.7721 23.9231 56.8678 24.7942 57.5878 25.9458C58.3573 27.1999 58.7454 28.6484 58.7053 30.1168C58.7353 31.3964 58.4293 32.6618 57.8175 33.7881C57.2992 34.7778 56.5007 35.595 55.5205 36.1389C54.2796 36.7007 52.9215 36.9588 51.5596 36.8917L47.2139 36.8794Z" fill="black"/>
<path d="M63.9448 22.9779H71.7486V24.3354H65.3106V28.6915H71.6927V30.0428H65.3106V35.5219H71.6927V36.8794H63.9448V22.9779Z" fill="black"/>
<path d="M75.2871 34.2817L76.448 33.5659C77.2634 35.1167 78.207 35.8921 79.279 35.8921C79.7304 35.8936 80.1747 35.7811 80.5703 35.5651C80.9572 35.3579 81.2745 35.0426 81.4829 34.6581C81.6903 34.3062 81.7995 33.9058 81.7995 33.4981C81.7897 33.0048 81.6271 32.5265 81.3339 32.1283C80.6663 31.2772 79.8779 30.5269 78.9934 29.9008C78.212 29.3514 77.4974 28.7137 76.864 28.0004C76.4124 27.3864 76.1708 26.6446 76.1749 25.884C76.1684 25.3049 76.3162 24.7344 76.6032 24.2304C76.8845 23.7338 77.3023 23.3272 77.8076 23.0581C78.3207 22.7702 78.9009 22.6212 79.4901 22.6262C80.1272 22.6252 80.7531 22.7935 81.3029 23.1136C82.0121 23.5846 82.6182 24.1932 83.0846 24.903L81.9734 25.7668C81.6173 25.2345 81.1697 24.7688 80.651 24.3908C80.2946 24.1731 79.8836 24.0597 79.4652 24.0638C79.2161 24.0534 78.9673 24.0928 78.7338 24.1797C78.5002 24.2666 78.2866 24.3993 78.1056 24.5698C77.9385 24.7295 77.8056 24.9211 77.7149 25.1332C77.6243 25.3453 77.5777 25.5734 77.5779 25.8038C77.5781 26.1056 77.6415 26.404 77.7642 26.68C77.9343 27.0284 78.1655 27.3439 78.4471 27.6117C78.6209 27.7845 79.2169 28.2287 80.2164 28.9938C81.155 29.6455 81.9775 30.4484 82.6501 31.3693C83.0696 31.9884 83.3002 32.7148 83.3143 33.461C83.3164 33.9526 83.2171 34.4394 83.0228 34.8914C82.8285 35.3435 82.5432 35.7512 82.1844 36.0896C81.8284 36.4525 81.4011 36.7389 80.9291 36.931C80.457 37.1231 79.9504 37.2169 79.4404 37.2064C78.6372 37.2132 77.8511 36.9764 77.1868 36.5276C76.3916 35.9303 75.7528 35.1515 75.3244 34.257" fill="black"/>
<path d="M89.9137 22.9779H88.5479V36.8794H89.9137V22.9779Z" fill="black"/>
<path d="M108.787 25.3041L107.731 26.3283C107.022 25.5987 106.179 25.0102 105.248 24.5945C104.415 24.2071 103.51 23.9969 102.591 23.9775C101.518 23.9795 100.464 24.2557 99.5301 24.7796C98.6093 25.2795 97.84 26.0151 97.3018 26.9102C96.7636 27.8053 96.4762 28.8273 96.4694 29.87C96.477 30.9334 96.7683 31.9757 97.3137 32.8906C97.859 33.8055 98.6388 34.5602 99.5736 35.0777C100.545 35.6152 101.64 35.8957 102.752 35.8921C104.053 35.9209 105.32 35.4828 106.322 34.6581C107.269 33.8837 107.886 32.7813 108.048 31.573H103.702V30.2217H109.587C109.632 31.1543 109.49 32.0863 109.17 32.9642C108.851 33.8421 108.36 34.6485 107.725 35.3368C107.072 35.9747 106.295 36.4722 105.44 36.7981C104.586 37.124 103.673 37.2714 102.758 37.2311C101.623 37.2801 100.491 37.0685 99.451 36.6127C98.411 36.1569 97.4906 35.469 96.7612 34.6026C95.6422 33.2978 95.0377 31.6337 95.0602 29.9194C95.0532 28.6316 95.3895 27.3649 96.0349 26.2481C96.6646 25.1346 97.5903 24.2146 98.7106 23.5887C99.8862 22.9371 101.214 22.6051 102.56 22.6262C103.681 22.6153 104.793 22.825 105.831 23.2432C106.95 23.7305 107.965 24.4234 108.824 25.2856" fill="black"/>
<path d="M114.771 36.8794V22.9779H115.069L124.133 33.6092V22.9779H125.499V36.8794H125.189L116.181 26.3407V36.8794H114.771Z" fill="black"/>
<path d="M132.993 23.4283H131.646V22.9347H134.923V23.416H133.57V27.3341H132.993V23.4283Z" fill="black"/>
<path d="M139.083 25.4028C139.052 24.7858 139.015 24.0515 139.021 23.5024C138.866 24.0206 138.686 24.5698 138.462 25.1745L137.636 27.3155H137.202L136.488 25.2238C136.277 24.6068 136.103 24.0392 135.979 23.5147C135.979 24.0638 135.929 24.7981 135.892 25.4583L135.774 27.3464H135.228L135.538 22.947H136.264L137.016 25.0758C137.196 25.6187 137.351 26.1 137.456 26.5566C137.568 26.1124 137.723 25.6311 137.922 25.0758L138.748 22.9347H139.499L139.772 27.3341H139.213L139.083 25.4028Z" fill="black"/>
<path fill-rule="evenodd" clip-rule="evenodd" d="M10.5229 37.2311H28.0364L19.2393 28.7964L10.5229 37.2311Z" fill="black"/>
<path fill-rule="evenodd" clip-rule="evenodd" d="M0 32.5664V37.2311H3.17862L19.2579 21.676L35.4987 37.2311H38.6959V32.5972L21.1825 15.8204L19.2393 13.957L17.3023 15.8266L0 32.5664Z" fill="black"/>
<path fill-rule="evenodd" clip-rule="evenodd" d="M20.3009 0H18.1839L17.3023 0.857659L0 17.5913V24.1379L0.602199 24.7487L19.2579 6.70085L38.1123 24.7611L38.6959 24.1564V17.6221L21.1825 0.84532L20.3009 0Z" fill="black"/>
<path fill-rule="evenodd" clip-rule="evenodd" d="M10.852 0H0.732572L0 0.709574V9.00851L0.602199 9.61936L10.852 0Z" fill="black"/>
<path fill-rule="evenodd" clip-rule="evenodd" d="M37.9258 0H27.707L38.112 9.61936L38.7018 9.00851V0.740426L37.9258 0Z" fill="black"/>
</svg>
