<svg width="60" height="52" viewBox="0 0 60 52" fill="none" xmlns="http://www.w3.org/2000/svg">
<g clip-path="url(#clip0)">
<path d="M37.1914 40.7427C36.8739 40.7427 36.571 40.5791 36.4 40.2957L29.4264 28.6641L16.3975 32.2083C15.9823 32.3206 15.5426 32.1326 15.3423 31.7515L0.107798 3.09733C-0.0338732 2.83108 -0.0363158 2.5111 0.102913 2.24241C0.239699 1.97373 0.501057 1.79053 0.799055 1.74901L13.7424 0.00743042C14.1064 -0.0414217 14.4679 0.132003 14.656 0.447099L30.2886 26.517L48.4445 21.5805L42.3795 13.0338C42.2012 12.7847 42.1597 12.4623 42.2696 12.174C42.3795 11.8858 42.6213 11.6733 42.9193 11.6025L51.4147 9.5971C51.7616 9.51405 52.1231 9.64106 52.3453 9.91708L59.6976 19.0939C59.8906 19.3358 59.9516 19.6606 59.8539 19.9562C59.7587 20.2517 59.5193 20.4789 59.2188 20.5595L51.4758 22.665L58.2271 32.1814C58.3957 32.4184 58.4421 32.7188 58.3542 32.9948C58.2662 33.2708 58.0537 33.4882 57.7801 33.5859L37.4943 40.689C37.3942 40.7257 37.2916 40.7427 37.1914 40.7427ZM31.273 28.1609L37.5945 38.7007L56.0141 32.2498L49.5803 23.1804L31.273 28.1609ZM2.35744 3.40021L16.6198 30.2322L28.4371 27.0178L13.3858 1.91755L2.35744 3.40021ZM44.6756 13.0827L50.34 21.0651L57.3796 19.1501L51.273 11.5243L44.6756 13.0827Z" fill="#F0543F"/>
<path d="M13.2051 43.3855H13.9769V51.6879H13.2051V43.3855Z" fill="#6D6E6E"/>
<path d="M21.547 45.6986V51.6904H20.7874V50.6596C20.4649 51.0529 20.101 51.3484 19.7004 51.5463C19.2974 51.7441 18.8577 51.8443 18.3814 51.8443C17.5338 51.8443 16.8084 51.5365 16.2099 50.9209C15.609 50.3054 15.3086 49.558 15.3086 48.6762C15.3086 47.8139 15.6115 47.0762 16.2172 46.4631C16.823 45.85 17.5509 45.5447 18.4034 45.5447C18.8943 45.5447 19.3413 45.6497 19.7395 45.8573C20.1376 46.0674 20.4869 46.3801 20.7874 46.7978V45.6961H21.547V45.6986ZM18.4669 46.2872C18.037 46.2872 17.6413 46.3923 17.2798 46.6023C16.9158 46.8124 16.6276 47.1104 16.4127 47.4915C16.1977 47.8725 16.0902 48.2756 16.0902 48.7006C16.0902 49.1232 16.1977 49.5262 16.4151 49.9097C16.6325 50.2956 16.9232 50.5936 17.2871 50.8086C17.6511 51.0235 18.0443 51.131 18.462 51.131C18.8846 51.131 19.2827 51.0235 19.6613 50.811C20.0399 50.5985 20.3306 50.3103 20.5333 49.9463C20.7361 49.5824 20.8386 49.1745 20.8386 48.7201C20.8386 48.0264 20.6115 47.4475 20.1547 46.981C19.6955 46.5217 19.1337 46.2872 18.4669 46.2872Z" fill="#6D6E6E"/>
<path d="M22.9883 45.6986H23.7748V46.573C24.0093 46.2286 24.2584 45.9697 24.5174 45.7987C24.7787 45.6277 25.0498 45.5422 25.3332 45.5422C25.5457 45.5422 25.7729 45.6106 26.0171 45.745L25.6141 46.3947C25.4529 46.3239 25.3161 46.2897 25.2062 46.2897C24.9497 46.2897 24.7005 46.3947 24.4636 46.6072C24.2242 46.8173 24.0435 47.147 23.9189 47.5891C23.8237 47.9311 23.7748 48.6199 23.7748 49.6605V51.6878H22.9883V45.6986Z" fill="#6D6E6E"/>
<path d="M32.6409 45.6986V51.6904H31.8812V50.6596C31.5588 51.0529 31.1948 51.3484 30.7942 51.5463C30.3912 51.7441 29.9515 51.8443 29.4752 51.8443C28.6276 51.8443 27.9021 51.5365 27.3037 50.9209C26.7028 50.3054 26.4023 49.558 26.4023 48.6762C26.4023 47.8139 26.7052 47.0762 27.311 46.4631C27.9168 45.85 28.6447 45.5447 29.4972 45.5447C29.9882 45.5447 30.4352 45.6497 30.8333 45.8573C31.2315 46.0674 31.5808 46.3801 31.8812 46.7978V45.6961H32.6409V45.6986ZM29.5607 46.2872C29.1308 46.2872 28.7351 46.3923 28.3736 46.6023C28.0096 46.8124 27.7214 47.1104 27.5064 47.4915C27.2915 47.8725 27.184 48.2756 27.184 48.7006C27.184 49.1232 27.2915 49.5262 27.5089 49.9097C27.7263 50.2956 28.0169 50.5936 28.3809 50.8086C28.7448 51.0235 29.1381 51.131 29.5558 51.131C29.9784 51.131 30.3765 51.0235 30.7551 50.811C31.1338 50.5985 31.4244 50.3103 31.6272 49.9463C31.8299 49.5824 31.9325 49.1745 31.9325 48.7201C31.9325 48.0264 31.7053 47.4475 31.2486 46.981C30.7918 46.5144 30.2275 46.2872 29.5607 46.2872Z" fill="#6D6E6E"/>
<path d="M33.8086 45.6987H34.6293L36.6396 50.066L38.6254 45.6987H39.451L36.708 51.6903H36.5639L33.8086 45.6987Z" fill="#6D6E6E"/>
<path d="M45.6696 49.702L46.3193 50.044C46.1068 50.4616 45.8601 50.8012 45.5817 51.0576C45.3032 51.3141 44.9881 51.5095 44.6388 51.6439C44.2895 51.7782 43.8938 51.8442 43.4542 51.8442C42.4771 51.8442 41.7126 51.5242 41.1606 50.8842C40.6085 50.2442 40.335 49.5188 40.335 48.7127C40.335 47.9531 40.5694 47.2765 41.036 46.6805C41.6271 45.9233 42.4185 45.5471 43.4102 45.5471C44.4312 45.5471 45.247 45.9355 45.8577 46.7098C46.29 47.2569 46.5123 47.9384 46.5196 48.7591H41.1288C41.1435 49.4553 41.3657 50.0244 41.7956 50.4714C42.2255 50.916 42.758 51.1382 43.3882 51.1382C43.6935 51.1382 43.9891 51.0845 44.2798 50.9795C44.568 50.8744 44.8147 50.7328 45.015 50.5569C45.2153 50.3762 45.4327 50.0928 45.6696 49.702ZM45.6696 48.0899C45.567 47.6795 45.418 47.3498 45.2202 47.1031C45.0223 46.8564 44.7634 46.6585 44.441 46.5095C44.1186 46.3581 43.7766 46.2848 43.42 46.2848C42.8313 46.2848 42.3257 46.4729 41.9031 46.8515C41.5953 47.1275 41.3609 47.5403 41.2021 48.0899H45.6696Z" fill="#6D6E6E"/>
<path d="M47.8389 43.3855H48.6107V51.6879H47.8389V43.3855Z" fill="#6D6E6E"/>
</g>
<defs>
<clipPath id="clip0">
<rect width="59.9" height="51.8443" fill="white"/>
</clipPath>
</defs>
</svg>
