<svg width="58" height="47" viewBox="0 0 58 47" fill="none" xmlns="http://www.w3.org/2000/svg">
<path d="M3.41602 7.89941V27.7749L6.84834 25.8555V9.83462L3.41602 7.89941Z" fill="#949494"/>
<path d="M0 25.8556V1.91943L20.3397 13.4672V17.5121L3.41644 7.89952V27.775L0 25.8556Z" fill="#EFEFEF"/>
<path d="M41.0927 1.91943V25.8557L27.3952 33.5489L23.9629 31.4075L37.6604 23.7142V7.69331L20.3398 17.5121V13.4672L41.0927 1.91943Z" fill="#949494"/>
<path d="M37.6603 0L20.5463 9.61256L3.41644 0L0 1.91934L20.3397 13.4671L41.0926 1.91934L37.6603 0Z" fill="#D6D6D6"/>
<path d="M34.2441 9.61245V21.7947L37.6606 23.714V7.69312L34.2441 9.61245Z" fill="#EFEFEF"/>
<path d="M17.1143 31.4075L34.2441 21.7949L37.6606 23.7143L23.963 31.4075L37.454 39.1007L51.1515 31.4075L54.5838 33.3268L37.454 42.9394L17.1143 31.4075Z" fill="#D6D6D6"/>
<path d="M17.1143 31.4072V35.468L37.454 46.9999V42.9391L17.1143 31.4072Z" fill="#EFEFEF"/>
<path d="M54.5837 33.3265V21.3664L51.1514 19.447V31.4072L54.5837 33.3265Z" fill="#EFEFEF"/>
<path d="M37.4541 42.9391L54.584 33.3265V21.3664L58.0004 19.447V35.4679L37.4541 46.9998V42.9391Z" fill="#949494"/>
<path d="M58.0001 19.4472L54.5837 21.3665L51.1514 19.4472L54.5837 17.512L58.0001 19.4472Z" fill="#D6D6D6"/>
<path d="M54.584 17.5121V13.4672L58.0004 11.532V15.5927L54.584 17.5121Z" fill="#949494"/>
<path d="M54.5837 13.4672V17.5121L51.1514 15.5927V11.532L54.5837 13.4672Z" fill="#EFEFEF"/>
<path d="M58.0001 11.5319L54.5837 13.4671L51.1514 11.5319L54.5837 9.61255L58.0001 11.5319Z" fill="#D6D6D6"/>
</svg>
