<svg width="60" height="41" viewBox="0 0 60 41" fill="none" xmlns="http://www.w3.org/2000/svg">
<path d="M14.401 37.0597H12.0897C12.008 33.1584 11.7829 29.4907 11.4148 26.054H11.3943L7.87534 37.0597H6.11564L2.61767 26.054H2.59757C2.33808 29.3536 2.17462 33.0222 2.10673 37.0597H0C0.135774 32.1499 0.476995 27.547 1.02232 23.2505H3.88698L7.22103 33.3974H7.24158L10.5962 23.2505H13.3371C13.9374 28.2831 14.292 32.8864 14.401 37.0597ZM24.4246 26.8713C23.4835 31.978 22.2419 35.6885 20.7011 38.0047C19.5005 39.7877 18.1852 40.68 16.7529 40.68C16.371 40.68 15.8998 40.5648 15.3416 40.3361V39.1048C15.6145 39.1441 15.9347 39.1664 16.3027 39.1664C16.9717 39.1664 17.5095 38.9824 17.9195 38.6135C18.4099 38.1642 18.6551 37.6591 18.6551 37.1003C18.6551 36.7171 18.4639 35.9337 18.0825 34.7475L15.5461 26.8708H17.8168L19.6372 32.7618C20.0463 34.0995 20.2169 35.0333 20.1486 35.5653C21.1441 32.9065 21.8395 30.0075 22.2357 26.8704H24.4246V26.8713Z" fill="#5D87A1"/>
<path d="M55.1908 37.0596H48.6254V23.2504H50.834V35.3597H55.1908V37.0596ZM46.9068 37.3932L44.3682 36.1404C44.5933 35.9555 44.8086 35.7554 45.0024 35.5236C46.0815 34.2561 46.6196 32.3816 46.6196 29.8988C46.6196 25.3303 44.8269 23.0449 41.24 23.0449C39.4812 23.0449 38.1092 23.6246 37.128 24.7845C36.0498 26.0529 35.5116 27.9207 35.5116 30.3901C35.5116 32.8175 35.9886 34.5982 36.9431 35.7277C37.8162 36.7509 39.1324 37.2632 40.8926 37.2632C41.5491 37.2632 42.1516 37.1828 42.7005 37.0207L46.0055 38.9448L46.9068 37.3932ZM38.6831 34.2963C38.1239 33.3968 37.8444 31.9524 37.8444 29.9609C37.8444 26.4839 38.9006 24.7434 41.0154 24.7434C42.1208 24.7434 42.931 25.1597 43.4491 25.9904C44.0073 26.8913 44.2883 28.3227 44.2883 30.2865C44.2883 33.7921 43.2311 35.5451 41.1177 35.5451C40.0118 35.5455 39.2016 35.1306 38.6831 34.2963ZM34.5492 33.232C34.5492 34.403 34.1195 35.3637 33.2611 36.1163C32.4018 36.8657 31.2495 37.2413 29.8055 37.2413C28.455 37.2413 27.1455 36.8099 25.8779 35.9515L26.4715 34.7657C27.5622 35.3119 28.5496 35.5835 29.4362 35.5835C30.2683 35.5835 30.9185 35.399 31.3902 35.0332C31.8614 34.6661 32.1423 34.1511 32.1423 33.5C32.1423 32.6795 31.5702 31.9783 30.5206 31.391C29.5528 30.8595 27.6171 29.7483 27.6171 29.7483C26.568 28.9837 26.0427 28.1628 26.0427 26.8104C26.0427 25.6912 26.4344 24.7877 27.2183 24.1003C28.003 23.4103 29.0155 23.0664 30.2566 23.0664C31.5385 23.0664 32.7037 23.4098 33.7533 24.0896L33.2209 25.2758C32.3232 24.8944 31.4371 24.7037 30.563 24.7037C29.8551 24.7037 29.3085 24.8739 28.9284 25.2155C28.5452 25.5558 28.3089 25.9913 28.3089 26.5255C28.3089 27.3419 28.8931 28.052 29.9712 28.651C30.952 29.1833 32.9359 30.3137 32.9359 30.3137C34.0119 31.077 34.5492 31.8903 34.5492 33.232Z" fill="#F8981D"/>
<path d="M57.9625 18.6252C56.627 18.5912 55.5931 18.7257 54.7253 19.0928C54.4748 19.1928 54.0764 19.1928 54.0415 19.5095C54.1769 19.6435 54.1925 19.8596 54.31 20.0445C54.51 20.3782 54.8589 20.827 55.1773 21.0611C55.527 21.329 55.878 21.5943 56.2461 21.8279C56.895 22.2294 57.6306 22.463 58.263 22.8632C58.6315 23.0959 58.9977 23.3969 59.3666 23.6475C59.548 23.781 59.6641 23.9976 59.8995 24.0811V24.0302C59.7816 23.8802 59.7481 23.6631 59.6324 23.4961L59.1313 23.0128C58.6471 22.3625 58.0455 21.7949 57.3966 21.3286C56.8624 20.9606 55.694 20.4604 55.4774 19.8449L55.4435 19.811C55.8106 19.7766 56.2461 19.6435 56.5949 19.5412C57.1625 19.3916 57.6802 19.4255 58.2626 19.2759C58.5306 19.2089 58.7963 19.1249 59.0652 19.0423V18.8918C58.7633 18.5912 58.548 18.1919 58.2304 17.9079C57.3809 17.1741 56.4448 16.4564 55.4774 15.8556C54.9593 15.5211 54.293 15.3058 53.7414 15.0213C53.5427 14.9209 53.2077 14.8713 53.0907 14.7042C52.7914 14.3371 52.6231 13.8539 52.406 13.4193C51.9236 12.5024 51.4551 11.485 51.0389 10.5154C50.7378 9.86506 50.5547 9.21567 50.1876 8.61407C48.4681 5.778 46.6008 4.06028 43.7307 2.37427C43.114 2.02322 42.3802 1.8736 41.5963 1.68959L40.3444 1.62349C40.0774 1.50648 39.8098 1.18893 39.5767 1.03886C38.6245 0.438597 36.173 -0.862421 35.4727 0.855299C35.0216 1.94104 36.1399 3.00848 36.524 3.55917C36.8076 3.94148 37.1752 4.37649 37.3735 4.81061C37.4909 5.09422 37.524 5.39524 37.6415 5.69493C37.9085 6.42918 38.1582 7.24605 38.5093 7.93118C38.6924 8.28044 38.892 8.64756 39.126 8.96377C39.26 9.14868 39.4932 9.23041 39.5441 9.53188C39.3114 9.86417 39.2931 10.3657 39.1595 10.7829C38.5593 12.6681 38.7938 15.0035 39.6446 16.3889C39.9108 16.8061 40.5459 17.7243 41.3953 17.3724C42.1475 17.0723 41.9809 16.1214 42.197 15.2875C42.2466 15.0861 42.214 14.9539 42.3141 14.8217V14.8543C42.5467 15.321 42.7817 15.7708 42.9974 16.2388C43.515 17.0557 44.4163 17.907 45.1671 18.4729C45.5668 18.7748 45.8835 19.2911 46.3841 19.4755V19.4255H46.3511C46.2497 19.2759 46.1014 19.2089 45.9683 19.0928C45.6673 18.7922 45.3341 18.4251 45.1005 18.0919C44.4011 17.1571 43.7821 16.1223 43.2328 15.0544C42.9639 14.5363 42.7321 13.97 42.5155 13.4528C42.4145 13.2532 42.4145 12.9521 42.2471 12.8516C41.9961 13.2183 41.6303 13.5359 41.4472 13.9852C41.1296 14.7038 41.0966 15.5877 40.9786 16.5068L40.913 16.539C40.3815 16.4054 40.1966 15.8556 39.9947 15.3889C39.495 14.2036 39.411 12.301 39.8447 10.9334C39.9608 10.5837 40.4632 9.48231 40.2627 9.14912C40.1622 8.82979 39.8281 8.64801 39.645 8.39656C39.4298 8.08035 39.1939 7.68017 39.0439 7.32913C38.6437 6.39523 38.4423 5.36041 38.0113 4.42696C37.8098 3.99195 37.4601 3.54175 37.177 3.14113C36.859 2.69093 36.5093 2.37382 36.2578 1.84011C36.1747 1.65654 36.0582 1.35641 36.1917 1.15677C36.2243 1.02278 36.2922 0.972761 36.4253 0.939264C36.6415 0.756594 37.2592 0.988839 37.4758 1.08933C38.0943 1.33944 38.6115 1.57302 39.1278 1.92318C39.3614 2.09066 39.612 2.40777 39.9117 2.49128H40.2627C40.7955 2.60741 41.3962 2.52344 41.8978 2.6744C42.7817 2.95846 43.5825 3.37516 44.3006 3.82491C46.486 5.21078 48.2881 7.17996 49.5047 9.53188C49.7044 9.91509 49.7892 10.2661 49.9714 10.6659C50.3229 11.4841 50.7575 12.3184 51.1063 13.1192C51.4569 13.903 51.791 14.7034 52.2917 15.3545C52.5413 15.7047 53.5444 15.8883 53.9942 16.0718C54.3269 16.2214 54.845 16.3545 55.1451 16.5381C55.7128 16.8878 56.2782 17.2893 56.8119 17.6739C57.0777 17.8739 57.9129 18.2911 57.9625 18.6252ZM40.9434 4.12593C40.713 4.12354 40.4834 4.15178 40.2605 4.2099V4.24339H40.2926C40.4271 4.51003 40.6606 4.69493 40.8272 4.92763C40.9617 5.19515 41.0782 5.46045 41.21 5.72753L41.2422 5.69448C41.4775 5.52789 41.5945 5.26081 41.5945 4.86018C41.4932 4.74228 41.4775 4.62705 41.3931 4.51003C41.2949 4.34299 41.0782 4.25992 40.9434 4.12593Z" fill="#5D87A1"/>
<path d="M59.5521 37.0575H59.8978V35.3657H59.3793L58.9563 36.5202L58.4968 35.3657H57.9974V37.0575H58.3239V35.7703H58.3422L58.8237 37.0575H59.0725L59.5521 35.7703V37.0575ZM56.7674 37.0575H57.1332V35.6524H57.612V35.3652H56.2686V35.6524H56.7665L56.7674 37.0575Z" fill="#F8981D"/>
</svg>
