<svg width="60" height="30" viewBox="0 0 60 30" fill="none" xmlns="http://www.w3.org/2000/svg">
<path d="M29.95 0C13.1555 0 0 6.57835 0 14.975C0 23.3716 13.1555 29.95 29.95 29.95C46.7445 29.95 59.9 23.3716 59.9 14.975C59.9 6.57835 46.7445 0 29.95 0Z" fill="#303C42"/>
<path d="M29.9503 27.454C22.7746 27.454 16.1527 26.117 11.2012 23.9825L12.2064 19.9665H16.5839C19.8841 19.9665 22.748 17.7302 23.5499 14.5276L23.7681 13.6489C24.1422 12.1573 23.8131 10.606 22.8675 9.39452C21.9205 8.18201 20.4971 7.48731 18.9591 7.48731H13.7273C13.1545 7.48731 12.6562 7.87725 12.5172 8.43296L8.90446 22.884C4.92368 20.7134 2.49609 17.9459 2.49609 14.9748C2.49609 8.20997 15.0691 2.49561 29.9503 2.49561C44.8315 2.49561 57.4045 8.20997 57.4045 14.9748C57.4045 21.7397 44.8315 27.454 29.9503 27.454Z" fill="#82B1FF"/>
<path opacity="0.2" d="M3.74405 16.2228C3.74405 9.45793 16.3171 3.74356 31.1983 3.74356C41.6195 3.74356 50.8903 6.55044 55.5222 10.5534C51.4971 5.8975 41.4231 2.49561 29.9503 2.49561C15.0691 2.49561 2.49609 8.20997 2.49609 14.9748C2.49609 16.9663 3.60647 18.8609 5.52432 20.551C4.38037 19.1954 3.74405 17.7361 3.74405 16.2228Z" fill="white"/>
<path d="M12.8301 17.4707L14.702 9.98315H18.9587C19.7216 9.98315 20.4297 10.328 20.8988 10.9301C21.3692 11.5321 21.5325 12.3023 21.3461 13.0445L21.1279 13.9231C20.605 16.0119 18.7368 17.4707 16.5834 17.4707H12.8301Z" fill="#82B1FF"/>
<path d="M12.8301 17.4707L14.702 9.98315H18.9587C19.7216 9.98315 20.4297 10.328 20.8988 10.9301C21.3692 11.5321 21.5325 12.3023 21.3461 13.0445L21.1279 13.9231C20.605 16.0119 18.7368 17.4707 16.5834 17.4707H12.8301Z" fill="#82B1FF"/>
<path d="M47.6602 7.48755H42.4284C41.8556 7.48755 41.3572 7.87748 41.2182 8.4332L38.7285 18.3885C38.7236 18.4068 38.72 18.4239 38.715 18.4409L37.4745 23.4082C37.3062 24.076 37.7134 24.7536 38.3823 24.9206C38.4835 24.9462 38.5859 24.9583 38.6858 24.9583C39.2451 24.9583 39.7534 24.5806 39.8947 24.0127L40.9074 19.9668H45.2849C48.585 19.9668 51.4489 17.7304 52.2508 14.5278L52.469 13.6492C52.8431 12.1575 52.514 10.6062 51.5684 9.39476C50.6216 8.18225 49.1981 7.48755 47.6602 7.48755ZM50.0476 13.0447L49.8294 13.9233C49.3066 16.0121 47.4383 17.4708 45.285 17.4708H41.5315L43.4034 9.98334H47.6602C48.4231 9.98334 49.1311 10.3282 49.6002 10.9303C50.0708 11.5323 50.234 12.3025 50.0476 13.0447Z" fill="#303C42"/>
<path d="M36.6767 9.01072C35.8882 8.04307 34.7207 7.48736 33.4716 7.48736H29.5156L29.929 5.21455C30.0533 4.53694 29.6036 3.88739 28.9248 3.76432C28.2509 3.63996 27.5965 4.08967 27.4746 4.76846L24.9787 18.4956C24.8543 19.1732 25.304 19.8228 25.9828 19.9459C26.0584 19.9605 26.1327 19.9666 26.2071 19.9666C26.7994 19.9666 27.3246 19.5449 27.4331 18.9417L29.0618 9.98327H33.4716C33.9664 9.98327 34.4283 10.2026 34.7403 10.5865C35.0523 10.9703 35.1741 11.4676 35.073 11.9526L33.719 18.4652C33.5789 19.1391 34.0127 19.7996 34.6879 19.9411C34.7731 19.9581 34.8584 19.9667 34.9425 19.9667C35.5214 19.9667 36.0405 19.5621 36.1637 18.9723L37.5177 12.4596C37.7711 11.2372 37.464 9.97953 36.6767 9.01072Z" fill="#303C42"/>
<path d="M29.95 0C13.1555 0 0 6.57835 0 14.975C0 23.3716 13.1555 29.95 29.95 29.95C46.7445 29.95 59.9 23.3716 59.9 14.975C59.9 6.57835 46.7445 0 29.95 0Z" fill="url(#paint0_linear)"/>
<defs>
<linearGradient id="paint0_linear" x1="4.65997" y1="3.18116" x2="55.2404" y2="26.774" gradientUnits="userSpaceOnUse">
<stop stop-color="white" stop-opacity="0.2"/>
<stop offset="1" stop-color="white" stop-opacity="0"/>
</linearGradient>
</defs>
</svg>
