<svg width="60" height="58" viewBox="0 0 60 58" fill="none" xmlns="http://www.w3.org/2000/svg">
<path d="M2.49609 2.47852H57.4059V55.5213H2.49609V2.47852Z" fill="#001D26"/>
<path d="M0 0V58H59.9016V0H0ZM2.4959 2.47863H57.4057V55.5214H2.4959V2.47863ZM14.4762 13.5829C14.4762 13.4094 14.8257 13.2855 15.0253 13.2855C16.6227 13.2111 18.9938 13.1615 21.4648 13.1615C28.3784 13.1615 31.074 16.9291 31.074 21.7624C31.074 28.0581 26.4815 30.7598 20.8408 30.7598C19.8923 30.7598 19.5679 30.7103 18.894 30.7103V40.2282C18.894 40.4265 18.8191 40.5256 18.5945 40.5256H14.7757C14.5761 40.5256 14.4762 40.4513 14.4762 40.2282V13.5829ZM18.9189 26.7444C19.493 26.794 19.9423 26.794 20.9406 26.794C23.8608 26.794 26.6063 25.7778 26.6063 21.8368C26.6063 18.6889 24.6345 17.1026 21.315 17.1026C20.3166 17.1026 19.3682 17.1521 18.9189 17.1769V26.7444ZM40.3837 23.7949C38.4119 23.7949 37.738 24.7863 37.738 25.6043C37.738 26.4966 38.1873 27.1162 40.833 28.4795C44.7515 30.3632 45.9745 32.1726 45.9745 34.8248C45.9745 38.7906 42.9295 40.9222 38.8113 40.9222C36.6398 40.9222 34.7679 40.4761 33.6947 39.8564C33.52 39.7821 33.495 39.6581 33.495 39.4598V35.8162C33.495 35.5684 33.6198 35.494 33.7945 35.6179C35.3669 36.6342 37.164 37.0803 38.8113 37.0803C40.783 37.0803 41.6067 36.2624 41.6067 35.147C41.6067 34.2547 41.0326 33.4615 38.5118 32.1726C34.9676 30.4872 33.495 28.7769 33.495 25.9265C33.495 22.7291 36.0159 20.0769 40.3837 20.0769C42.5302 20.0769 44.0277 20.3991 44.8513 20.7709C45.051 20.8949 45.1009 21.0932 45.1009 21.2667V24.6624C45.1009 24.8607 44.9761 24.9846 44.7266 24.9103C43.6284 24.2162 42.006 23.7949 40.3837 23.7949Z" fill="#00C8FF"/>
</svg>
