<svg width="60" height="45" viewBox="0 0 60 45" fill="none" xmlns="http://www.w3.org/2000/svg">
<g clip-path="url(#clip0)">
<path d="M51.5426 25.8584C49.4586 25.8694 47.6474 26.3712 46.1308 27.1132C45.5744 26.0112 45.0179 25.0292 44.9197 24.3091C44.8106 23.469 44.6797 22.9562 44.8106 21.9524C44.9416 20.9486 45.5307 19.5193 45.5198 19.4102C45.5089 19.3011 45.3889 18.7883 44.1887 18.7774C42.9885 18.7665 41.952 19.0065 41.832 19.3229C41.712 19.6393 41.4829 20.3594 41.3301 21.1014C41.1228 22.1924 38.9297 26.0876 37.675 28.1279C37.2713 27.3314 36.9222 26.6331 36.8458 26.0767C36.7367 25.2365 36.6058 24.7237 36.7367 23.7199C36.8676 22.7161 37.4568 21.2868 37.4459 21.1777C37.435 21.0686 37.315 20.5558 36.1148 20.5449C34.9146 20.534 33.8781 20.774 33.758 21.0904C33.638 21.4069 33.5071 22.1488 33.2562 22.8689C33.0052 23.589 30.092 30.0918 29.3283 31.7721C28.9355 32.634 28.5973 33.3214 28.3572 33.7906C28.3572 33.7906 28.3463 33.8233 28.3136 33.8778C28.1063 34.2815 27.9863 34.4997 27.9863 34.4997C27.9863 34.4997 27.9863 34.4998 27.9863 34.5107C27.8226 34.8053 27.648 35.078 27.5607 35.078C27.4953 35.078 27.3753 34.2924 27.5826 33.2232C28.019 30.9647 29.0555 27.4514 29.0446 27.3314C29.0446 27.2659 29.241 26.6549 28.3681 26.3385C27.5171 26.0221 27.2116 26.5458 27.1352 26.5458C27.0588 26.5458 27.0043 26.7313 27.0043 26.7313C27.0043 26.7313 27.9535 22.7816 25.1931 22.7816C23.4692 22.7816 21.0907 24.6692 19.9123 26.3712C19.1704 26.7749 17.5883 27.6369 15.8972 28.5643C15.2534 28.9244 14.5879 29.2844 13.966 29.6226C13.9223 29.579 13.8787 29.5245 13.835 29.4808C10.4963 25.913 4.32085 23.3926 4.58271 18.6028C4.68091 16.8571 5.281 12.2746 16.4427 6.71008C25.6295 2.18212 32.9397 3.43686 34.2054 6.2191C36.0166 10.1906 30.2884 17.5663 20.7961 18.6355C17.1737 19.0392 15.2752 17.6426 14.7952 17.1189C14.2933 16.5734 14.2169 16.5407 14.0314 16.6498C13.7259 16.8134 13.9223 17.3044 14.0314 17.5881C14.3151 18.33 15.4825 19.6393 17.4574 20.283C19.2031 20.8504 23.4474 21.1668 28.5864 19.1811C34.3363 16.9553 38.8315 10.7689 37.5113 5.58627C36.1911 0.327294 27.4625 -1.40751 19.2031 1.52748C14.2933 3.2732 8.96883 6.0227 5.13916 9.60143C0.589379 13.8566 -0.13073 17.5554 0.16386 19.1047C1.2222 24.6037 8.80517 28.1824 11.8384 30.8337C11.6856 30.921 11.5438 30.9974 11.4237 31.0629C9.90716 31.8157 4.12446 34.838 2.68424 38.0348C1.04763 41.6572 2.9461 44.254 4.20084 44.6031C8.09597 45.6833 12.1002 43.7411 14.2496 40.5334C16.3991 37.3256 16.1372 33.1577 15.1443 31.2483C15.1334 31.2265 15.1225 31.2047 15.1007 31.1829C15.4935 30.9538 15.8972 30.7137 16.2899 30.4846C17.0646 30.0263 17.8284 29.6008 18.483 29.2517C18.112 30.2664 17.8393 31.4775 17.7083 33.2232C17.5447 35.2744 18.3848 37.9366 19.4868 38.9841C19.9778 39.4423 20.556 39.4532 20.927 39.4532C22.2145 39.4532 22.7927 38.384 23.4365 37.1183C24.2221 35.569 24.9313 33.7687 24.9313 33.7687C24.9313 33.7687 24.0475 38.6349 26.4478 38.6349C27.3207 38.6349 28.2045 37.5002 28.5973 36.9219V36.9328C28.5973 36.9328 28.6191 36.9001 28.6627 36.8237C28.75 36.6819 28.8046 36.5946 28.8046 36.5946V36.5728C29.1537 35.9618 29.9393 34.5761 31.1067 32.274C32.6124 29.3062 34.0636 25.5966 34.0636 25.5966C34.0636 25.5966 34.1945 26.5022 34.6418 28.0079C34.9037 28.8916 35.4492 29.8627 35.8856 30.801C35.5365 31.292 35.3183 31.5648 35.3183 31.5648C35.3183 31.5648 35.3183 31.5648 35.3292 31.5757C35.0455 31.9466 34.74 32.3503 34.4018 32.7431C33.2125 34.1615 31.7941 35.7872 31.5977 36.2564C31.3686 36.8128 31.4231 37.2165 31.8596 37.5438C32.176 37.7839 32.7433 37.8166 33.3216 37.7839C34.3909 37.7075 35.1437 37.4457 35.5147 37.282C36.0929 37.0747 36.7694 36.7583 37.4022 36.2891C38.5697 35.4272 39.2789 34.1942 39.2134 32.5685C39.1807 31.6739 38.8861 30.7792 38.526 29.9391C38.6352 29.7863 38.7333 29.6336 38.8425 29.4808C40.6864 26.7859 42.1157 23.829 42.1157 23.829C42.1157 23.829 42.2466 24.7346 42.694 26.2403C42.9122 27.0041 43.3595 27.8333 43.7523 28.6407C42.0175 30.0482 40.9482 31.6848 40.5664 32.754C39.879 34.7398 40.4136 35.6345 41.4283 35.8418C41.8866 35.94 42.5412 35.7218 43.0213 35.5145C43.6323 35.3181 44.3524 34.9798 45.0398 34.4779C46.2072 33.616 47.331 32.4158 47.2656 30.7901C47.2328 30.0482 47.0364 29.3171 46.7637 28.6079C48.2366 27.9969 50.1351 27.6587 52.5573 27.9424C57.7508 28.5534 58.7764 31.7939 58.58 33.1577C58.3836 34.5216 57.2925 35.2635 56.9325 35.4926C56.5724 35.7218 56.4524 35.7981 56.4851 35.9618C56.5288 36.2018 56.7034 36.1909 57.0089 36.1473C57.4344 36.0709 59.7365 35.0453 59.8347 32.5358C59.9984 29.3281 56.9434 25.8257 51.5426 25.8584ZM11.4783 39.3659C9.75441 41.2426 7.35404 41.9518 6.31752 41.3517C5.20462 40.708 5.64106 37.9366 7.75774 35.9509C9.04521 34.7398 10.7036 33.616 11.8056 32.9286C12.0566 32.7759 12.4275 32.5576 12.8749 32.2849C12.9513 32.2412 12.9949 32.2194 12.9949 32.2194C13.0822 32.1648 13.1695 32.1103 13.2568 32.0557C14.0314 34.8925 13.2895 37.3911 11.4783 39.3659ZM24.0257 30.8337C23.4256 32.2958 22.1708 36.0382 21.4071 35.8309C20.7524 35.6563 20.3487 32.8195 21.2762 30.0154C21.7453 28.608 22.7382 26.9277 23.3165 26.273C24.2548 25.2256 25.2913 24.8765 25.5423 25.302C25.8587 25.8584 24.3966 29.9172 24.0257 30.8337ZM34.38 35.7872C34.129 35.9181 33.889 36.0054 33.7799 35.94C33.7035 35.8963 33.889 35.7218 33.889 35.7218C33.889 35.7218 35.1874 34.3252 35.7002 33.6924C35.9948 33.3214 36.3439 32.885 36.7149 32.394V32.5358C36.7149 34.2052 35.1001 35.329 34.38 35.7872ZM42.3666 33.9651C42.1811 33.8342 42.2139 33.3978 42.8358 32.0339C43.0758 31.4993 43.6432 30.6046 44.6142 29.7427C44.7234 30.0918 44.7997 30.43 44.7888 30.7465C44.7779 32.8522 43.2722 33.6378 42.3666 33.9651Z" fill="#CD6799"/>
</g>
<defs>
<clipPath id="clip0">
<rect width="59.9" height="44.925" fill="white"/>
</clipPath>
</defs>
</svg>
