<svg width="60" height="60" viewBox="0 0 60 60" fill="none" xmlns="http://www.w3.org/2000/svg">
<g clip-path="url(#clip0)">
<path d="M0 0H59.9V59.9H0V0Z" fill="#34BDB2"/>
<path d="M39.4175 20.3664C36.255 18.5315 33.4477 17.0885 29.775 17.1522C27.6739 17.1887 25.8698 18.3308 25.4906 20.4209C25.1375 22.3656 26.8661 23.4443 28.6646 24.1064C31.6472 25.2048 34.2437 26.3644 37.1743 27.5855C42.5019 29.8058 45.2337 33.4015 44.9108 38.0149C44.4999 43.8849 40.9672 48.095 35.3528 49.483C28.0164 51.2968 20.8923 48.5339 14.873 44.6769C16.3923 42.3626 18.1549 40.7827 19.665 38.4824C23.1425 39.9626 25.8745 41.9627 29.5125 42.2746C32.0777 42.4946 34.9842 42.3722 35.5605 39.3592C36.08 36.6421 33.7153 35.1856 31.409 34.372C28.6631 33.4036 25.9225 32.2189 23.2298 31.1192C18.2522 29.0861 16.2269 25.1095 16.5678 20.4249C16.5678 17.6782 18.8468 12.1264 24.4346 10.3996C33.0199 7.74624 37.7502 10.4633 43.9758 14.4642C42.3222 16.651 41.051 18.2058 39.4175 20.3664Z" fill="white"/>
</g>
<defs>
<clipPath id="clip0">
<rect width="59.9" height="59.9" fill="white"/>
</clipPath>
</defs>
</svg>
