<svg width="60" height="60" viewBox="0 0 60 60" fill="none" xmlns="http://www.w3.org/2000/svg">
<path d="M4.25488 29.9499C4.25488 40.1226 10.1623 48.9113 18.7342 53.0733L6.48564 19.488C5.06043 22.6896 4.25488 26.2216 4.25488 29.9499Z" fill="#00749A"/>
<path d="M46.8214 28.3938C46.8214 25.2232 45.6854 23.0234 44.7042 21.309C43.3926 19.1919 42.174 17.4052 42.174 15.2881C42.174 12.923 43.9607 10.7233 46.4909 10.7233C46.6045 10.7233 46.7078 10.7336 46.8214 10.7439C42.2463 6.56124 36.1633 4 29.4711 4C20.4964 4 12.5958 8.6061 8 15.5772C8.599 15.5979 9.16702 15.6082 9.65241 15.6082C12.3376 15.6082 16.4996 15.2777 16.4996 15.2777C17.8835 15.1951 18.0487 17.2296 16.6648 17.3949C16.6648 17.3949 15.2706 17.5601 13.7215 17.6427L23.0783 45.4756L28.6965 28.6106L24.6894 17.6427C23.3055 17.5601 21.9939 17.3949 21.9939 17.3949C20.61 17.3123 20.7752 15.1951 22.1591 15.2777C22.1591 15.2777 26.4038 15.6082 28.9237 15.6082C31.6089 15.6082 35.7709 15.2777 35.7709 15.2777C37.1548 15.1951 37.32 17.2296 35.9361 17.3949C35.9361 17.3949 34.5419 17.5601 32.9928 17.6427L42.2773 45.2587L44.8385 36.6971C45.9745 33.1548 46.8214 30.5935 46.8214 28.3938Z" fill="#00749A"/>
<path d="M30.4046 32.2014L22.7002 54.602C25.0032 55.2836 27.4406 55.645 29.9605 55.645C32.9555 55.645 35.8266 55.1287 38.4911 54.1889C38.4188 54.0752 38.3568 53.9616 38.3052 53.8377L30.4046 32.2014Z" fill="#00749A"/>
<path d="M52.4954 17.6189C52.609 18.4348 52.671 19.3126 52.671 20.2628C52.671 22.8653 52.1856 25.7983 50.7191 29.4646L42.8701 52.1543C50.5125 47.7032 55.6453 39.4204 55.6453 29.95C55.6453 25.4782 54.499 21.2852 52.4954 17.6189Z" fill="#00749A"/>
<path d="M29.95 0C13.4362 0 0 13.4362 0 29.95C0 46.4638 13.4362 59.9 29.95 59.9C46.4638 59.9 59.9 46.4638 59.9 29.95C59.9 13.4362 46.4638 0 29.95 0ZM29.95 58.5264C14.1901 58.5264 1.37357 45.7099 1.37357 29.95C1.37357 14.1901 14.1901 1.37357 29.95 1.37357C45.7099 1.37357 58.5264 14.1901 58.5264 29.95C58.5264 45.7099 45.7099 58.5264 29.95 58.5264Z" fill="#00749A"/>
</svg>
