<svg width="60" height="65" viewBox="0 0 60 65" fill="none" xmlns="http://www.w3.org/2000/svg">
<g clip-path="url(#clip0)">
<path d="M51.9045 0.000976562C56.2568 2.21865 59.9948 8.03811 59.8074 15.9352C59.2385 25.6655 52.1837 34.0513 44.5078 41.7775C44.078 32.3552 42.0293 26.3503 38.8303 17.9066C35.81 9.39711 44.6401 0.273356 51.9045 0.000976562Z" fill="url(#paint0_linear)"/>
<path d="M28.3632 41.4461C30.7001 38.5391 32.3564 35.9503 33.5124 33.6113C41.4306 37.7513 39.5621 36.9782 43.381 41.3891C43.3939 41.5263 43.406 41.6631 43.4174 41.7996C43.7343 47.9156 39.2728 62.0542 21.7053 63.9918C20.4893 54.4914 24.4426 46.3876 28.3632 41.4461Z" fill="url(#paint1_linear)"/>
<path d="M0.0918609 5.90728C12.6088 0.954214 26.08 6.02801 33.8573 16.5996C34.6096 17.6221 35.3231 18.6843 35.996 19.7777C37.2113 27.5353 36.2847 31.8438 33.9193 34.1276C32.364 33.3429 30.7046 32.647 28.9332 32.0036C24.8147 30.5074 21.0139 29.5174 15.5856 27.9101C2.69589 24.3924 -0.482841 13.3398 0.0918609 5.90728Z" fill="url(#paint2_linear)"/>
<path d="M35.5174 19.0183C35.5995 19.1458 35.6807 19.2723 35.7608 19.4008L35.8594 19.5592C36.0603 19.8818 36.2573 20.2064 36.4515 20.5348L36.4843 20.5898L36.5364 20.6787L36.5838 20.7608L36.7229 20.9993L36.7325 21.0167L36.9209 21.3471L36.9267 21.3567C37.0629 21.5972 37.1971 21.8387 37.3294 22.0821L37.3459 22.113L37.4927 22.3854L37.4965 22.3921L37.6578 22.6954L37.7042 22.7843L37.794 22.9572L37.9041 23.1707L38.0104 23.3774C38.1186 23.5918 38.2258 23.8062 38.3311 24.0206L38.3581 24.0738C38.5484 24.463 38.7329 24.8532 38.9135 25.2463L39.0506 25.5467L39.0642 25.5767L39.1521 25.7718L39.2545 26.0026L39.3124 26.1359L39.4051 26.3494L39.4718 26.503L39.6118 26.8333L39.6215 26.8565L39.7712 27.2158L39.7896 27.2592C39.9489 27.6475 40.1035 28.0358 40.2532 28.427L40.2677 28.4627L40.3913 28.7902L40.399 28.8085L40.4705 29.0017C40.5497 29.2161 40.6279 29.4306 40.7052 29.646L40.7352 29.73C40.8202 29.9705 40.9042 30.212 40.9853 30.4525L41.0114 30.5288C41.0877 30.7548 41.1611 30.9808 41.2345 31.2068L41.2703 31.3179L41.2789 31.344L41.3949 31.7101L41.3997 31.7265L41.5069 32.0761L41.6141 32.4364L41.617 32.4441L41.7059 32.7484L41.7339 32.8469L41.788 33.0352C41.8488 33.2526 41.9087 33.4689 41.9667 33.6863L42.0101 33.8485L42.0942 34.1692L42.098 34.1846C42.2004 34.5787 42.297 34.9728 42.3888 35.3659L42.3974 35.4065L42.4071 35.448C42.5269 35.9667 42.637 36.4835 42.7384 36.9983L42.7481 37.0495C42.9045 37.8502 43.0388 38.6461 43.1499 39.4352L43.1518 39.4458C43.1866 39.6892 43.2184 39.9317 43.2484 40.1741L43.2609 40.2784L43.3015 40.6252V40.6261L43.3363 40.9468L43.3479 41.0531L43.373 41.3071L43.3826 41.4095L43.3865 41.451L43.4174 41.7997C40.6521 38.2385 37.3488 35.7842 33.3848 33.864C36.5838 27.5394 36.1346 23.0325 35.5174 19.0183Z" fill="url(#paint3_linear)"/>
</g>
<defs>
<linearGradient id="paint0_linear" x1="49.0179" y1="0.000976562" x2="49.0179" y2="41.7775" gradientUnits="userSpaceOnUse">
<stop stop-color="#73B723"/>
<stop offset="1" stop-color="#D8EE61"/>
</linearGradient>
<linearGradient id="paint1_linear" x1="40.109" y1="41.5865" x2="19.3282" y2="57.1232" gradientUnits="userSpaceOnUse">
<stop stop-color="#98C9EA"/>
<stop offset="0.688649" stop-color="#026FB2"/>
<stop offset="1" stop-color="#086EB6"/>
</linearGradient>
<linearGradient id="paint2_linear" x1="0.0283204" y1="5.90188" x2="26.9219" y2="30.0347" gradientUnits="userSpaceOnUse">
<stop stop-color="#D73721"/>
<stop offset="1" stop-color="#F7D768"/>
</linearGradient>
<linearGradient id="paint3_linear" x1="36.4909" y1="26.0789" x2="45.3067" y2="29.6096" gradientUnits="userSpaceOnUse">
<stop stop-color="#D4C883"/>
<stop offset="1" stop-color="#A1D1A7"/>
</linearGradient>
<clipPath id="clip0">
<rect width="59.9" height="64.1117" fill="white"/>
</clipPath>
</defs>
</svg>
