<svg width="264" height="35" viewBox="0 0 264 35" fill="none" xmlns="http://www.w3.org/2000/svg">
<path d="M263.42 0.907797C262.922 2.22855 262.423 3.50802 261.966 4.82878C258.517 14.5693 255.026 24.2686 251.577 34.0091C251.494 34.2155 251.452 34.3806 251.162 34.3806C245.926 34.3806 240.648 34.3806 235.412 34.3806C235.37 34.3806 235.37 34.3806 235.246 34.3393C234.456 27.4466 233.667 20.5127 232.836 13.5788C232.794 13.5788 232.752 13.5788 232.711 13.5788C232.669 13.7438 232.586 13.8677 232.545 14.0328C230.176 20.6778 227.807 27.3228 225.439 33.9678C225.356 34.2155 225.314 34.3806 224.982 34.3806C220.577 34.3806 216.13 34.3806 211.725 34.3806C211.684 34.3806 211.601 34.3806 211.518 34.3806C211.892 33.39 212.224 32.3994 212.556 31.4089C216.172 21.2969 219.746 11.2262 223.361 1.11416C223.486 0.783977 223.61 0.660156 223.984 0.660156C229.179 0.660156 234.332 0.660156 239.526 0.660156C239.692 0.660156 239.817 0.660156 240.025 0.660156C240.731 7.5941 241.438 14.528 242.102 21.4207C242.144 21.4207 242.186 21.4207 242.186 21.462C242.227 21.3382 242.31 21.2143 242.352 21.0905C244.18 15.9726 246.009 10.8547 247.837 5.73679C248.377 4.20967 248.959 2.64128 249.499 1.11416C249.624 0.783977 249.749 0.660156 250.123 0.660156C254.569 0.660156 258.974 0.660156 263.42 0.660156C263.42 0.742703 263.42 0.82525 263.42 0.907797Z" fill="white"/>
<path d="M0 34.3803C0 34.3391 0 34.2565 0 34.2152C0.0415555 34.0914 0.124666 34.0089 0.166222 33.8851C3.74 23.8969 7.27221 13.9087 10.846 3.92053C11.22 2.80615 11.6355 1.73304 12.0511 0.618652C12.2589 0.618652 12.4666 0.618652 12.6329 0.618652C19.0324 0.618652 25.4735 0.618652 31.8731 0.618652C33.7015 0.618652 35.5299 0.701199 37.3584 0.82502C39.2699 0.94884 41.1815 1.3203 42.9684 2.06322C45.2539 3.01251 46.8746 4.5809 47.2902 7.09859C47.5395 8.54316 47.4148 10.029 47.0824 11.4323C46.085 15.766 44.5891 19.8934 42.5944 23.8556C40.3088 28.3544 36.7351 31.4087 31.8731 32.9358C28.798 33.8851 25.6397 34.2978 22.3984 34.2978C14.96 34.3803 7.47999 34.3803 0 34.3803ZM16.9962 28.0655C18.7831 28.0242 20.4453 28.0242 22.1491 27.9004C23.8529 27.7766 25.3073 27.0749 26.3462 25.6716C26.8033 25.0525 27.2189 24.3922 27.5513 23.7318C28.9226 21.0077 29.8784 18.1186 30.8757 15.2295C31.4575 13.496 32.0393 11.7625 32.2055 9.90518C32.3302 8.46061 31.7068 7.59387 30.3355 7.22241C30.1693 7.18113 29.9615 7.13986 29.7953 7.13986C28.2162 7.09859 26.6371 7.05731 25.058 6.97476C24.6009 6.93349 24.4762 7.13986 24.3515 7.51132C22.44 12.8356 20.5284 18.1599 18.6584 23.4841C18.1182 24.97 17.578 26.4558 16.9962 28.0655Z" fill="white"/>
<path d="M64.827 35.0001C62.4999 35.0001 60.2143 35.0001 57.8872 35.0001C57.3885 34.9589 56.8899 34.8763 56.3912 34.835C54.355 34.6287 52.3188 34.2985 50.4488 33.473C48.1217 32.4824 46.4594 30.9141 45.8361 28.4376C45.4621 26.8693 45.5037 25.3009 45.753 23.7325C46.5426 19.1924 48.1217 14.9825 50.3657 10.979C52.6097 7.01672 55.7263 4.04503 60.0065 2.27027C62.9154 1.07334 65.949 0.495512 69.0656 0.206598C69.689 0.165324 70.3123 0.0827774 70.9356 0.0415039C72.8887 0.0415039 74.8003 0.0415039 76.7534 0.0415039C77.3352 0.0827774 77.917 0.165324 78.4987 0.206598C80.7012 0.412965 82.9036 0.743153 84.9398 1.65117C87.3085 2.68301 88.9292 4.29267 89.4694 6.85163C89.8018 8.42002 89.7603 9.98841 89.4694 11.5155C88.6798 15.8905 87.1423 20.0179 84.9814 23.8976C83.0698 27.282 80.535 30.0886 77.0443 31.9459C74.0523 33.5556 70.7694 34.3398 67.4034 34.7525C66.5308 34.835 65.6996 34.9176 64.827 35.0001ZM63.4972 29.098C65.1179 29.098 66.6139 28.7678 67.7359 27.5709C68.4839 26.7867 69.1487 25.8374 69.6059 24.8881C71.6836 20.5544 73.2212 16.0143 74.551 11.433C74.8834 10.3186 75.1327 9.20421 75.0081 8.00728C74.925 7.05799 74.3847 6.39762 73.429 6.19125C72.8887 6.06743 72.3485 6.02616 71.8083 5.98488C69.4396 5.86106 67.5696 6.76908 66.3645 8.83275C65.9905 9.41058 65.6581 10.0297 65.3672 10.6488C63.5388 14.6936 62.0843 18.8622 60.7961 23.1134C60.4221 24.3516 60.0897 25.5898 60.1728 26.8693C60.2143 28.0249 60.7545 28.644 61.8765 28.9329C62.4168 29.0155 62.957 29.0155 63.4972 29.098Z" fill="white"/>
<path d="M113.573 0C115.485 0 117.396 0 119.308 0C119.931 0.0412735 120.554 0.12382 121.136 0.165094C123.255 0.371461 125.333 0.701649 127.328 1.52712C129.863 2.55895 131.567 4.25117 132.107 7.01649C132.398 8.62615 132.315 10.2358 132.024 11.8042C131.276 15.7665 129.904 19.5636 127.993 23.1131C126.164 26.6214 123.671 29.5518 120.222 31.5742C117.064 33.4315 113.615 34.257 109.999 34.6697C109.168 34.7523 108.337 34.8348 107.464 34.9586C105.137 34.9586 102.852 34.9586 100.525 34.9586C100.026 34.9173 99.4857 34.8348 98.987 34.7935C96.7846 34.5459 94.6237 34.1744 92.5875 33.2251C90.3435 32.1933 88.889 30.5011 88.3904 28.066C88.0995 26.5801 88.141 25.053 88.3904 23.5671C89.1384 19.1922 90.6759 15.1061 92.8368 11.2264C95.0808 7.22286 98.1975 4.08607 102.478 2.27004C105.428 1.03184 108.503 0.454008 111.703 0.165094C112.285 0.12382 112.908 0.0412735 113.573 0ZM106.093 29.0978C108.503 29.1391 110.29 28.1072 111.495 26.0848C111.745 25.6308 112.035 25.2181 112.243 24.7641C114.238 20.5542 115.692 16.1379 117.064 11.6804C117.396 10.566 117.687 9.41035 117.645 8.21342C117.604 7.05776 117.064 6.35611 115.942 6.10847C115.443 5.98465 114.944 5.98465 114.446 5.94338C112.077 5.81956 110.207 6.72757 109.002 8.79125C108.628 9.45162 108.212 10.0707 107.921 10.7724C106.051 14.8997 104.597 19.1509 103.309 23.4433C102.976 24.6403 102.685 25.8372 102.81 27.0754C102.935 27.9834 103.433 28.6025 104.306 28.8502C104.888 28.974 105.511 29.0152 106.093 29.0978Z" fill="white"/>
<path d="M159.988 0C160.611 0.0412735 161.276 0.12382 161.9 0.165094C164.185 0.371461 166.429 0.701649 168.549 1.65094C170.294 2.43513 171.624 3.54952 172.081 5.48937C172.372 6.72757 172.205 7.9245 171.915 9.12144C171.582 10.4009 171.582 10.4009 170.252 10.4009C166.263 10.4009 162.274 10.4009 158.284 10.4009C158.118 10.4009 157.952 10.4009 157.744 10.4009C157.786 10.2358 157.827 10.112 157.869 9.98818C157.952 9.69926 158.077 9.45162 158.16 9.16271C158.617 7.4705 157.869 6.27357 156.123 6.02593C154.046 5.73701 152.093 6.10847 150.43 7.55304C150.223 7.71814 150.056 7.92451 149.932 8.13087C148.976 9.45162 149.225 10.7311 150.597 11.6804C151.802 12.4646 153.173 12.8773 154.544 13.2901C156.996 13.9917 159.448 14.6521 161.858 15.395C163.437 15.8903 164.975 16.5919 166.305 17.6238C168.258 19.1922 168.923 21.2146 168.299 23.5671C167.385 27.2405 165.058 29.8407 161.817 31.6567C159.199 33.1013 156.373 33.8855 153.464 34.3395C151.719 34.5872 149.973 34.711 148.228 34.9174C148.145 34.9174 148.062 34.9586 147.979 34.9999C145.444 34.9999 142.95 34.9999 140.415 34.9999C140.332 34.9586 140.291 34.9174 140.208 34.9174C139.127 34.8348 138.047 34.7523 137.008 34.6284C134.972 34.3808 133.019 33.9681 131.149 33.0188C128.78 31.8218 127.783 30.0058 128.157 27.4056C128.281 26.4976 128.655 25.6308 128.863 24.7641C128.946 24.3926 129.154 24.3101 129.486 24.3101C133.891 24.3101 138.296 24.3101 142.743 24.3101C142.909 24.3101 143.075 24.3101 143.283 24.3101C143.117 24.8466 142.95 25.3006 142.826 25.7959C142.41 27.4056 143.033 28.4787 144.654 28.8502C146.607 29.2629 148.519 29.0978 150.306 28.1072C151.22 27.6119 151.926 26.9103 152.342 25.9197C152.757 24.8879 152.508 24.0212 151.677 23.2782C150.804 22.5353 149.724 22.1226 148.643 21.7924C146.233 21.0907 143.781 20.4304 141.371 19.6874C139.501 19.1096 137.714 18.408 136.177 17.1285C134.722 15.9316 134.057 14.4044 134.224 12.5059C134.348 11.3502 134.681 10.3184 135.179 9.28653C136.717 6.0672 139.252 3.96225 142.452 2.51768C145.61 1.07311 148.934 0.454008 152.342 0.165094C152.965 0.12382 153.547 0.0412735 154.17 0C156.123 0 158.035 0 159.988 0Z" fill="white"/>
<path d="M207.984 0.659926C208.566 11.8863 209.148 23.1127 209.73 34.3391C204.494 34.3391 199.299 34.3391 194.022 34.3391C194.229 32.3992 194.396 30.4594 194.603 28.4782C194.437 28.4782 194.312 28.4782 194.146 28.4782C190.531 28.4782 186.916 28.4782 183.3 28.4782C182.968 28.4782 182.802 28.6021 182.677 28.8497C181.638 30.5832 180.558 32.3167 179.519 34.0502C179.394 34.2565 179.228 34.3391 178.979 34.3391C173.992 34.3391 169.005 34.3391 164.019 34.3391C163.935 34.3391 163.811 34.3391 163.645 34.3391C164.351 33.4311 164.974 32.6056 165.598 31.7801C173.452 21.503 181.306 11.2672 189.16 0.990114C189.326 0.783746 189.45 0.618652 189.783 0.618652C195.767 0.618652 201.751 0.618652 207.735 0.618652C207.735 0.618652 207.818 0.659926 207.984 0.659926ZM196.307 7.63514C196.266 7.63514 196.224 7.59387 196.182 7.59387C193.149 12.3403 190.115 17.0455 187.082 21.8332C189.866 21.8332 192.526 21.8332 195.268 21.8332C195.601 17.0455 195.933 12.3403 196.307 7.63514Z" fill="white"/>
</svg>
