<svg width="177" height="43" viewBox="0 0 177 43" fill="none" xmlns="http://www.w3.org/2000/svg">
<path d="M175.921 21.7572C175.673 21.7406 175.422 21.7623 175.182 21.8228C175.07 21.8517 174.961 21.8891 174.856 21.934C174.756 21.9795 174.659 22.0291 174.567 22.0856C174.339 22.2253 174.139 22.4013 173.959 22.5937C173.838 22.7232 173.727 22.8612 173.621 23.0023C173.528 23.1256 173.439 23.2545 173.348 23.3806C172.962 23.8241 172.574 24.265 172.161 24.6868C171.914 24.9407 171.658 25.1885 171.385 25.4179C171.224 25.5525 171.059 25.681 170.881 25.7966C170.864 25.8064 170.848 25.8166 170.831 25.8265C170.778 25.6079 170.797 25.3897 170.836 25.1749C170.865 25.0114 170.903 24.8503 170.949 24.6899C170.992 24.542 171.039 24.3952 171.089 24.249C171.157 24.0522 171.23 23.8571 171.309 23.6627C171.481 23.2385 171.68 22.8259 171.892 22.4173C172.203 21.8123 172.543 21.2202 172.883 20.6287C173.706 19.2056 174.542 17.7906 175.291 16.3314C175.43 16.0595 175.57 15.7875 175.709 15.5153C174.502 15.5153 173.296 15.5153 172.089 15.5153C171.854 15.6849 171.635 15.8759 171.439 16.0884C171.19 16.3606 170.982 16.6689 170.816 16.9976C170.475 16.4959 169.968 16.1118 169.411 15.865C167.914 15.2046 166.046 15.5421 164.546 16.2716C163.734 16.6658 163.03 17.176 162.396 17.7304C160.993 18.9541 159.922 20.3969 158.728 22.0091C157.912 23.1117 157.038 24.2942 156.163 25.1763C155.856 25.4863 155.523 25.7816 155.181 26.059C155.082 26.1402 154.98 26.2218 154.87 26.2983C154.72 26.403 154.553 26.4981 154.35 26.5821C154.041 26.7109 153.644 26.8088 153.495 26.7075C153.404 26.6484 153.403 26.5158 153.45 26.3513C153.537 26.0488 153.784 25.6341 153.862 25.4968C154.452 24.4931 155.323 23.6528 155.985 22.6896C156.475 21.9754 156.849 21.1937 157.021 20.3225C157.28 19.0101 157.081 17.4938 156.156 16.5503C155.589 15.9721 154.75 15.6091 153.91 15.5377C153.132 15.4711 152.354 15.6563 151.652 15.9606C151.451 16.0472 151.256 16.1444 151.067 16.2525C151.702 15.1081 152.354 13.9738 152.988 12.8134H148.82C147.952 14.0391 147.09 15.2685 146.191 16.4731C144.683 18.4932 143.073 20.4449 141.506 22.4204C140.81 23.2987 140.123 24.1814 139.368 25.024C139.038 25.4074 138.664 25.7446 138.28 26.0566C138.042 26.251 137.798 26.437 137.449 26.5814C137.138 26.7092 136.74 26.8071 136.591 26.7058C136.502 26.646 136.502 26.5148 136.548 26.3496C136.635 26.0481 136.881 25.6317 136.96 25.4954C137.548 24.4907 138.421 23.6511 139.083 22.6889C139.573 21.9747 139.947 21.193 140.118 20.3211C140.377 19.0084 140.178 17.4925 139.252 16.5489C138.687 15.9708 137.847 15.6077 137.008 15.536C136.23 15.4701 135.452 15.6553 134.748 15.9595C134.548 16.0462 134.352 16.1434 134.165 16.2515C134.798 15.1071 135.452 13.9728 136.085 12.8127H131.914C131.044 14.036 130.174 15.2593 129.289 16.4724C128.489 17.5669 127.678 18.6512 126.838 19.7171C126.013 20.7664 125.163 21.796 124.273 22.7959C123.814 23.3089 123.359 23.8286 122.883 24.3292C122.587 24.6389 122.282 24.9438 121.955 25.2279C121.763 25.3945 121.563 25.5559 121.348 25.7004C121.311 25.7252 121.274 25.7487 121.236 25.7718C121.199 25.5716 121.217 25.3714 121.253 25.1739C121.281 25.0104 121.32 24.8483 121.367 24.6888C121.409 24.541 121.456 24.3942 121.506 24.2473C121.575 24.0512 121.648 23.8554 121.726 23.6617C121.898 23.2375 122.098 22.8259 122.309 22.4163C122.621 21.8113 122.961 21.2195 123.301 20.627C124.123 19.2049 124.96 17.7899 125.709 16.3307C125.847 16.0588 125.987 15.7869 126.126 15.5146H122.482C122.252 15.6805 122.038 15.8674 121.848 16.0758C121.599 16.3477 121.391 16.6563 121.225 16.9843C120.992 16.6726 120.711 16.3919 120.387 16.1706C120.009 15.9123 119.575 15.7355 119.127 15.6308C118.76 15.5449 118.384 15.5085 118.008 15.5102C116.744 15.5146 115.488 15.9507 114.381 16.5819C113.544 17.0611 112.792 17.6509 112.146 18.3497C110.488 20.143 109.527 22.6494 108.161 24.44C107.677 25.076 107.139 25.6219 106.326 26.196C105.918 26.4842 105.442 26.7799 105.123 26.7554C104.878 26.7354 104.726 26.528 104.687 26.2724C104.619 25.8173 104.907 25.2062 105.232 24.6063C105.779 23.5947 106.432 22.6093 106.969 21.7086C107.378 21.0237 107.718 20.3861 108.104 19.7436C108.399 19.2521 108.718 18.7573 108.817 18.2029C108.859 17.9653 108.859 17.7172 108.82 17.4768C108.729 16.9269 108.42 16.4164 108.054 16.0612C107.823 15.8365 107.57 15.6723 107.298 15.5918C106.434 15.3351 105.392 15.9249 103.869 16.6978C103.873 16.6492 103.879 16.6002 103.886 16.5516C103.918 16.3178 103.973 16.087 104.012 15.8542C104.035 15.7233 104.054 15.5907 104.062 15.4582C104.072 15.3144 104.07 15.1693 104.05 15.0272C104.002 14.7012 103.854 14.3865 103.621 14.1438C103.607 14.1292 103.594 14.1156 103.58 14.1016C103.564 14.0908 103.549 14.0799 103.532 14.0697C103.224 13.8603 102.865 13.7138 102.489 13.6632C102.144 13.6163 101.783 13.6492 101.462 13.776C101.14 13.9035 100.856 14.1254 100.675 14.4086C100.581 14.5554 100.513 14.7203 100.474 14.8899C100.431 15.0676 100.418 15.2502 100.435 15.4317C100.454 15.6176 100.505 15.8011 100.588 15.9704C100.665 16.1268 100.766 16.2712 100.883 16.4038C100.989 16.5244 101.107 16.6363 101.231 16.7403C101.344 16.8358 101.462 16.9259 101.581 17.0153C101.69 17.0972 101.798 17.1777 101.905 17.262C101.984 17.3249 102.062 17.3895 102.133 17.4602C102.171 17.4993 102.208 17.5401 102.236 17.586C102.234 17.59 102.231 17.5938 102.229 17.5982C102.204 17.6543 102.167 17.7059 102.129 17.7556C102.103 17.7906 102.075 17.8232 102.047 17.8565C102.019 17.8898 101.99 17.9228 101.959 17.9554C101.896 18.0227 101.831 18.087 101.765 18.1512C101.699 18.2161 101.632 18.2777 101.564 18.3405C101.485 18.4153 101.403 18.4897 101.326 18.5645C101.04 18.8361 100.764 19.1175 100.486 19.399C99.9349 19.9591 99.3823 20.5173 98.8246 21.073C98.2668 21.6284 97.7067 22.1797 97.1313 22.7191C96.8481 22.9822 96.5619 23.2422 96.2711 23.4995C96.1504 23.6076 96.0293 23.7123 95.9079 23.8184C95.7858 23.9244 95.6633 24.0291 95.5416 24.1341C95.3739 24.2769 95.2042 24.4196 95.0352 24.5607C94.9331 24.6464 94.831 24.7293 94.7282 24.8133C94.5144 24.9876 94.2978 25.1586 94.0788 25.3245C94.6658 23.7123 95.2843 22.1134 96.0693 20.592C96.7854 19.1998 97.6408 17.8728 98.3744 16.4847C98.5431 16.1642 98.7066 15.8392 98.8701 15.5153H95.2398C94.6779 15.9191 94.2726 16.3864 93.9618 17.0017C93.5465 16.5146 93.025 16.0826 92.4335 15.8266C91.547 15.4432 90.5012 15.4551 89.5337 15.658C88.4786 15.88 87.5166 16.3297 86.6319 16.9079C85.8896 17.3939 85.2011 17.9704 84.6251 18.6311C83.2171 20.2436 82.4731 22.3541 81.0848 23.9978C80.5995 24.5733 80.0352 25.0906 79.4454 25.5447C78.9339 25.9407 78.4048 26.2881 77.7849 26.5818C77.1327 26.8887 76.3814 27.1365 75.7451 26.924C75.2294 26.7527 74.7896 26.2789 74.5561 25.765C74.4036 25.4295 74.3381 25.0777 74.3136 24.7215C74.2978 24.5036 74.2967 24.284 74.3178 24.0679C75.9513 23.935 78.9573 23.0923 80.3449 22.1437C82.0275 20.9935 82.9753 18.3518 81.6156 16.6016C80.0673 14.6084 77.4942 15.6771 75.9203 16.9286C74.1536 18.3324 73.3727 20.247 72.2631 22.0285C71.487 23.1919 70.6209 24.2589 69.632 25.2514C69.1391 25.747 68.6421 26.2245 68.0512 26.613C67.6376 26.8846 66.6191 27.3618 66.0672 27.0348C65.2642 26.1847 66.1748 24.5026 66.5297 23.7885C67.0454 22.7487 67.5921 21.728 68.1457 20.7096C69.2536 18.6716 70.406 16.6587 71.5594 14.6451C72.9781 14.6638 74.3971 14.6815 75.8165 14.7005C76.1165 14.0894 76.4156 13.4772 76.7164 12.8661C75.3481 12.8481 73.9784 12.8311 72.6101 12.8134C72.7818 12.5133 72.9546 12.2125 73.1274 11.9123C73.5217 11.2261 73.917 10.5398 74.3112 9.85289C74.4906 9.54018 74.6703 9.22713 74.8503 8.91476H71.3794C70.5564 10.2016 69.743 11.4929 68.8983 12.7658C68.1088 12.7553 67.3186 12.7454 66.5284 12.7359C66.2293 13.3474 65.9292 13.9585 65.6285 14.57C66.2983 14.5792 66.9681 14.588 67.638 14.5962C66.179 16.6152 60.3249 23.3999 58.4858 25.1039C57.7808 25.7572 57.1361 26.3965 56.1503 26.7004C55.912 26.7735 55.6861 26.8051 55.6667 26.4944C55.585 25.1481 56.3238 24.3224 56.9685 23.333C58.0753 21.6352 59.5651 19.1774 58.7269 16.8749C58.1229 15.5836 55.9972 15.3113 54.8344 15.8436C54.831 15.8443 54.8275 15.846 54.8244 15.8477C54.8203 15.8494 54.8168 15.8511 54.8134 15.8528C53.2057 16.6767 52.281 17.9513 51.3 19.331C51.835 17.2736 51.4163 15.0561 48.8542 15.62C47.2416 15.9752 45.2973 17.656 44.266 18.7491C43.9104 15.4891 40.6129 14.6941 37.9936 16.2729C36.0861 17.4214 33.5654 20.3881 32.3841 22.158C31.6618 23.2402 30.7419 24.0903 29.7772 24.9387C29.2967 25.3605 28.8065 25.7667 28.2867 26.1399C27.7756 26.5104 27.0864 27.216 26.7822 26.2894C26.2617 24.5342 28.2036 20.2205 28.7376 18.8504C30.725 13.7614 33.2264 8.91646 35.5039 3.96412C36.0641 2.75713 36.6497 1.61405 36.7449 0.226914C34.8831 -0.20476 33.6875 0.322086 32.3403 1.52397C31.1279 2.60622 30.1197 3.82034 29.1825 5.13133C27.3113 7.74924 25.8074 10.5527 24.2756 13.3583C24.2749 13.36 24.2732 13.362 24.2722 13.3647C24.2715 13.3664 24.2705 13.3681 24.2698 13.3698C22.2309 17.3351 20.4632 21.416 18.5861 25.4526C18.4109 25.8279 18.2947 26.2266 18.117 26.6028C18.0749 26.6915 17.9477 26.8214 17.9256 26.6864C17.8328 26.0954 17.9249 25.5383 18.0118 24.9662C18.176 23.8833 18.4657 22.8425 18.8089 21.8045C19.4929 19.7297 20.3414 17.7294 21.221 15.7321C22.9784 11.7424 24.9441 7.8485 26.7656 3.88866C27.2627 2.81899 27.8953 1.85096 27.978 0.594346C27.9874 0.446149 27.9967 0.298293 28.0067 0.151456C25.0445 -0.796866 21.5942 2.95019 20.179 4.66839C18.1267 7.1602 16.7018 9.94534 15.2435 12.7621C13.7886 15.5707 12.5258 18.4687 11.0747 21.2807C10.3425 22.6987 9.57501 24.042 8.4447 25.2177C7.58963 26.1083 6.80424 26.8006 5.45283 26.9172C4.99374 26.956 4.62571 26.8564 4.23629 26.6249C5.78568 25.0383 5.14896 22.7817 2.97939 22.2355C0.732216 21.6685 -0.475016 23.7157 0.175509 25.7208C0.769466 27.5481 2.49132 28.7687 4.32563 29.1025C6.54486 29.5073 7.91386 28.7038 9.47153 27.3499C12.4834 24.7354 13.8155 21.3446 15.6015 18.072C17.3868 14.8042 19.2294 11.5728 21.1968 8.40525C21.4107 7.99635 21.5438 7.49126 22.1406 7.77848C20.2111 11.3087 18.3999 14.8698 16.9364 18.6237C16.2027 20.506 15.5967 22.3714 15.3914 24.4037C15.2238 26.0556 15.1969 29.2755 17.6638 29.1599C18.3326 29.1293 18.7734 28.8536 19.2273 28.4087C20.2956 27.3642 20.8702 26.1073 21.4897 24.8173C22.3582 23.0108 23.1374 21.1658 23.9842 19.3494C25.6833 15.7009 27.6748 12.2244 29.7206 8.76181C29.9293 8.36209 30.0493 7.8434 30.6422 8.12925C28.1653 12.7879 25.6612 17.3113 24.4657 22.5675C24.1725 23.8578 23.8314 25.0821 24.058 26.457C24.2663 27.7201 24.8316 29.1548 26.429 29.1647C28.6272 29.1745 31.6694 26.0644 32.7597 24.6977C33.2081 28.0627 35.8002 30.526 38.9556 28.2687C41.4956 26.4512 43.1126 24.0104 44.9314 21.6365C45.5001 20.8942 47.1454 18.6471 48.0067 18.1091C48.8921 17.5557 49.723 17.6441 49.3177 18.7566C49.0508 19.4938 48.7103 20.1913 48.3547 20.8871C46.9343 23.6668 45.3015 26.3319 43.9156 29.1313H47.3765C47.609 28.8108 47.807 28.4713 48.0108 28.1331C49.8162 25.1328 51.3 21.9951 53.8248 19.3973C53.8283 19.3939 53.83 19.3905 53.8331 19.3891C53.8355 19.3857 53.8383 19.381 53.8407 19.3783C54.1456 19.0353 55.4905 17.571 56.1645 17.725C56.8257 18.1363 56.4846 18.6244 56.3235 19.1515C56.1745 19.643 55.9637 20.0982 55.7112 20.5441C55.2021 21.4397 54.6006 22.2786 54.1349 23.1997C53.6579 24.1447 53.3385 25.0614 53.3251 26.1412C53.3144 26.974 53.5013 28.3839 54.3767 28.9152C56.0769 29.9478 58.7838 27.2347 59.7158 26.3846C61.2483 24.9866 62.7059 23.542 63.9925 21.9078C63.2147 23.1641 62.9063 24.4003 62.9125 25.8581C62.9184 27.526 63.3202 28.5331 65.088 29.009C67.7046 29.7129 70.8406 27.0879 72.0337 25.2072C72.1482 27.8788 73.6717 29.4274 76.4518 29.1045C78.7849 28.8329 80.7526 27.3537 82.0106 25.5131C83.1612 30.7666 87.3117 29.6211 90.5664 26.4098C90.208 27.25 89.7893 28.0562 89.4289 28.9036C89.2343 29.3621 89.0563 29.8326 88.76 30.2285C88.5552 30.5001 88.2947 30.7384 88.0095 30.927C87.4221 31.3172 86.7281 31.5106 86.0869 31.8047C85.4708 32.0878 84.9048 32.4654 84.363 32.8689C83.3992 33.5878 82.5104 34.3893 81.7309 35.3165C80.9051 36.2988 80.2025 37.4218 79.9473 38.6574C79.8 39.3681 79.8017 40.1152 80.0449 40.8242C80.3591 41.7393 81.0734 42.5877 81.9726 42.88C82.6114 43.0856 83.3416 43.0112 83.9853 42.777C84.8596 42.4599 85.575 41.8491 86.1835 41.1655C86.8374 40.4327 87.3683 39.6169 87.8684 38.7845C88.7835 37.2624 89.5955 35.6853 90.4053 34.1037C90.9268 33.0868 91.446 32.0688 91.9099 31.0266C92.2327 30.302 92.529 29.5647 92.8105 28.8224C95.1891 27.1943 97.0399 25.4285 98.7711 23.767C98.7735 23.7664 98.7745 23.7647 98.7763 23.763C98.778 23.7613 98.7797 23.7596 98.7814 23.7579C100.248 22.2759 101.672 20.8354 103.031 19.3776C103.034 19.3742 103.037 19.3718 103.039 19.3684C103.042 19.3643 103.046 19.3609 103.048 19.3575C103.321 19.0319 103.61 18.7182 103.924 18.4275C104.146 18.2219 104.38 18.0258 104.635 17.8555C104.782 17.7586 104.935 17.6696 105.098 17.5989C105.169 17.5679 105.242 17.5408 105.316 17.5187C105.446 17.4823 105.583 17.4592 105.719 17.4762C105.738 17.6468 105.745 17.8178 105.738 17.9864C105.675 19.3602 104.576 20.5309 103.666 21.6692C103.164 22.298 102.718 22.9163 102.3 23.5747C101.994 24.0543 101.703 24.5576 101.547 25.0971C101.404 25.5994 101.378 26.1331 101.453 26.6562C101.528 27.1793 101.704 27.6915 102.023 28.1208C102.257 28.4349 102.564 28.7037 102.922 28.8764C103.54 29.1738 104.307 29.1796 104.992 29.0168C105.591 28.873 106.128 28.6025 106.643 28.2955C107.116 28.0131 107.568 27.7034 108.004 27.3713C108.514 26.9835 109 26.5651 109.432 26.1001C109.605 26.6745 109.846 27.2378 110.247 27.7476C110.636 28.2398 111.172 28.6823 111.739 28.9182C113.852 29.7972 116.383 27.822 117.83 26.3924C118.982 29.906 120.401 29.391 121.831 28.3343C124.123 26.6382 126.441 23.5454 127.417 21.9391C126.104 24.3653 124.779 26.7837 123.453 29.202C121.452 32.8516 119.448 36.5017 117.472 40.1778C116.98 41.0945 116.483 42.0051 116.032 42.9615H119.202C123.009 36 124.352 33.3641 125.538 31.1232C125.913 30.4175 126.271 29.75 126.726 28.9437C127.348 27.8445 128.147 26.4869 128.994 25.1569C129.331 24.6304 129.672 24.109 130.028 23.5933C130.535 22.8622 131.07 22.1464 131.615 21.438C132.139 20.7555 132.674 20.0815 133.246 19.4347C133.511 19.1373 133.781 18.8443 134.079 18.5795C134.377 18.3164 134.7 18.0792 135.055 17.8864C135.487 17.6533 135.968 17.4833 136.471 17.4894C136.577 17.4911 136.684 17.5003 136.777 17.5391C136.906 17.5928 137.012 17.7036 137.081 17.8239C137.277 18.1692 137.17 18.5968 137.019 18.988C136.329 20.7763 134.74 21.7851 133.8 23.3286C133.316 24.1222 133.003 25.0573 133.057 25.9737C133.091 26.5365 133.262 27.0913 133.56 27.5868C133.862 28.0851 134.292 28.5216 134.82 28.7833C135.604 29.1704 136.603 29.1704 137.458 28.9165C138.557 28.5868 139.418 27.836 140.193 27.0501C141.744 25.4733 142.946 23.7541 144.344 21.8925C143.022 24.3354 141.689 26.7677 140.356 29.202C138.355 32.8516 136.35 36.5017 134.375 40.1778C133.884 41.0945 133.385 42.0051 132.935 42.9615H136.104C139.913 36 141.255 33.3641 142.441 31.1232C142.816 30.4175 143.174 29.75 143.628 28.9437C144.25 27.8445 145.05 26.4869 145.898 25.1569C146.234 24.6304 146.575 24.109 146.93 23.5933C147.437 22.8622 147.972 22.1464 148.517 21.438C149.042 20.7555 149.578 20.0815 150.15 19.4347C150.413 19.1373 150.684 18.8443 150.983 18.5795C151.279 18.3164 151.602 18.0792 151.958 17.8864C152.39 17.6533 152.871 17.4833 153.374 17.4894C153.479 17.4911 153.586 17.5003 153.681 17.5391C153.809 17.5928 153.915 17.7036 153.984 17.8239C154.181 18.1692 154.073 18.5968 153.921 18.988C153.232 20.7763 151.642 21.7851 150.703 23.3286C150.217 24.1222 149.906 25.0573 149.96 25.9737C149.993 26.5365 150.164 27.0913 150.464 27.5868C150.764 28.0851 151.195 28.5216 151.723 28.7833C152.506 29.1704 153.506 29.1704 154.362 28.9165C155.46 28.5868 156.32 27.836 157.096 27.0501C157.702 26.4332 158.256 25.7939 158.789 25.1338C158.828 25.3812 158.883 25.6236 158.95 25.8669C159.126 26.5219 159.377 27.1677 159.832 27.7473C160.221 28.2388 160.758 28.6803 161.324 28.9162C163.436 29.7962 165.967 27.8217 167.414 26.1793C167.456 26.6576 167.604 27.1212 167.844 27.6174C168.043 28.0324 168.307 28.4709 168.592 28.7432C169.209 29.3309 169.929 29.1507 170.689 28.7333C173.15 27.3802 176.025 23.5444 177 21.937C176.494 21.7953 176.208 21.7756 175.921 21.7572ZM75.1183 21.3653C75.6543 20.3018 76.3652 19.4659 77.2003 18.6033C77.7446 18.0401 78.3427 17.4656 79.0546 17.4701C79.1936 17.4707 79.3367 17.4942 79.4733 17.5391C79.7279 17.6216 79.9628 17.7783 80.1104 17.9908C80.2618 18.2107 80.3201 18.4904 80.3149 18.7654C80.308 19.1855 80.1532 19.5931 79.9114 19.9245C79.7327 20.1723 79.5306 20.4061 79.304 20.6104C78.8028 21.0587 78.1768 21.3575 77.538 21.6036C76.7781 21.8949 76.0013 22.1124 75.2018 22.2069C75.0469 22.2246 74.8917 22.2385 74.7358 22.2494C74.8017 22.0492 74.9524 21.6957 75.1183 21.3653ZM41.8736 21.6335C41.0396 23.2535 39.5802 25.0706 38.2626 26.1208C36.944 27.1705 35.7695 27.4536 35.2228 26.6766C34.6775 25.9003 34.762 24.0651 35.5884 22.3408C36.4155 20.6165 37.9853 19.0044 39.3664 18.1607C40.7457 17.3174 41.936 17.244 42.4272 17.9177C42.9167 18.5921 42.7087 20.0135 41.8736 21.6335ZM82.2748 40.6767C82.0516 40.4184 81.9168 39.9745 81.9068 39.4888C81.9016 39.1958 81.9606 38.9082 82.0558 38.6625C82.8967 36.5147 85.763 34.2863 86.6957 33.8621C87.2248 33.6211 87.4959 33.511 87.6535 33.4634C85.4088 39.8151 83.154 41.691 82.2748 40.6767ZM91.5567 21.6498C90.6913 23.2698 89.1788 25.0869 87.8132 26.1372C86.4484 27.1885 85.2318 27.4706 84.6658 26.6936C84.1005 25.9183 84.1874 24.0825 85.0431 22.3565C85.8999 20.6328 87.5269 19.0197 88.9573 18.177C90.387 17.3341 91.6205 17.26 92.1286 17.9344C92.6377 18.6087 92.4211 20.0302 91.5567 21.6498ZM118.819 21.6335C117.954 23.2535 116.442 25.0706 115.076 26.1208C113.711 27.1705 112.494 27.4536 111.929 26.6766C111.364 25.9003 111.449 24.0651 112.307 22.3408C113.164 20.6158 114.79 19.0044 116.221 18.1607C117.65 17.3174 118.884 17.244 119.392 17.9177C119.9 18.5921 119.683 20.0135 118.819 21.6335ZM168.366 21.6335C167.501 23.2535 165.989 25.0706 164.622 26.1208C163.258 27.1705 162.041 27.4536 161.475 26.6766C160.91 25.9003 160.996 24.0651 161.853 22.3408C162.71 20.6165 164.338 19.0044 165.768 18.1607C167.197 17.3174 168.431 17.244 168.939 17.9177C169.447 18.5921 169.23 20.0135 168.366 21.6335Z" fill="#00224A"/>
</svg>
