<svg width="184" height="34" viewBox="0 0 184 34" fill="none" xmlns="http://www.w3.org/2000/svg">
<path d="M183.029 18.1702C182.999 18.3721 182.968 18.5586 182.952 18.7605C182.598 23.5918 180.688 27.5842 176.713 30.4581C174.926 31.7474 172.924 32.5552 170.767 32.9591C167.609 33.565 164.451 33.4873 161.385 32.4776C156.055 30.7222 152.758 27.0405 151.387 21.5723C151.017 20.0654 150.894 18.543 150.909 16.9896C150.909 16.8498 150.925 16.7255 150.925 16.5701C152.281 16.5701 153.621 16.5701 154.992 16.5701C154.992 16.8808 154.992 17.176 154.992 17.4711C155.007 19.2421 155.3 20.9664 155.993 22.5976C157.488 26.1394 160.122 28.3454 163.835 29.2153C166.299 29.8056 168.78 29.7279 171.198 28.9046C174.973 27.6308 177.36 24.9744 178.454 21.1373C178.839 19.8013 178.962 18.4343 178.962 17.0517C178.962 16.9119 178.962 16.7565 178.962 16.5546C180.334 16.5546 181.689 16.5546 183.045 16.5391C183.029 17.0828 183.029 17.6265 183.029 18.1702Z" fill="#2F2E2D"/>
<path d="M0.0154053 16.6789C0.308106 16.6633 0.600806 16.6478 0.893506 16.6478C1.78701 16.6323 2.69592 16.6323 3.58943 16.6323C3.72808 16.6323 3.85132 16.6323 4.02078 16.6323C4.03618 16.8032 4.03618 16.9274 4.03618 17.0672C4.03618 18.2634 4.03618 19.4596 4.05159 20.6402C4.067 21.7121 4.25186 22.7684 4.60618 23.7782C5.5305 26.4035 7.31751 28.159 9.95181 28.9823C12.1856 29.6813 14.4348 29.6813 16.6377 28.9512C19.6417 27.957 21.4442 25.8288 22.1836 22.7529C22.3839 21.8985 22.4763 21.0441 22.4763 20.1742C22.4763 19.0867 22.4763 18.0149 22.4763 16.9274C22.4763 16.7876 22.4763 16.6633 22.4763 16.5235C22.769 16.4459 25.6036 16.4148 26.3893 16.4769C26.4047 16.5546 26.4355 16.6478 26.4355 16.741C26.4201 18.2634 26.4663 19.8013 26.3738 21.3237C26.2352 23.8403 25.4957 26.1861 24.0168 28.2366C22.3685 30.5202 20.1347 31.9339 17.4696 32.6795C15.4977 33.2232 13.495 33.332 11.4615 33.13C9.58209 32.9436 7.81048 32.431 6.16211 31.4989C3.2043 29.8056 1.38648 27.2424 0.539185 23.9491C0.338916 23.1568 0.215674 22.349 0.138648 21.5257C0.123242 21.2616 0.0462159 21.013 0 20.7645C0.0154053 19.413 0.0154053 18.0459 0.0154053 16.6789Z" fill="#2F2E2D"/>
<path d="M123.843 21.8519C123.843 25.4715 123.843 29.0444 123.843 32.6329C122.503 32.6329 121.224 32.6329 119.915 32.6329C119.915 27.2735 119.915 21.9296 119.915 16.5546C121.224 16.5546 122.503 16.5546 123.843 16.5546C123.843 17.0828 123.843 17.6109 123.843 18.1702C123.967 18.1857 124.044 18.2168 124.121 18.2168C126.493 18.2013 128.85 18.2323 131.223 18.1702C132.855 18.1236 134.381 17.642 135.721 16.6633C135.813 16.6012 135.937 16.5391 136.06 16.5391C137.585 16.5391 139.11 16.5391 140.651 16.5391C140.681 16.5391 140.712 16.5546 140.774 16.5701C139.526 18.6052 137.739 19.9411 135.505 20.7955C135.875 21.3082 136.229 21.7898 136.584 22.2713C136.938 22.7684 137.308 23.25 137.662 23.7316C138.016 24.2132 138.386 24.7103 138.74 25.1918C139.11 25.6889 139.48 26.186 139.849 26.6832C140.204 27.1647 140.574 27.6618 140.928 28.1434C141.282 28.625 141.652 29.1221 142.006 29.6037C142.361 30.0852 142.73 30.5823 143.085 31.0639C143.439 31.5455 143.793 32.0426 144.194 32.5708C144.055 32.5863 143.963 32.6174 143.87 32.6174C142.484 32.6174 141.082 32.6174 139.695 32.6329C139.449 32.6329 139.326 32.5242 139.187 32.3378C136.722 28.9512 134.273 25.5647 131.808 22.1781C131.762 22.1004 131.7 22.0383 131.654 21.9606C131.561 21.8053 131.438 21.7587 131.253 21.7587C128.958 21.7898 126.663 21.8053 124.383 21.8208C124.213 21.8519 124.044 21.8519 123.843 21.8519Z" fill="#2F2E2D"/>
<path d="M182.876 14.2865C182.583 14.3642 179.333 14.3798 178.917 14.2865C178.871 13.9759 178.809 13.6496 178.747 13.3234C178.393 11.3816 177.684 9.61063 176.467 8.04164C174.896 6.02214 172.832 4.76384 170.382 4.12692C169.212 3.81622 168.01 3.67641 166.793 3.69195C164.482 3.72302 162.295 4.22012 160.307 5.44736C158.151 6.7678 156.672 8.64749 155.763 11.0087C155.393 11.9874 155.162 12.9972 155.023 14.038C154.992 14.2244 154.946 14.3332 154.731 14.3332C153.544 14.3332 152.358 14.3332 151.187 14.3176C151.157 14.3176 151.11 14.3021 151.049 14.2865C151.033 14.2089 151.002 14.1157 151.018 14.0225C151.326 11.2573 152.142 8.66302 153.745 6.3639C155.609 3.70748 158.104 1.921 161.155 0.895719C162.572 0.414146 164.035 0.134523 165.53 0.0568499C166.223 0.0257807 166.932 -0.0208231 167.64 0.0102461C170.937 0.134523 174.003 0.973392 176.729 2.91522C179.133 4.63956 180.812 6.90761 181.859 9.68831C182.398 11.133 182.722 12.6088 182.861 14.1467C182.891 14.1933 182.891 14.2399 182.876 14.2865Z" fill="#3675BF"/>
<path d="M92.4158 14.3331C92.2309 14.3486 92.1231 14.3486 92.0152 14.3486C90.9985 14.3486 89.9663 14.3486 88.9496 14.3486C88.5645 14.3486 88.5645 14.3331 88.5645 13.9447C88.5645 9.6572 88.5645 5.36965 88.5645 1.08209C88.5645 1.01996 88.5645 0.957817 88.5645 0.895679C88.5645 0.740333 88.6415 0.678195 88.7955 0.66266C89.0882 0.647125 89.3809 0.616056 89.6736 0.600522C90.9831 0.538383 92.2771 0.46071 93.5866 0.429641C95.5276 0.383037 97.4687 0.305364 99.4098 0.320899C101.705 0.351968 103.939 0.786937 105.988 1.90543C108.715 3.39675 110.348 5.71141 110.887 8.78726C111.102 9.99896 111.102 11.2262 110.995 12.469C110.948 12.9971 110.871 13.5253 110.825 14.0535C110.81 14.2399 110.717 14.3486 110.517 14.3331C109.392 14.3331 108.268 14.3331 107.159 14.3331C107.112 14.3331 107.066 14.3176 106.989 14.2865C107.005 14.1933 106.989 14.0846 107.02 14.0069C107.328 12.5777 107.359 11.1485 107.174 9.7038C106.866 7.26487 105.51 5.58713 103.261 4.65505C102.398 4.29776 101.505 4.09581 100.581 4.01813C98.8398 3.89386 97.0836 3.94046 95.3428 4.01813C95.1887 4.01813 95.0193 4.01813 94.8652 4.03367C94.1566 4.06474 93.4325 4.08027 92.7239 4.11134C92.4774 4.12688 92.4466 4.15795 92.4312 4.4065C92.4312 4.51524 92.4312 4.62398 92.4312 4.74826C92.4312 7.77751 92.4312 10.8068 92.4312 13.836C92.4158 13.9914 92.4158 14.1467 92.4158 14.3331Z" fill="#3675BF"/>
<path d="M137.754 14.3176C137.847 13.8516 137.97 13.4322 138.032 13.0127C138.093 12.5622 138.155 12.0962 138.17 11.6457C138.186 11.0864 138.186 10.5272 138.17 9.96796C138.155 9.17569 138.001 8.4145 137.693 7.68437C137.215 6.55034 136.43 5.71147 135.367 5.12116C134.427 4.59298 133.395 4.29783 132.332 4.12695C131.531 4.00267 130.714 3.9716 129.898 3.9716C129.004 3.98713 128.095 3.9716 127.202 3.98713C126.216 4.00267 125.23 4.03374 124.244 4.06481C124.167 4.06481 124.09 4.06481 124.028 4.08034C123.874 4.09588 123.782 4.18908 123.782 4.35996C123.782 4.48424 123.782 4.60852 123.782 4.73279C123.782 7.73097 123.782 10.7292 123.782 13.7118C123.782 13.805 123.782 13.9137 123.782 14.007C123.766 14.3176 123.751 14.3332 123.427 14.3332C122.364 14.3332 121.302 14.3332 120.254 14.3332C119.946 14.3332 119.93 14.3021 119.915 13.9914C119.915 13.4788 119.915 12.9661 119.915 12.469C119.915 8.77179 119.915 5.05902 119.915 1.36179C119.915 1.26858 119.915 1.1909 119.915 1.0977C119.915 0.693797 119.915 0.693797 120.331 0.678263C121.625 0.631659 122.919 0.569521 124.213 0.507382C126.524 0.39864 128.85 0.305432 131.161 0.39864C133.456 0.476313 135.675 0.97342 137.677 2.18512C140.004 3.59877 141.375 5.66487 141.821 8.36789C141.914 8.92714 141.96 9.50192 141.975 10.0767C141.991 10.9156 141.991 11.77 141.96 12.6088C141.945 13.1059 141.837 13.5875 141.775 14.0846C141.744 14.271 141.667 14.3643 141.467 14.3643C140.296 14.3643 139.125 14.3643 137.955 14.3643C137.893 14.3487 137.847 14.3332 137.754 14.3176Z" fill="#3675BF"/>
<path d="M48.0645 16.4925C48.2339 16.4925 48.3417 16.4769 48.4342 16.4769C49.8515 16.4769 51.2688 16.4769 52.686 16.4769C52.9325 16.4769 53.0866 16.5701 53.2406 16.7566C55.4744 19.6615 57.7236 22.5665 59.9573 25.4559C60.0344 25.5647 60.1268 25.6579 60.2038 25.7666C60.25 25.7511 60.2654 25.7511 60.2654 25.7356C60.2808 25.7356 60.2808 25.72 60.2808 25.7045C60.2808 25.6734 60.2963 25.6268 60.2963 25.5957C60.2963 22.582 60.3117 19.5839 60.3117 16.5701C60.3117 16.5546 60.3271 16.5546 60.3271 16.5391C60.589 16.4614 63.7933 16.4459 64.24 16.5235C64.24 21.8519 64.24 27.1958 64.24 32.5552C64.1476 32.5708 64.0551 32.6019 63.9627 32.6019C62.8843 32.6019 61.8214 32.6019 60.743 32.6174C60.4965 32.6174 60.3733 32.4931 60.2346 32.3222C57.0611 28.2056 53.8877 24.0734 50.7142 19.9567C49.9285 18.9314 49.1428 17.9217 48.3572 16.8964C48.2801 16.7566 48.1877 16.6478 48.0645 16.4925Z" fill="#2F2E2D"/>
<path d="M88.5342 16.5701C89.8436 16.5701 91.1223 16.5701 92.4471 16.5701C92.4471 17.3003 92.4471 18.0148 92.4471 18.7605C92.5858 18.776 92.6936 18.7916 92.8014 18.7916C95.0506 18.7916 97.3152 18.8071 99.5644 18.7916C101.028 18.776 102.43 18.4809 103.724 17.7974C104.278 17.5177 104.771 17.1604 105.234 16.7255C105.341 16.6167 105.449 16.5391 105.619 16.5391C107.067 16.5391 108.499 16.5391 109.948 16.5391C109.978 16.5391 110.009 16.5546 110.086 16.5701C110.04 16.6633 110.009 16.7565 109.963 16.8342C108.499 19.4906 106.219 21.0596 103.385 21.883C102.029 22.2869 100.643 22.4577 99.2254 22.4733C97.1303 22.4888 95.0352 22.4733 92.9401 22.4733C92.8014 22.4733 92.6474 22.4733 92.4625 22.4733C92.4625 25.8754 92.4625 29.2464 92.4625 32.6329C91.1377 32.6329 89.8436 32.6329 88.5342 32.6329C88.5342 27.2735 88.5342 21.9296 88.5342 16.5701Z" fill="#2F2E2D"/>
<path d="M52.1466 14.473C52.008 14.4885 51.9155 14.4885 51.8077 14.4885C50.4366 14.4885 49.0656 14.4885 47.7099 14.4885C47.448 14.4885 47.2785 14.3953 47.1245 14.1933C45.5223 12.1117 43.9202 10.0145 42.3026 7.9329C42.2102 7.80863 42.1024 7.69988 41.9945 7.59114C41.9637 7.60668 41.9329 7.60668 41.9175 7.62221C41.9021 7.80863 41.8713 7.97951 41.8713 8.16592C41.8713 10.0611 41.8713 11.9719 41.8713 13.8671C41.8713 13.9603 41.8713 14.038 41.8713 14.1312C41.8559 14.4885 41.8405 14.504 41.4862 14.504C40.4694 14.504 39.4373 14.504 38.4205 14.504C38.0662 14.504 38.0508 14.4885 38.0508 14.1312C38.0508 9.82812 38.0508 5.54057 38.0508 1.23749C38.0508 0.849122 38.0662 0.833588 38.4513 0.833588C39.391 0.833588 40.3308 0.833588 41.2551 0.833588C41.5324 0.833588 41.7018 0.926795 41.8713 1.14428C44.0434 3.97158 46.231 6.78334 48.4031 9.61064C49.5893 11.133 50.7601 12.671 51.9463 14.1933C52.008 14.2555 52.0696 14.3487 52.1466 14.473Z" fill="#3675BF"/>
<path d="M41.8863 32.5707C40.6077 32.5707 39.3291 32.5707 38.0504 32.5707C37.9734 32.2911 37.958 16.974 38.035 16.4924C39.3137 16.4924 40.6077 16.4924 41.9017 16.4924C41.9017 16.4924 41.9017 16.508 41.9171 16.508C41.9171 16.5235 41.9326 16.5235 41.9326 16.539C41.9326 16.6322 41.948 16.7099 41.948 16.8031C41.948 22.0227 41.948 27.2579 41.9326 32.4775C41.9326 32.5086 41.9017 32.5241 41.8863 32.5707Z" fill="#2F2E2D"/>
<path d="M80.3397 32.5708C79.0148 32.5708 77.7362 32.5708 76.4268 32.5708C76.4268 27.2113 76.4268 21.8674 76.4268 16.5235C76.6886 16.4458 79.9084 16.4303 80.3397 16.508C80.3397 21.8519 80.3397 27.1803 80.3397 32.5708Z" fill="#2F2E2D"/>
<path d="M22.5225 7.43575C22.5225 5.33858 22.5225 3.24141 22.5225 1.14424C22.5225 1.05103 22.5225 0.973358 22.5225 0.88015C22.5379 0.616062 22.5687 0.584993 22.8306 0.569458C22.8768 0.569458 22.923 0.569458 22.9846 0.569458C23.9706 0.569458 24.9565 0.569458 25.9424 0.569458C26.3738 0.569458 26.3892 0.584993 26.3892 1.00443C26.3892 5.29198 26.3892 9.57953 26.3892 13.8515C26.3892 13.8982 26.3892 13.9448 26.3892 14.0069C26.4046 14.2088 26.2968 14.271 26.1119 14.271C26.0811 14.271 26.0349 14.271 26.0041 14.271C24.9719 14.271 23.9397 14.271 22.9076 14.271C22.5533 14.271 22.5379 14.2554 22.5379 13.8982C22.5225 11.7388 22.5225 9.59506 22.5225 7.43575Z" fill="#3675BF"/>
<path d="M80.2917 7.48239C80.2917 9.56402 80.2917 11.6301 80.2917 13.7118C80.2917 13.805 80.2917 13.9137 80.2917 14.0069C80.2917 14.1933 80.2147 14.2865 80.0298 14.271C79.8142 14.271 79.5831 14.271 79.3674 14.271C78.5355 14.271 77.6882 14.271 76.8564 14.271C76.4558 14.271 76.4404 14.2555 76.4404 13.8516C76.4404 11.7389 76.4404 9.62616 76.4404 7.51346C76.4404 5.43182 76.4404 3.33465 76.4404 1.25301C76.4404 1.1598 76.4404 1.05106 76.4404 0.957853C76.4558 0.64716 76.502 0.585022 76.8102 0.585022C77.8423 0.585022 78.8744 0.585022 79.9066 0.585022C80.2763 0.585022 80.2917 0.616091 80.2917 1.00446C80.2917 2.62006 80.2917 4.23565 80.2917 5.85125C80.2917 6.37943 80.2917 6.92314 80.2917 7.48239Z" fill="#3675BF"/>
<path d="M3.98924 7.51346C3.98924 9.62616 3.98924 11.7389 3.98924 13.8516C3.98924 13.9448 3.98924 14.0535 3.98924 14.1467C3.97383 14.3953 3.95843 14.4264 3.69654 14.4264C3.04951 14.4264 2.4179 14.4264 1.77088 14.4264C1.33953 14.4264 0.908179 14.4264 0.476831 14.4264C0.199536 14.4264 0.168726 14.3798 0.15332 14.1001C0.15332 14.0225 0.15332 13.9448 0.15332 13.8826C0.15332 9.6417 0.15332 5.41629 0.15332 1.17534C0.15332 0.585022 0.15332 0.585022 0.738721 0.585022C1.64763 0.585022 2.55654 0.585022 3.46546 0.585022C3.55789 0.585022 3.66573 0.585022 3.75816 0.600557C3.8968 0.616091 3.95843 0.693764 3.95843 0.818041C3.95843 0.926783 3.95843 1.03553 3.95843 1.1598C3.98924 3.25697 3.98924 5.38522 3.98924 7.51346Z" fill="#3675BF"/>
<path d="M60.3572 7.42025C60.3572 5.32308 60.3572 3.2259 60.3572 1.12873C60.3572 0.585022 60.3572 0.585022 60.881 0.585022C61.8361 0.585022 62.8066 0.585022 63.7618 0.585022C64.1469 0.585022 64.1777 0.616091 64.1777 1.01999C64.1777 5.30754 64.1777 9.59509 64.1777 13.8826C64.1777 14.271 64.1623 14.2865 63.7772 14.2865C62.7604 14.2865 61.7591 14.2865 60.7423 14.2865C60.3572 14.2865 60.3418 14.271 60.3418 13.8826C60.3572 11.7233 60.3572 9.56402 60.3572 7.42025Z" fill="#3675BF"/>
</svg>
